<svg version="1.1" xmlns="http://www.w3.org/2000/svg" xmlns:xlink="http://www.w3.org/1999/xlink" width="507" height="290"><defs><clipPath id="JhmxSQFdRogU"><path fill="none" stroke="none" d=" M 0 0 L 507 0 L 507 290 L 0 290 L 0 0 Z"/></clipPath></defs><g transform="scale(1,1)" clip-path="url(#JhmxSQFdRogU)"><g><rect fill="rgb(255,255,255)" stroke="none" x="0" y="0" width="507" height="290" fill-opacity="1"/><path fill="none" stroke="rgb(0,0,0)" paint-order="fill stroke markers" d=" M 246.5 2.5 L 246.5 290.5" stroke-opacity="1" stroke-miterlimit="10"/><path fill="none" stroke="rgb(0,0,0)" paint-order="fill stroke markers" d=" M 246.5 1.5 L 243.5 4.5" stroke-opacity="1" stroke-miterlimit="10"/><path fill="none" stroke="rgb(0,0,0)" paint-order="fill stroke markers" d=" M 246.5 1.5 L 249.5 4.5" stroke-opacity="1" stroke-miterlimit="10"/><path fill="none" stroke="rgb(0,0,0)" paint-order="fill stroke markers" d=" M 0.5 112.5 L 505.5 112.5" stroke-opacity="1" stroke-miterlimit="10"/><path fill="none" stroke="rgb(0,0,0)" paint-order="fill stroke markers" d=" M 506.5 112.5 L 503.5 109.5" stroke-opacity="1" stroke-miterlimit="10"/><path fill="none" stroke="rgb(0,0,0)" paint-order="fill stroke markers" d=" M 506.5 112.5 L 503.5 115.5" stroke-opacity="1" stroke-miterlimit="10"/><text fill="rgb(0,0,0)" stroke="none" font-family="geogebra-sans-serif, sans-serif" font-size="10px" font-style="normal" font-weight="normal" text-decoration="normal" x="42" y="126" text-anchor="start" dominant-baseline="alphabetic" fill-opacity="1">–6</text><text fill="rgb(0,0,0)" stroke="none" font-family="geogebra-sans-serif, sans-serif" font-size="10px" font-style="normal" font-weight="normal" text-decoration="normal" x="42" y="126" text-anchor="start" dominant-baseline="alphabetic" fill-opacity="1">–6</text><path fill="none" stroke="rgb(0,0,0)" paint-order="fill stroke markers" d=" M 46.5 112.5 L 46.5 115.5" stroke-opacity="1" stroke-miterlimit="10"/><text fill="rgb(0,0,0)" stroke="none" font-family="geogebra-sans-serif, sans-serif" font-size="10px" font-style="normal" font-weight="normal" text-decoration="normal" x="108" y="126" text-anchor="start" dominant-baseline="alphabetic" fill-opacity="1">–4</text><text fill="rgb(0,0,0)" stroke="none" font-family="geogebra-sans-serif, sans-serif" font-size="10px" font-style="normal" font-weight="normal" text-decoration="normal" x="108" y="126" text-anchor="start" dominant-baseline="alphabetic" fill-opacity="1">–4</text><path fill="none" stroke="rgb(0,0,0)" paint-order="fill stroke markers" d=" M 112.5 112.5 L 112.5 115.5" stroke-opacity="1" stroke-miterlimit="10"/><text fill="rgb(0,0,0)" stroke="none" font-family="geogebra-sans-serif, sans-serif" font-size="10px" font-style="normal" font-weight="normal" text-decoration="normal" x="175" y="126" text-anchor="start" dominant-baseline="alphabetic" fill-opacity="1">–2</text><text fill="rgb(0,0,0)" stroke="none" font-family="geogebra-sans-serif, sans-serif" font-size="10px" font-style="normal" font-weight="normal" text-decoration="normal" x="175" y="126" text-anchor="start" dominant-baseline="alphabetic" fill-opacity="1">–2</text><path fill="none" stroke="rgb(0,0,0)" paint-order="fill stroke markers" d=" M 179.5 112.5 L 179.5 115.5" stroke-opacity="1" stroke-miterlimit="10"/><path fill="none" stroke="rgb(0,0,0)" paint-order="fill stroke markers" d=" M 246.5 112.5 L 246.5 115.5" stroke-opacity="1" stroke-miterlimit="10"/><text fill="rgb(0,0,0)" stroke="none" font-family="geogebra-sans-serif, sans-serif" font-size="10px" font-style="normal" font-weight="normal" text-decoration="normal" x="311" y="126" text-anchor="start" dominant-baseline="alphabetic" fill-opacity="1">2</text><text fill="rgb(0,0,0)" stroke="none" font-family="geogebra-sans-serif, sans-serif" font-size="10px" font-style="normal" font-weight="normal" text-decoration="normal" x="311" y="126" text-anchor="start" dominant-baseline="alphabetic" fill-opacity="1">2</text><path fill="none" stroke="rgb(0,0,0)" paint-order="fill stroke markers" d=" M 312.5 112.5 L 312.5 115.5" stroke-opacity="1" stroke-miterlimit="10"/><text fill="rgb(0,0,0)" stroke="none" font-family="geogebra-sans-serif, sans-serif" font-size="10px" font-style="normal" font-weight="normal" text-decoration="normal" x="378" y="126" text-anchor="start" dominant-baseline="alphabetic" fill-opacity="1">4</text><text fill="rgb(0,0,0)" stroke="none" font-family="geogebra-sans-serif, sans-serif" font-size="10px" font-style="normal" font-weight="normal" text-decoration="normal" x="378" y="126" text-anchor="start" dominant-baseline="alphabetic" fill-opacity="1">4</text><path fill="none" stroke="rgb(0,0,0)" paint-order="fill stroke markers" d=" M 379.5 112.5 L 379.5 115.5" stroke-opacity="1" stroke-miterlimit="10"/><text fill="rgb(0,0,0)" stroke="none" font-family="geogebra-sans-serif, sans-serif" font-size="10px" font-style="normal" font-weight="normal" text-decoration="normal" x="444" y="126" text-anchor="start" dominant-baseline="alphabetic" fill-opacity="1">6</text><text fill="rgb(0,0,0)" stroke="none" font-family="geogebra-sans-serif, sans-serif" font-size="10px" font-style="normal" font-weight="normal" text-decoration="normal" x="444" y="126" text-anchor="start" dominant-baseline="alphabetic" fill-opacity="1">6</text><path fill="none" stroke="rgb(0,0,0)" paint-order="fill stroke markers" d=" M 446.5 112.5 L 446.5 115.5" stroke-opacity="1" stroke-miterlimit="10"/><path fill="none" stroke="rgb(0,0,0)" paint-order="fill stroke markers" d=" M 243.5 246.5 L 246.5 246.5" stroke-opacity="1" stroke-miterlimit="10"/><path fill="none" stroke="rgb(0,0,0)" paint-order="fill stroke markers" d=" M 243.5 179.5 L 246.5 179.5" stroke-opacity="1" stroke-miterlimit="10"/><path fill="none" stroke="rgb(0,0,0)" paint-order="fill stroke markers" d=" M 243.5 46.5 L 246.5 46.5" stroke-opacity="1" stroke-miterlimit="10"/><text fill="rgb(0,0,0)" stroke="none" font-family="geogebra-sans-serif, sans-serif" font-size="10px" font-style="normal" font-weight="normal" text-decoration="normal" x="229" y="250" text-anchor="start" dominant-baseline="alphabetic" fill-opacity="1">–4</text><text fill="rgb(0,0,0)" stroke="none" font-family="geogebra-sans-serif, sans-serif" font-size="10px" font-style="normal" font-weight="normal" text-decoration="normal" x="229" y="250" text-anchor="start" dominant-baseline="alphabetic" fill-opacity="1">–4</text><text fill="rgb(0,0,0)" stroke="none" font-family="geogebra-sans-serif, sans-serif" font-size="10px" font-style="normal" font-weight="normal" text-decoration="normal" x="229" y="183" text-anchor="start" dominant-baseline="alphabetic" fill-opacity="1">–2</text><text fill="rgb(0,0,0)" stroke="none" font-family="geogebra-sans-serif, sans-serif" font-size="10px" font-style="normal" font-weight="normal" text-decoration="normal" x="229" y="183" text-anchor="start" dominant-baseline="alphabetic" fill-opacity="1">–2</text><text fill="rgb(0,0,0)" stroke="none" font-family="geogebra-sans-serif, sans-serif" font-size="10px" font-style="normal" font-weight="normal" text-decoration="normal" x="234" y="50" text-anchor="start" dominant-baseline="alphabetic" fill-opacity="1">2</text><text fill="rgb(0,0,0)" stroke="none" font-family="geogebra-sans-serif, sans-serif" font-size="10px" font-style="normal" font-weight="normal" text-decoration="normal" x="234" y="50" text-anchor="start" dominant-baseline="alphabetic" fill-opacity="1">2</text><text fill="rgb(0,0,0)" stroke="none" font-family="geogebra-sans-serif, sans-serif" font-size="10px" font-style="normal" font-weight="normal" text-decoration="normal" x="234" y="126" text-anchor="start" dominant-baseline="alphabetic" fill-opacity="1">0</text><text fill="rgb(0,0,0)" stroke="none" font-family="geogebra-sans-serif, sans-serif" font-size="10px" font-style="normal" font-weight="normal" text-decoration="normal" x="234" y="126" text-anchor="start" dominant-baseline="alphabetic" fill-opacity="1">0</text><path fill="none" stroke="rgb(220,20,60)" paint-order="fill stroke markers" d=" M 141.603515625 299.28606960825357 L 142.59375 290.9911352574726 L 143.583984375 282.9115787508227 L 144.57421875 275.04477841990456 L 145.564453125 267.3881125963193 L 146.5546875 259.93895961166754 L 147.544921875 252.69469779755025 L 148.53515625 245.6527054855684 L 149.525390625 238.8103610073228 L 150.515625 232.1650426944143 L 151.505859375 225.71412887844377 L 152.49609375 219.4549978910121 L 153.486328125 213.38502806372043 L 154.4765625 207.50159772816912 L 155.466796875 201.80208521595938 L 156.45703125 196.28386885869196 L 157.447265625 190.9443269879677 L 158.4375 185.78083793538764 L 160.41796875 175.97153161106337 L 162.3984375 166.834976538526 L 164.37890625 158.35019937058263 L 166.359375 150.49622676004023 L 168.33984375 143.25208535970583 L 170.3203125 136.5968018223863 L 172.30078125 130.5094028008887 L 174.28125 124.96891494802006 L 178.2421875 115.44477935939756 L 182.203125 107.85660827897482 L 186.1640625 102.03661492920776 L 190.125 97.81701253255237 L 192.10546875000003 96.25492457365907 L 194.0859375 95.03001431146468 L 196.06640625 94.12130839877616 L 198.046875 93.50783348840059 L 200.02734375 93.16861623314492 L 202.0078125 93.08268328581613 L 205.96875000000003 93.58677692616726 L 207.94921875 94.13485681946116 L 209.9296875 94.85232763190997 L 213.890625 96.71154862550023 L 217.85156250000003 98.99665312939402 L 221.8125 101.53985436604731 L 225.7734375 104.17336555791609 L 229.734375 106.72939992745634 L 233.6953125 109.04017069712401 L 237.65625 110.93789108937513 L 241.6171875 112.25477432666564 L 243.59765625000003 112.64296864421816 L 245.57812500000003 112.82303363145152 L 247.55859375 112.77399594117273 L 249.5390625 112.47488222618877 L 251.51953125 111.90471913930664 L 253.5 111.04253333333334 L 255.48046875 109.86735146107587 L 257.4609375 108.35820017534122 L 261.421875 104.25409597466843 L 265.3828125 98.56243395377086 L 269.34375 91.11542733510456 L 273.3046875 81.74528934112546 L 275.28515625 76.2866127104111 L 277.26562500000006 70.28423319428956 L 279.24609375000006 63.717177445567785 L 281.2265625 56.56447211705303 L 283.20703125 48.80514386155187 L 285.1875 40.418219331871484 L 287.16796875 31.38272518081888 L 289.1484375 21.67768806120108 L 290.138671875 16.567536717182378 L 291.12890625 11.282134625825023 L 292.119140625 5.8188601187298445 L 293.109375 0.17509152749777002 L 294.099609375 -5.651792816270401" stroke-opacity="1" stroke-linecap="round" stroke-linejoin="round" stroke-miterlimit="10"/><text fill="rgb(220,20,60)" stroke="none" font-family="geogebra-sans-serif, sans-serif" font-size="12px" font-style="normal" font-weight="normal" text-decoration="normal" x="153" y="285" text-anchor="start" dominant-baseline="alphabetic" fill-opacity="1">y = f(x)</text><text fill="rgb(220,20,60)" stroke="none" font-family="geogebra-sans-serif, sans-serif" font-size="12px" font-style="normal" font-weight="normal" text-decoration="normal" x="153" y="285" text-anchor="start" dominant-baseline="alphabetic" fill-opacity="1">y = f(x)</text><path fill="none" stroke="rgb(127,0,255)" paint-order="fill stroke markers" d=" M 279.24609375000006 298.07774008798606 L 279.24609375000006 298.07774008798606 L 280.236328125 290.7009548857003 L 280.236328125 290.7009548857003 L 280.236328125 290.7009548857003 L 281.2265625 283.528138702342 L 281.2265625 283.528138702342 L 282.216796875 276.55666986951263 L 283.20703125 269.78392671881295 L 284.197265625 263.20728758184384 L 285.1875 256.8241307902062 L 286.177734375 250.6318346755009 L 287.16796875 244.62777756932883 L 288.158203125 238.80933780329087 L 289.1484375 233.17389370898786 L 290.138671875 227.71882361802062 L 291.12890625 222.44150586199018 L 292.119140625 217.3393187724973 L 293.109375 212.40964068114283 L 295.08984375 203.05732481925287 L 297.0703125 194.3635849291272 L 299.05078125 186.30744766357287 L 301.03125 178.86793967539688 L 303.01171875 172.02408761740625 L 304.99218750000006 165.75491814240794 L 306.97265625 160.03945790320907 L 308.953125 154.85673355261636 L 312.9140625 146.0055991284779 L 316.875 139.03372809244868 L 320.8359375 133.77333366698468 L 324.796875 130.0566290745419 L 326.77734375 128.72472709772094 L 328.7578125 127.71582753757629 L 330.73828125 127.00895704691492 L 332.71875000000006 126.58314227854383 L 334.69921875 126.41740988527003 L 336.6796875 126.49078651990051 L 340.640625 127.27097348410229 L 344.6015625 128.75591639360516 L 348.5625 130.7778284708651 L 352.5234375 133.16892293833808 L 356.484375 135.76141301848008 L 360.4453125 138.38751193374705 L 364.40625 140.87943290659504 L 368.3671875 143.06938915947998 L 372.328125 144.78959391485785 L 376.2890625 145.87226039518464 L 378.26953125 146.12208341422138 L 380.25 146.1496018229163 L 382.23046875 145.93384227407648 L 384.2109375 145.45383142050886 L 386.19140625 144.68859591502044 L 388.171875 143.61716241041827 L 390.15234375 142.2185575595093 L 392.1328125 140.4718080151005 L 396.09375 135.84998145701152 L 400.0546875 129.58389595860734 L 404.015625 121.50576474234389 L 405.99609375 116.73474862203244 L 407.9765625 111.44780103067717 L 409.95703125 105.62394862108508 L 411.9375 99.24221804606317 L 413.91796875 92.28163595841865 L 415.8984375 84.72122901095808 L 417.87890625 76.54002385648869 L 419.859375 67.71704714781748 L 421.83984375 58.231325537751395 L 422.830078125 53.233381223697506 L 423.8203125 48.0618856790975 L 424.810546875 42.7142172355523 L 425.80078125 37.18775422466274 L 426.791015625 31.479874978029756 L 427.78125 25.587957827254144 L 428.771484375 19.50938110393686 L 429.76171875 13.24152313967869 L 430.751953125 6.781762266080591 L 431.7421875 0.1274768147434031 L 431.7421875 0.1274768147434031 L 432.732421875 -6.723954882732002 L 432.732421875 -6.723954882732002" stroke-opacity="1" stroke-linecap="round" stroke-linejoin="round" stroke-miterlimit="10"/><text fill="rgb(127,0,255)" stroke="none" font-family="geogebra-sans-serif, sans-serif" font-size="12px" font-style="normal" font-weight="normal" text-decoration="normal" x="291" y="285" text-anchor="start" dominant-baseline="alphabetic" fill-opacity="1">y+1 = f(x-4)</text><text fill="rgb(127,0,255)" stroke="none" font-family="geogebra-sans-serif, sans-serif" font-size="12px" font-style="normal" font-weight="normal" text-decoration="normal" x="291" y="285" text-anchor="start" dominant-baseline="alphabetic" fill-opacity="1">y+1 = f(x-4)</text></g></g></svg>