<svg version="1.1" xmlns="http://www.w3.org/2000/svg" xmlns:xlink="http://www.w3.org/1999/xlink" width="415" height="290"><defs><clipPath id="UaUceXuZbRWl"><path fill="none" stroke="none" d=" M 0 0 L 415 0 L 415 290 L 0 290 L 0 0 Z"/></clipPath></defs><g transform="scale(1,1)" clip-path="url(#UaUceXuZbRWl)"><g><rect fill="rgb(255,255,255)" stroke="none" x="0" y="0" width="415" height="290" fill-opacity="1"/><path fill="none" stroke="rgb(0,0,0)" paint-order="fill stroke markers" d=" M 182.5 2.5 L 182.5 290.5" stroke-opacity="1" stroke-miterlimit="10"/><path fill="none" stroke="rgb(0,0,0)" paint-order="fill stroke markers" d=" M 182.5 1.5 L 179.5 4.5" stroke-opacity="1" stroke-miterlimit="10"/><path fill="none" stroke="rgb(0,0,0)" paint-order="fill stroke markers" d=" M 182.5 1.5 L 185.5 4.5" stroke-opacity="1" stroke-miterlimit="10"/><path fill="none" stroke="rgb(0,0,0)" paint-order="fill stroke markers" d=" M 0.5 108.5 L 413.5 108.5" stroke-opacity="1" stroke-miterlimit="10"/><path fill="none" stroke="rgb(0,0,0)" paint-order="fill stroke markers" d=" M 414.5 108.5 L 411.5 105.5" stroke-opacity="1" stroke-miterlimit="10"/><path fill="none" stroke="rgb(0,0,0)" paint-order="fill stroke markers" d=" M 414.5 108.5 L 411.5 111.5" stroke-opacity="1" stroke-miterlimit="10"/><path fill="none" stroke="rgb(0,0,0)" paint-order="fill stroke markers" d=" M 48.5 108.5 L 48.5 111.5" stroke-opacity="1" stroke-miterlimit="10"/><path fill="none" stroke="rgb(0,0,0)" paint-order="fill stroke markers" d=" M 115.5 108.5 L 115.5 111.5" stroke-opacity="1" stroke-miterlimit="10"/><path fill="none" stroke="rgb(0,0,0)" paint-order="fill stroke markers" d=" M 182.5 108.5 L 182.5 111.5" stroke-opacity="1" stroke-miterlimit="10"/><path fill="none" stroke="rgb(0,0,0)" paint-order="fill stroke markers" d=" M 248.5 108.5 L 248.5 111.5" stroke-opacity="1" stroke-miterlimit="10"/><path fill="none" stroke="rgb(0,0,0)" paint-order="fill stroke markers" d=" M 315.5 108.5 L 315.5 111.5" stroke-opacity="1" stroke-miterlimit="10"/><path fill="none" stroke="rgb(0,0,0)" paint-order="fill stroke markers" d=" M 382.5 108.5 L 382.5 111.5" stroke-opacity="1" stroke-miterlimit="10"/><path fill="none" stroke="rgb(0,0,0)" paint-order="fill stroke markers" d=" M 179.5 275.5 L 182.5 275.5" stroke-opacity="1" stroke-miterlimit="10"/><path fill="none" stroke="rgb(0,0,0)" paint-order="fill stroke markers" d=" M 179.5 192.5 L 182.5 192.5" stroke-opacity="1" stroke-miterlimit="10"/><path fill="none" stroke="rgb(0,0,0)" paint-order="fill stroke markers" d=" M 179.5 25.5 L 182.5 25.5" stroke-opacity="1" stroke-miterlimit="10"/><path fill="none" stroke="rgb(220,20,60)" paint-order="fill stroke markers" d=" M 0 241.7979864727695 L 3.2421875 250.6913665918546 L 6.484374999999972 257.85997424638435 L 9.7265625 263.2863417438904 L 11.34765625 265.34610510790003 L 12.96875 266.9726233786546 L 14.589843749999972 268.1691455094068 L 15.400390625 268.60748832367216 L 16.2109375 268.94006979115215 L 17.021484375 269.1676147715574 L 17.83203125 269.29091636085786 L 18.64257812499997 269.3108348738867 L 19.453125 269.22829678389866 L 20.263671875 269.0442936200368 L 21.07421875 268.75988082368644 L 22.6953125 267.8943605186836 L 24.31640624999997 266.64141169380525 L 25.9375 265.01165303963387 L 29.1796875 260.66863390502044 L 32.42187499999997 254.96741534948856 L 35.6640625 248.02221982112675 L 38.90625 239.9577299306795 L 42.14843749999997 230.9073518021006 L 45.390625 221.01141351616513 L 47.01171875 215.79165120267004 L 48.63281249999997 210.41532078645827 L 50.25390625 204.90108535922906 L 51.875 199.26769219707208 L 53.49609375 193.533914931813 L 55.1171875 187.71849626401303 L 56.73828125 181.84009138357365 L 58.359375 175.91721226072883 L 59.980468749999986 169.9681729665777 L 61.601562499999986 164.0110361782432 L 63.22265625 158.06356101924655 L 64.84375 152.14315238077717 L 66.46484375 146.26681186423286 L 68.0859375 140.45109047971732 L 69.70703125 134.71204322913275 L 71.32812499999999 129.06518569611265 L 72.94921875 123.52545275832043 L 74.57031249999999 118.10715953062136 L 76.19140625 112.82396464032843 L 77.8125 107.68883592816218 L 81.0546875 97.91100633256409 L 84.29687499999999 88.86245509601378 L 87.5390625 80.61915466227327 L 90.78125 73.24363780582411 L 94.02343749999999 66.78455200652033 L 97.26562499999999 61.276398796822484 L 100.5078125 56.739458662354785 L 103.75 53.179899832513165 L 106.99218749999999 50.59006709199289 L 108.61328125 49.65273635505667 L 110.234375 48.94894460167645 L 111.85546874999999 48.47408044252551 L 113.4765625 48.2227846627397 L 115.09765624999999 48.1889782229333 L 116.71875 48.36589241439603 L 118.33984375 48.746101059848385 L 119.9609375 49.32155464531492 L 123.203125 51.02309924171815 L 126.4453125 53.395070309923334 L 129.6875 56.35450271407672 L 132.9296875 59.81227867518037 L 136.171875 63.67454819708473 L 139.4140625 67.84419442819905 L 142.65625 72.22232464098366 L 145.8984375 76.70976731888491 L 149.14062499999997 81.20855588359824 L 152.3828125 85.62337987304223 L 155.625 89.86298488813478 L 158.8671875 93.84150335770082 L 162.109375 97.47969911635431 L 165.3515625 100.7061099382972 L 168.59375 103.45807350665831 L 171.8359375 105.68262380710152 L 175.078125 107.33724659785196 L 178.3203125 108.39048440615139 L 179.94140625 108.6848901318268 L 181.5625 108.82238341205935 L 184.8046875 108.62477658178622 L 186.42578125 108.29061119153303 L 188.046875 107.80139948066972 L 191.2890625 106.36783730602286 L 194.53124999999997 104.35130380744867 L 197.7734375 101.79025488169414 L 201.015625 98.7338417156585 L 204.2578125 95.24121038009804 L 207.5 91.3806567238668 L 210.7421875 87.22864726110008 L 213.984375 82.86871845968096 L 217.2265625 78.3902684081655 L 220.46875 73.88725624128102 L 223.7109375 69.45682592424848 L 226.953125 65.19787201869119 L 230.1953125 61.20956586520203 L 233.4375 57.589861209578075 L 236.6796875 54.43399866364334 L 239.921875 51.833028522419305 L 243.1640625 49.87237135480438 L 244.78515625 49.15697298037275 L 246.40625 48.63043544522106 L 248.02734375 48.301249601751834 L 249.6484375 48.17730959193171 L 251.26953125 48.26587735370292 L 252.890625 48.57354896964085 L 254.51171875 49.10622297640078 L 256.1328125 49.86907074794627 L 259.375 52.10217493406928 L 260.99609375 53.57890286276838 L 262.6171875 55.298704491400066 L 265.859375 59.47135719033769 L 269.1015625 64.6191598923954 L 272.34375 70.72711407221144 L 275.5859375 77.76601936629041 L 278.828125 85.69247982481242 L 282.0703125 94.4490953577127 L 285.3125 103.96483863344453 L 286.93359375 108.98159513420073 L 288.5546875 114.15561543405008 L 290.17578125 119.4744674108895 L 291.796875 124.92500421944777 L 293.41796875 130.4933967259681 L 295.0390625 136.16516843334034 L 296.66015625 141.9252328088328 L 298.28125 147.75793291884116 L 299.90234375 153.64708326756326 L 301.5234375 159.57601372927886 L 303.14453125 165.52761545697112 L 304.765625 171.48438864337965 L 306.38671875 177.42849200428054 L 308.0078125 183.34179384781584 L 309.62890625 189.20592458811763 L 311.25 195.00233055625165 L 312.87109375 200.7123289567101 L 314.4921875 206.3171638132916 L 316.11328125 211.79806274424507 L 317.734375 217.13629440305073 L 319.35546875 222.31322641814478 L 320.9765625 227.3103836623122 L 324.21875 236.69261010204423 L 327.4609375 245.14053608064924 L 330.703125 252.5179623573313 L 333.9453125 258.6967481913627 L 337.1875 263.5585747469558 L 340.4296875 266.99662991520006 L 341.240234375 267.6223874369432 L 342.05078125 268.15190324419916 L 343.671875 268.91719327253577 L 344.482421875 269.1506095825096 L 345.29296875 269.2830708765177 L 346.103515625 269.31355411422874 L 346.9140625 269.2411007550158 L 347.724609375 269.06481788079066 L 348.53515625 268.7838792772229 L 350.15625 267.90506973183903 L 350.966796875 267.3058890093863 L 351.77734375 266.5994348523754 L 353.3984375 264.86286650018536 L 356.640625 260.0862997834143 L 359.8828125 253.56602558079726 L 363.125 245.31215067128537 L 366.3671875 235.35462419629502 L 367.98828125 229.7518231630424 L 369.609375 223.74340901497052 L 371.23046875 217.3387452714487 L 372.8515625 210.54842691591796 L 374.47265625 203.38426610147218 L 376.09375 195.85927425647247 L 377.71484375 187.98764060877096 L 379.3359375 179.78470715736105 L 380.95703125 171.2669401304717 L 382.578125 162.45189797930996 L 384.19921875 153.3581959667432 L 385.8203125 144.00546742020924 L 387.44140625 134.4143217280199 L 389.0625 124.60629916791471 L 389.873046875 119.62793312874419 L 390.68359375 114.60382266626358 L 391.494140625 109.53690015936307 L 392.3046875 104.430146595616 L 393.115234375 99.28658981753827 L 393.92578125 94.10930272736552 L 394.736328125 88.90140145141396 L 395.546875 83.66604346511613 L 396.357421875 78.40642567986656 L 397.16796875 73.12578249283044 L 397.978515625 67.82738380090548 L 398.7890625 62.51453298005712 L 399.599609375 57.19056483126708 L 400.41015625 51.85884349437771 L 401.220703125 46.52276033112657 L 402.03125 41.185731778703584 L 402.841796875 35.85119717517685 L 403.65234375 30.52261655817223 L 404.462890625 25.20346843820157 L 405.2734375 19.897247548064882 L 406.083984375 14.607462569774043 L 406.89453125 9.337633840458153 L 407.705078125 4.091291038744515 L 408.515625 -1.1280291468850265 L 409.326171875 -6.316785366237539" stroke-opacity="1" stroke-linecap="round" stroke-linejoin="round" stroke-miterlimit="10"/><text fill="rgb(220,20,60)" stroke="none" font-family="geogebra-sans-serif, sans-serif" font-size="12px" font-style="normal" font-weight="normal" text-decoration="normal" x="5" y="285" text-anchor="start" dominant-baseline="alphabetic" fill-opacity="1">y = f(x)</text><text fill="rgb(220,20,60)" stroke="none" font-family="geogebra-sans-serif, sans-serif" font-size="12px" font-style="normal" font-weight="normal" text-decoration="normal" x="5" y="285" text-anchor="start" dominant-baseline="alphabetic" fill-opacity="1">y = f(x)</text><path fill="none" stroke="rgb(127,0,255)" paint-order="fill stroke markers" d=" M 0 72.60247663516063 L 3.2421875 69.2991771558568 L 6.484374999999972 66.23075317634127 L 9.7265625 63.400907377866844 L 12.96875 60.81245233972472 L 16.2109375 58.46731306125932 L 19.453125 56.366532331783475 L 22.6953125 54.51027891223373 L 25.9375 52.89785848404033 L 29.1796875 51.52772731248725 L 32.42187499999997 50.39750856382574 L 35.6640625 49.50401120760349 L 38.90625 48.84325142810445 L 42.14843749999997 48.410476461479654 L 45.390625 48.2001907681112 L 48.63281249999997 48.20618444300664 L 51.875 48.421563760590274 L 55.1171875 48.838783744157745 L 58.359375 49.44968264450894 L 61.601562499999986 50.24551820688654 L 64.84375 51.21700560033865 L 68.0859375 52.35435687900821 L 71.32812499999999 53.6473218406401 L 74.57031249999999 55.08523014380296 L 77.8125 56.65703454195394 L 81.0546875 58.35135508954239 L 84.29687499999999 60.15652417285873 L 87.5390625 62.06063221629468 L 90.78125 64.05157391309505 L 94.02343749999999 66.11709482855437 L 97.26562499999999 68.24483822294383 L 100.5078125 70.42239194124954 L 103.75 72.63733521705859 L 106.99218749999999 74.8772852386457 L 110.234375 77.12994332648566 L 113.4765625 79.38314057304268 L 116.71875 81.62488279775997 L 119.9609375 83.84339467268624 L 123.203125 86.02716287712097 L 126.4453125 88.16497814302856 L 129.6875 90.2459760567529 L 132.9296875 92.25967648674465 L 136.171875 94.19602151158443 L 139.4140625 96.04541172752799 L 142.65625 97.79874082010296 L 145.8984375 99.4474282899328 L 149.14062499999997 100.98345022893514 L 152.3828125 102.39936804932277 L 155.625 103.6883550744046 L 158.8671875 104.84422090702334 L 162.109375 105.86143349855605 L 165.3515625 106.73513884871936 L 168.59375 107.46117827394617 L 171.8359375 108.03610318980725 L 175.078125 108.45718736082043 L 178.3203125 108.72243657899718 L 181.5625 108.83059574059763 L 184.8046875 108.78115329877625 L 188.046875 108.57434307807844 L 191.2890625 108.21114344506694 L 194.53124999999997 107.69327383769303 L 197.7734375 107.02318866435549 L 201.015625 106.2040685918866 L 204.2578125 105.23980924994277 L 207.5 104.13500738743556 L 210.7421875 102.89494452469144 L 213.984375 101.52556815295081 L 217.2265625 100.03347054058864 L 220.46875 98.42586521303262 L 223.7109375 96.71056118075208 L 226.953125 94.89593499686669 L 230.1953125 92.9909007328592 L 233.4375 91.00487796754831 L 236.6796875 88.94775789086896 L 239.921875 86.82986763009563 L 243.1640625 84.66193291191445 L 246.40625 82.4550391791822 L 249.6484375 80.22059128629039 L 252.890625 77.97027190176242 L 256.1328125 75.71599875104111 L 259.375 73.46988083635443 L 262.6171875 71.24417377407102 L 265.859375 69.05123439306176 L 269.1015625 66.90347474025799 L 272.34375 64.81331564183498 L 275.5859375 62.79313997024227 L 278.828125 60.855245768644394 L 282.0703125 59.011799385221856 L 285.3125 57.274788770210286 L 288.5546875 55.65597708852258 L 291.796875 54.16685680030321 L 295.0390625 52.81860436080847 L 298.28125 51.62203568959088 L 301.5234375 50.58756255709447 L 304.765625 49.72515003444542 L 308.0078125 49.04427514945344 L 311.25 48.55388688863323 L 314.4921875 48.26236768141796 L 317.734375 48.17749649868008 L 320.9765625 48.30641369320749 L 324.21875 48.655587704919874 L 327.4609375 49.230783748361226 L 330.703125 50.03703459438748 L 333.9453125 51.07861355199563 L 337.1875 52.35900974993157 L 340.4296875 53.8809058110835 L 343.671875 55.646158005737036 L 346.9140625 57.655778962553896 L 350.15625 59.909923008660435 L 353.3984375 62.40787420251605 L 356.640625 65.1480371152955 L 359.8828125 68.12793040838613 L 363.125 71.34418324629668 L 366.3671875 74.79253457581618 L 369.609375 78.46783529368177 L 372.8515625 82.36405331632983 L 376.09375 86.47428155654657 L 379.3359375 90.79074880302267 L 382.578125 95.30483348998189 L 385.8203125 100.00708033521624 L 389.0625 104.8872198160494 L 392.3046875 109.9341904439918 L 395.546875 115.13616379016499 L 398.7890625 120.48057220499588 L 402.03125 125.95413916722387 L 405.2734375 131.54291218896495 L 408.515625 137.23229819545116 L 411.7578125 143.00710129014055 L 415 148.85156280819177" stroke-opacity="1" stroke-linecap="round" stroke-linejoin="round" stroke-miterlimit="10"/><text fill="rgb(127,0,255)" stroke="none" font-family="geogebra-sans-serif, sans-serif" font-size="12px" font-style="normal" font-weight="normal" text-decoration="normal" x="5" y="84" text-anchor="start" dominant-baseline="alphabetic" fill-opacity="1">y = f(x/2)</text><text fill="rgb(127,0,255)" stroke="none" font-family="geogebra-sans-serif, sans-serif" font-size="12px" font-style="normal" font-weight="normal" text-decoration="normal" x="5" y="84" text-anchor="start" dominant-baseline="alphabetic" fill-opacity="1">y = f(x/2)</text><path fill="none" stroke="rgb(255,0,255)" paint-order="fill stroke markers" d=" M 0 142.07449661819214 L 3.2421875 144.29784164796342 L 6.484374999999972 146.08999356159586 L 9.7265625 147.44658543597237 L 12.96875 148.36815584466342 L 16.2109375 148.8600174477878 L 19.453125 148.93207419597445 L 22.6953125 148.59859012967067 L 25.9375 147.87791325990824 L 29.1796875 146.79215847625488 L 32.42187499999997 145.3668538373719 L 35.6640625 143.63055495528147 L 38.90625 141.61443248266966 L 42.14843749999997 139.35183795052492 L 45.390625 136.87785337904106 L 48.63281249999997 134.22883019661435 L 51.875 131.44192304926779 L 55.1171875 128.55462406600304 L 58.359375 125.60430306518198 L 61.601562499999986 122.62775904456058 L 64.84375 119.66078809519406 L 68.0859375 116.7377726199291 L 71.32812499999999 113.89129642402793 L 74.57031249999999 111.15178988265511 L 77.8125 108.54720898204032 L 81.0546875 106.1027515831408 L 84.29687499999999 103.84061377400322 L 87.5390625 101.77978866556809 L 90.78125 99.9359094514558 L 94.02343749999999 98.32113800162986 L 97.26562499999999 96.9440996992054 L 100.5078125 95.80986466558846 L 103.75 94.91997495812807 L 106.99218749999999 94.27251677299799 L 110.234375 93.86223615041888 L 113.4765625 93.6806961656847 L 116.71875 93.71647310359879 L 119.9609375 93.9553886613285 L 123.203125 94.38077481042932 L 126.4453125 94.9737675774806 L 129.6875 95.71362567851895 L 132.9296875 96.57806966879487 L 136.171875 97.54363704927096 L 139.4140625 98.58604860704953 L 142.65625 99.68058116024568 L 145.8984375 100.802441829721 L 149.14062499999997 101.92713897089934 L 152.3828125 103.03084496826033 L 155.625 104.09074622203347 L 158.8671875 105.08537583942498 L 162.109375 105.99492477908835 L 165.3515625 106.80152748457407 L 168.59375 107.48951837666435 L 171.8359375 108.04565595177516 L 175.078125 108.45931164946276 L 178.3203125 108.72262110153763 L 181.5625 108.83059585301461 L 184.8046875 108.78119414544632 L 188.046875 108.5753498701672 L 191.2890625 108.21695932650549 L 194.53124999999997 107.71282595186194 L 197.7734375 107.0725637204233 L 201.015625 106.3084604289144 L 204.2578125 105.43530259502428 L 207.5 104.47016418096648 L 210.7421875 103.4321618152748 L 213.984375 102.34217961492001 L 217.2265625 101.22256710204115 L 220.46875 100.09681406032003 L 223.7109375 98.9892064810619 L 226.953125 97.92446800467256 L 230.1953125 96.92739146630028 L 233.4375 96.0224653023943 L 236.6796875 95.23349966591061 L 239.921875 94.5832571306046 L 243.1640625 94.09309283870087 L 246.40625 93.78260886130504 L 249.6484375 93.6693273979827 L 252.890625 93.76838724240999 L 256.1328125 94.09226768698633 L 259.375 94.6505437335171 L 262.6171875 95.4496761228498 L 265.859375 96.4928392975842 L 269.1015625 97.77978997309862 L 272.34375 99.30677851805264 L 275.5859375 101.06650484157238 L 278.828125 103.04811995620288 L 282.0703125 105.23727383942794 L 285.3125 107.6162096583609 L 288.5546875 110.16390385851228 L 291.796875 112.85625105486172 L 295.0390625 115.66629210833486 L 298.28125 118.56448322971006 L 301.5234375 121.5190034323195 L 304.765625 124.49609716084468 L 308.0078125 127.46044846195373 L 311.25 130.37558263906269 L 314.4921875 133.20429095332267 L 317.734375 135.90907360076247 L 320.9765625 138.45259591557783 L 324.21875 140.79815252551083 L 327.4609375 142.91013402016208 L 330.703125 144.7544905893326 L 333.9453125 146.29918704784046 L 337.1875 147.51464368673874 L 340.4296875 148.3741574787998 L 343.671875 148.85429831813371 L 346.9140625 148.93527518875374 L 350.15625 148.60126743295953 L 353.3984375 147.84071662504613 L 356.640625 146.64657494585333 L 359.8828125 145.0165063951991 L 363.125 142.95303766782112 L 366.3671875 140.46365604907353 L 369.609375 137.5608522537424 L 372.8515625 134.26210672897926 L 376.09375 130.58981856411788 L 379.3359375 126.57117678934003 L 382.578125 122.23797449482727 L 385.8203125 117.62636685505208 L 389.0625 112.77657479197845 L 392.3046875 107.73253664890377 L 395.546875 102.5415108662788 L 398.7890625 97.25363324501406 L 402.03125 91.92143294467567 L 405.2734375 86.599311887016 L 408.515625 81.34299271327852 L 411.7578125 76.20894087089434 L 415 71.253766776284" stroke-opacity="1" stroke-linecap="round" stroke-linejoin="round" stroke-miterlimit="10"/><text fill="rgb(255,0,255)" stroke="none" font-family="geogebra-sans-serif, sans-serif" font-size="12px" font-style="normal" font-weight="normal" text-decoration="normal" x="5" y="159" text-anchor="start" dominant-baseline="alphabetic" fill-opacity="1">y/3 = f(x)</text><text fill="rgb(255,0,255)" stroke="none" font-family="geogebra-sans-serif, sans-serif" font-size="12px" font-style="normal" font-weight="normal" text-decoration="normal" x="5" y="159" text-anchor="start" dominant-baseline="alphabetic" fill-opacity="1">y/3 = f(x)</text></g></g></svg>