<svg version="1.1" xmlns="http://www.w3.org/2000/svg" xmlns:xlink="http://www.w3.org/1999/xlink" width="542" height="249"><defs><clipPath id="VlqBaKeqElGK"><path fill="none" stroke="none" d=" M 0 0 L 542 0 L 542 249 L 0 249 L 0 0 Z"/></clipPath></defs><g transform="scale(1,1)" clip-path="url(#VlqBaKeqElGK)"><g><rect fill="rgb(255,255,255)" stroke="none" x="0" y="0" width="542" height="249" fill-opacity="1"/><path fill="none" stroke="rgb(0,0,0)" paint-order="fill stroke markers" d=" M 255.5 2.5 L 255.5 249.5" stroke-opacity="1" stroke-miterlimit="10"/><path fill="none" stroke="rgb(0,0,0)" paint-order="fill stroke markers" d=" M 255.5 1.5 L 252.5 4.5" stroke-opacity="1" stroke-miterlimit="10"/><path fill="none" stroke="rgb(0,0,0)" paint-order="fill stroke markers" d=" M 255.5 1.5 L 258.5 4.5" stroke-opacity="1" stroke-miterlimit="10"/><path fill="none" stroke="rgb(0,0,0)" paint-order="fill stroke markers" d=" M 0.5 174.5 L 540.5 174.5" stroke-opacity="1" stroke-miterlimit="10"/><path fill="none" stroke="rgb(0,0,0)" paint-order="fill stroke markers" d=" M 541.5 174.5 L 538.5 171.5" stroke-opacity="1" stroke-miterlimit="10"/><path fill="none" stroke="rgb(0,0,0)" paint-order="fill stroke markers" d=" M 541.5 174.5 L 538.5 177.5" stroke-opacity="1" stroke-miterlimit="10"/><path fill="none" stroke="rgb(0,0,0)" paint-order="fill stroke markers" d=" M 20.5 174.5 L 20.5 177.5" stroke-opacity="1" stroke-miterlimit="10"/><path fill="none" stroke="rgb(0,0,0)" paint-order="fill stroke markers" d=" M 98.5 174.5 L 98.5 177.5" stroke-opacity="1" stroke-miterlimit="10"/><path fill="none" stroke="rgb(0,0,0)" paint-order="fill stroke markers" d=" M 177.5 174.5 L 177.5 177.5" stroke-opacity="1" stroke-miterlimit="10"/><path fill="none" stroke="rgb(0,0,0)" paint-order="fill stroke markers" d=" M 255.5 174.5 L 255.5 177.5" stroke-opacity="1" stroke-miterlimit="10"/><path fill="none" stroke="rgb(0,0,0)" paint-order="fill stroke markers" d=" M 334.5 174.5 L 334.5 177.5" stroke-opacity="1" stroke-miterlimit="10"/><path fill="none" stroke="rgb(0,0,0)" paint-order="fill stroke markers" d=" M 412.5 174.5 L 412.5 177.5" stroke-opacity="1" stroke-miterlimit="10"/><path fill="none" stroke="rgb(0,0,0)" paint-order="fill stroke markers" d=" M 491.5 174.5 L 491.5 177.5" stroke-opacity="1" stroke-miterlimit="10"/><path fill="none" stroke="rgb(0,0,0)" paint-order="fill stroke markers" d=" M 252.5 224.5 L 255.5 224.5" stroke-opacity="1" stroke-miterlimit="10"/><path fill="none" stroke="rgb(0,0,0)" paint-order="fill stroke markers" d=" M 252.5 199.5 L 255.5 199.5" stroke-opacity="1" stroke-miterlimit="10"/><path fill="none" stroke="rgb(0,0,0)" paint-order="fill stroke markers" d=" M 252.5 149.5 L 255.5 149.5" stroke-opacity="1" stroke-miterlimit="10"/><path fill="none" stroke="rgb(0,0,0)" paint-order="fill stroke markers" d=" M 252.5 124.5 L 255.5 124.5" stroke-opacity="1" stroke-miterlimit="10"/><path fill="none" stroke="rgb(0,0,0)" paint-order="fill stroke markers" d=" M 252.5 99.5 L 255.5 99.5" stroke-opacity="1" stroke-miterlimit="10"/><path fill="none" stroke="rgb(0,0,0)" paint-order="fill stroke markers" d=" M 252.5 74.5 L 255.5 74.5" stroke-opacity="1" stroke-miterlimit="10"/><path fill="none" stroke="rgb(0,0,0)" paint-order="fill stroke markers" d=" M 252.5 49.5 L 255.5 49.5" stroke-opacity="1" stroke-miterlimit="10"/><path fill="none" stroke="rgb(0,0,0)" paint-order="fill stroke markers" d=" M 252.5 24.5 L 255.5 24.5" stroke-opacity="1" stroke-miterlimit="10"/><path fill="none" stroke="rgb(125,125,255)" paint-order="fill stroke markers" d=" M 122.796875 257.20312499999966 L 127.03124999999997 252.9687499999997 L 131.265625 248.7343749999997 L 135.5 244.4999999999997 L 139.73437499999997 240.26562499999972 L 143.96875 236.0312499999997 L 148.203125 231.79687499999972 L 152.4375 227.5624999999997 L 156.671875 223.32812499999972 L 160.90625 219.09374999999972 L 165.140625 214.85937499999972 L 169.375 210.62499999999972 L 173.60937499999997 206.39062499999972 L 177.84375 202.15624999999972 L 182.078125 197.92187499999972 L 186.31249999999997 193.68749999999974 L 190.546875 189.45312499999974 L 194.78124999999997 185.21874999999974 L 199.015625 180.98437499999974 L 203.25 176.74999999999974 L 207.484375 172.51562499999974 L 211.71874999999997 168.28124999999977 L 215.95312499999997 164.04687499999974 L 220.1875 159.81249999999974 L 224.42187499999997 155.57812499999977 L 228.65624999999997 151.34374999999977 L 232.890625 147.10937499999977 L 237.12499999999997 142.8749999999998 L 241.35937499999997 138.64062499999977 L 245.59375 134.40624999999977 L 249.828125 130.17187499999977 L 254.06249999999997 125.9374999999998 L 258.296875 121.70312499999979 L 262.53125 117.46874999999977 L 266.76562499999994 113.2343749999998 L 271 108.9999999999998 L 275.234375 104.76562499999979 L 279.46874999999994 100.53124999999982 L 283.703125 96.29687499999982 L 287.9375 92.0624999999998 L 292.17187499999994 87.82812499999983 L 296.40625 83.59374999999982 L 300.640625 79.35937499999982 L 304.875 75.1249999999998 L 309.109375 70.89062499999983 L 313.34375 66.65624999999983 L 317.578125 62.421874999999815 L 321.8125 58.187499999999844 L 326.046875 53.95312499999983 L 330.28125 49.71874999999983 L 334.51562499999994 45.48437499999986 L 338.75 41.24999999999986 L 342.984375 37.01562499999983 L 347.21874999999994 32.78124999999986 L 351.453125 28.546874999999858 L 355.6875 24.312499999999858 L 359.92187499999994 20.078124999999886 L 364.15625 15.843749999999886 L 368.390625 11.609374999999858 L 372.62499999999994 7.374999999999886 L 376.859375 3.1406249999998863 L 381.09375 -1.0937500000001137 L 385.328125 -5.328125000000142" stroke-opacity="1" stroke-linecap="round" stroke-linejoin="round" stroke-miterlimit="10"/><text fill="rgb(125,125,255)" stroke="none" font-family="geogebra-sans-serif, sans-serif" font-size="12px" font-style="normal" font-weight="normal" text-decoration="normal" x="99" y="239" text-anchor="start" dominant-baseline="alphabetic" fill-opacity="1">a &gt; 0</text><text fill="none" stroke="rgb(255,255,255)" font-family="geogebra-sans-serif, sans-serif" font-size="12px" font-style="normal" font-weight="normal" text-decoration="normal" x="99" y="239" text-anchor="start" dominant-baseline="alphabetic" stroke-opacity="1" stroke-linejoin="bevel" stroke-miterlimit="10" stroke-width="3">a &gt; 0</text><text fill="rgb(125,125,255)" stroke="none" font-family="geogebra-sans-serif, sans-serif" font-size="12px" font-style="normal" font-weight="normal" text-decoration="normal" x="99" y="239" text-anchor="start" dominant-baseline="alphabetic" fill-opacity="1">a &gt; 0</text><path fill="none" stroke="rgb(220,20,60)" paint-order="fill stroke markers" d=" M -5 124.24999999999952 L 547 124.24999999999952" stroke-opacity="1" stroke-linecap="round" stroke-linejoin="round" stroke-miterlimit="10"/><text fill="rgb(220,20,60)" stroke="none" font-family="geogebra-sans-serif, sans-serif" font-size="12px" font-style="normal" font-weight="normal" text-decoration="normal" x="5" y="140" text-anchor="start" dominant-baseline="alphabetic" fill-opacity="1">a = 0 (constant function)</text><text fill="none" stroke="rgb(255,255,255)" font-family="geogebra-sans-serif, sans-serif" font-size="12px" font-style="normal" font-weight="normal" text-decoration="normal" x="5" y="140" text-anchor="start" dominant-baseline="alphabetic" stroke-opacity="1" stroke-linejoin="bevel" stroke-miterlimit="10" stroke-width="3">a = 0 (constant function)</text><text fill="rgb(220,20,60)" stroke="none" font-family="geogebra-sans-serif, sans-serif" font-size="12px" font-style="normal" font-weight="normal" text-decoration="normal" x="5" y="140" text-anchor="start" dominant-baseline="alphabetic" fill-opacity="1">a = 0 (constant function)</text><path fill="none" stroke="rgb(0,100,0)" paint-order="fill stroke markers" d=" M -2.74999999999895 -5 L 515.2500000000014 254" stroke-opacity="1" stroke-linecap="round" stroke-linejoin="round" stroke-miterlimit="10"/><text fill="rgb(0,100,0)" stroke="none" font-family="geogebra-sans-serif, sans-serif" font-size="12px" font-style="normal" font-weight="normal" text-decoration="normal" x="22" y="37" text-anchor="start" dominant-baseline="alphabetic" fill-opacity="1">a &lt; 0</text><text fill="none" stroke="rgb(255,255,255)" font-family="geogebra-sans-serif, sans-serif" font-size="12px" font-style="normal" font-weight="normal" text-decoration="normal" x="22" y="37" text-anchor="start" dominant-baseline="alphabetic" stroke-opacity="1" stroke-linejoin="bevel" stroke-miterlimit="10" stroke-width="3">a &lt; 0</text><text fill="rgb(0,100,0)" stroke="none" font-family="geogebra-sans-serif, sans-serif" font-size="12px" font-style="normal" font-weight="normal" text-decoration="normal" x="22" y="37" text-anchor="start" dominant-baseline="alphabetic" fill-opacity="1">a &lt; 0</text></g></g></svg>