<svg version="1.1" xmlns="http://www.w3.org/2000/svg" xmlns:xlink="http://www.w3.org/1999/xlink" width="507" height="290"><defs><clipPath id="BwuzfBDelRzn"><path fill="none" stroke="none" d=" M 0 0 L 507 0 L 507 290 L 0 290 L 0 0 Z"/></clipPath></defs><g transform="scale(1,1)" clip-path="url(#BwuzfBDelRzn)"><g><rect fill="rgb(255,255,255)" stroke="none" x="0" y="0" width="507" height="290" fill-opacity="1"/><path fill="none" stroke="rgb(0,0,0)" paint-order="fill stroke markers" d=" M 238.5 2.5 L 238.5 290.5" stroke-opacity="1" stroke-miterlimit="10"/><path fill="none" stroke="rgb(0,0,0)" paint-order="fill stroke markers" d=" M 238.5 1.5 L 235.5 4.5" stroke-opacity="1" stroke-miterlimit="10"/><path fill="none" stroke="rgb(0,0,0)" paint-order="fill stroke markers" d=" M 238.5 1.5 L 241.5 4.5" stroke-opacity="1" stroke-miterlimit="10"/><path fill="none" stroke="rgb(0,0,0)" paint-order="fill stroke markers" d=" M 0.5 112.5 L 505.5 112.5" stroke-opacity="1" stroke-miterlimit="10"/><path fill="none" stroke="rgb(0,0,0)" paint-order="fill stroke markers" d=" M 506.5 112.5 L 503.5 109.5" stroke-opacity="1" stroke-miterlimit="10"/><path fill="none" stroke="rgb(0,0,0)" paint-order="fill stroke markers" d=" M 506.5 112.5 L 503.5 115.5" stroke-opacity="1" stroke-miterlimit="10"/><path fill="none" stroke="rgb(0,0,0)" paint-order="fill stroke markers" d=" M 38.5 112.5 L 38.5 115.5" stroke-opacity="1" stroke-miterlimit="10"/><path fill="none" stroke="rgb(0,0,0)" paint-order="fill stroke markers" d=" M 104.5 112.5 L 104.5 115.5" stroke-opacity="1" stroke-miterlimit="10"/><path fill="none" stroke="rgb(0,0,0)" paint-order="fill stroke markers" d=" M 171.5 112.5 L 171.5 115.5" stroke-opacity="1" stroke-miterlimit="10"/><path fill="none" stroke="rgb(0,0,0)" paint-order="fill stroke markers" d=" M 238.5 112.5 L 238.5 115.5" stroke-opacity="1" stroke-miterlimit="10"/><path fill="none" stroke="rgb(0,0,0)" paint-order="fill stroke markers" d=" M 304.5 112.5 L 304.5 115.5" stroke-opacity="1" stroke-miterlimit="10"/><path fill="none" stroke="rgb(0,0,0)" paint-order="fill stroke markers" d=" M 371.5 112.5 L 371.5 115.5" stroke-opacity="1" stroke-miterlimit="10"/><path fill="none" stroke="rgb(0,0,0)" paint-order="fill stroke markers" d=" M 438.5 112.5 L 438.5 115.5" stroke-opacity="1" stroke-miterlimit="10"/><path fill="none" stroke="rgb(0,0,0)" paint-order="fill stroke markers" d=" M 235.5 246.5 L 238.5 246.5" stroke-opacity="1" stroke-miterlimit="10"/><path fill="none" stroke="rgb(0,0,0)" paint-order="fill stroke markers" d=" M 235.5 179.5 L 238.5 179.5" stroke-opacity="1" stroke-miterlimit="10"/><path fill="none" stroke="rgb(0,0,0)" paint-order="fill stroke markers" d=" M 235.5 46.5 L 238.5 46.5" stroke-opacity="1" stroke-miterlimit="10"/><path fill="none" stroke="rgb(220,20,60)" paint-order="fill stroke markers" d=" M 133.68164062499997 298.6237500582919 L 134.671875 290.34590330194555 L 135.662109375 282.2832275519866 L 136.65234375 274.4331011400161 L 137.642578125 266.79290239763475 L 138.6328125 259.3600096564436 L 139.623046875 252.13180124804327 L 140.61328125 245.10565550403496 L 141.603515625 238.2789507560193 L 142.59375 231.6490653355972 L 143.583984375 225.21337757436953 L 144.57421875 218.9692658039373 L 145.564453125 212.9141083559013 L 146.55468749999997 207.04528356186256 L 147.54492187499997 201.36016975342156 L 148.53515625 195.85614526217944 L 149.525390625 190.530588419737 L 150.515625 185.38087755769524 L 152.49609375 175.5985071012169 L 154.4765625 166.48806054555146 L 156.45703125 158.02856454350587 L 158.4375 150.19904574788714 L 160.41796874999997 142.9785308115024 L 162.3984375 136.34604638715845 L 164.37890625 130.2806191276623 L 166.359375 124.76127568582106 L 170.3203125 115.2769468663311 L 174.28124999999997 107.7252731511446 L 178.2421875 101.93846776271744 L 182.203125 97.74874392350561 L 184.18359374999997 96.20035421687298 L 186.16406249999997 94.98831485596516 L 188.14453124999997 94.09165249358917 L 190.125 93.48939378255199 L 192.10546875 93.16056537566064 L 194.0859375 93.08419392572213 L 198.04687499999997 93.60492850793152 L 200.02734374999997 94.16008784569343 L 202.0078125 94.88381075163616 L 205.96875 96.75305387929203 L 209.92968749999997 99.0448711133551 L 213.89062499999997 101.59147567628135 L 217.8515625 104.22508079052677 L 221.81249999999997 106.77789967854731 L 225.77343749999997 109.08214556279898 L 229.734375 110.97003166573776 L 233.6953125 112.2737712098196 L 235.67578124999997 112.65415265430666 L 237.65624999999997 112.82557741750048 L 239.63671874999997 112.76707215220807 L 241.61718749999997 112.4576635112364 L 243.59765625 111.87637814739249 L 245.578125 111.00224271348333 L 247.55859374999997 109.81428386231593 L 249.53906249999997 108.29152824669725 L 253.49999999999997 104.15773333333414 L 257.4609375 98.43307119584995 L 261.42187499999994 90.94975505670072 L 265.3828125 81.53999813834236 L 267.36328124999994 76.06027101897735 L 269.34374999999994 70.03601366323096 L 271.32421874999994 63.446252723910284 L 273.30468749999994 56.27001485382231 L 275.28515625 48.48632670577406 L 277.265625 40.0742149325725 L 279.24609375 31.012706187024662 L 281.2265625 21.28082712193749 L 282.216796875 16.156944548568873 L 283.20703125 10.857604390118041 L 284.197265625 5.380184978185881 L 285.1875 -0.2779353556267381 L 286.177734375 -6.11937827971893" stroke-opacity="1" stroke-linecap="round" stroke-linejoin="round" stroke-miterlimit="10"/><text fill="rgb(220,20,60)" stroke="none" font-family="geogebra-sans-serif, sans-serif" font-size="12px" font-style="normal" font-weight="normal" text-decoration="normal" x="145" y="285" text-anchor="start" dominant-baseline="alphabetic" fill-opacity="1">y = f(x)</text><text fill="rgb(220,20,60)" stroke="none" font-family="geogebra-sans-serif, sans-serif" font-size="12px" font-style="normal" font-weight="normal" text-decoration="normal" x="145" y="285" text-anchor="start" dominant-baseline="alphabetic" fill-opacity="1">y = f(x)</text><path fill="none" stroke="rgb(127,0,255)" paint-order="fill stroke markers" d=" M 142.59375 -5.982398668931111 L 143.583984375 0.45328909229651515 L 144.57421875 6.697400862728756 L 145.564453125 12.752558310764769 L 146.55468749999997 18.621383104803513 L 147.54492187499997 24.3064969132445 L 148.53515625 29.810521404486636 L 149.525390625 35.13607824692906 L 150.515625 40.28578910897082 L 152.49609375 50.06815956544916 L 154.4765625 59.178606121114605 L 156.45703125 67.6381021231602 L 158.4375 75.46762091877892 L 160.41796874999997 82.68813585516367 L 162.3984375 89.32062027950761 L 164.37890625 95.38604753900375 L 166.359375 100.905390980845 L 170.3203125 110.38971980033496 L 174.28124999999997 117.94139351552145 L 178.2421875 123.72819890394862 L 182.203125 127.91792274316045 L 184.18359374999997 129.46631244979307 L 186.16406249999997 130.67835181070092 L 188.14453124999997 131.5750141730769 L 190.125 132.17727288411407 L 192.10546875 132.50610129100542 L 194.0859375 132.58247274094393 L 198.04687499999997 132.06173815873456 L 200.02734374999997 131.50657882097263 L 202.0078125 130.7828559150299 L 205.96875 128.91361278737403 L 209.92968749999997 126.62179555331096 L 213.89062499999997 124.07519099038471 L 217.8515625 121.44158587613929 L 221.81249999999997 118.88876698811875 L 225.77343749999997 116.58452110386708 L 229.734375 114.6966350009283 L 233.6953125 113.39289545684646 L 235.67578124999997 113.0125140123594 L 237.65624999999997 112.84108924916558 L 239.63671874999997 112.89959451445799 L 241.61718749999997 113.20900315542966 L 243.59765625 113.79028851927357 L 245.578125 114.66442395318273 L 247.55859374999997 115.85238280435013 L 249.53906249999997 117.3751384199688 L 253.49999999999997 121.50893333333192 L 257.4609375 127.23359547081611 L 261.42187499999994 134.71691160996534 L 265.3828125 144.1266685283237 L 267.36328124999994 149.60639564768871 L 269.34374999999994 155.6306530034351 L 271.32421874999994 162.22041394275578 L 273.30468749999994 169.39665181284374 L 275.28515625 177.180339960892 L 277.265625 185.59245173409357 L 279.24609375 194.6539604796414 L 281.2265625 204.38583954472858 L 282.216796875 209.5097221180972 L 283.20703125 214.80906227654802 L 284.197265625 220.2864816884802 L 285.1875 225.9446020222928 L 286.177734375 231.786044946385 L 287.16796875 237.81343212915587 L 288.158203125 244.0293852390046 L 289.1484375 250.43652594433027 L 290.138671875 257.03747591353203 L 291.12890625 263.83485681500895 L 292.11914062499994 270.83129031715987 L 293.10937499999994 278.0293980883846 L 294.09960937499994 285.43180179708185 L 295.08984374999994 293.0411231116509 L 296.08007812499994 300.8599837004907" stroke-opacity="1" stroke-linecap="round" stroke-linejoin="round" stroke-miterlimit="10"/><text fill="rgb(127,0,255)" stroke="none" font-family="geogebra-sans-serif, sans-serif" font-size="12px" font-style="normal" font-weight="normal" text-decoration="normal" x="153" y="15" text-anchor="start" dominant-baseline="alphabetic" fill-opacity="1">-y = f(x)</text><text fill="rgb(127,0,255)" stroke="none" font-family="geogebra-sans-serif, sans-serif" font-size="12px" font-style="normal" font-weight="normal" text-decoration="normal" x="153" y="15" text-anchor="start" dominant-baseline="alphabetic" fill-opacity="1">-y = f(x)</text><path fill="none" stroke="rgb(125,125,255)" paint-order="fill stroke markers" d=" M 190.125 -6.302831282557719 L 191.115234375 -0.45568180046416273 L 192.10546875 5.208064079900254 L 193.095703125 10.691028026934688 L 194.0859375 15.995831709038242 L 195.076171875 21.12509679461003 L 196.06640625 26.08144495204921 L 198.04687499999997 35.48587715612605 L 200.02734374999997 44.23010166846203 L 202.0078125 52.33509183624998 L 203.98828125 59.82182100668296 L 205.96875 66.71126252695396 L 207.94921875 73.02438974425594 L 209.92968749999997 78.78217600578186 L 213.89062499999997 88.71561905027794 L 217.8515625 96.67937843798609 L 221.81249999999997 102.84124094645031 L 225.77343749999997 107.3689933532147 L 227.75390624999997 109.07251163644194 L 229.734375 110.43042243582325 L 231.71484375 111.46369909855157 L 233.6953125 112.19331497181994 L 235.67578124999997 112.64024340282137 L 237.65624999999997 112.82545773874885 L 239.63671874999997 112.76993132679539 L 241.61718749999997 112.49463751415398 L 245.578125 111.36864107557935 L 249.53906249999997 109.61525520056898 L 253.49999999999997 107.4022666666669 L 257.4609375 104.89746225141711 L 261.42187499999994 102.26862873236368 L 265.3828125 99.68355288705058 L 269.34374999999994 97.31002149302185 L 273.30468749999994 95.31582132782151 L 277.265625 93.86873916899359 L 281.2265625 93.1365617940821 L 283.20703125 93.09099576857753 L 285.1875 93.28707598063107 L 287.16796875 93.74577577743572 L 289.1484375 94.48806850618452 L 291.12890625 95.53492751407043 L 293.10937499999994 96.90732614828646 L 297.07031249999994 100.71263568448093 L 301.03125 106.07178389231194 L 304.9921875 113.15255754932355 L 308.953125 122.12274343305971 L 310.93359375 127.36879932793208 L 312.9140625 133.15012832106453 L 314.89453125 139.48770375965017 L 316.875 146.402498990882 L 318.85546874999994 153.91548736195273 L 320.83593749999994 162.04764222005588 L 322.81640624999994 170.81993691238415 L 324.79687499999994 180.25334478613064 L 325.787109375 185.22452033703348 L 326.77734375 190.36883918848827 L 327.767578125 195.68892300889405 L 328.7578125 201.1873934666501 L 329.748046875 206.86687223015542 L 330.73828125 212.72998096780907 L 331.728515625 218.77934134801035 L 332.71875 225.01757503915826 L 333.708984375 231.44730370965203 L 334.69921875 238.0711490278906 L 335.689453125 244.8917326622733 L 336.6796875 251.91167628119928 L 337.669921875 259.1336015530674 L 338.66015625 266.56013014627695 L 339.650390625 274.19388372922714 L 340.640625 282.03748397031694 L 341.630859375 290.09355253794564 L 342.62109374999994 298.36471110051167" stroke-opacity="1" stroke-linecap="round" stroke-linejoin="round" stroke-miterlimit="10"/><text fill="rgb(125,125,255)" stroke="none" font-family="geogebra-sans-serif, sans-serif" font-size="12px" font-style="normal" font-weight="normal" text-decoration="normal" x="202" y="15" text-anchor="start" dominant-baseline="alphabetic" fill-opacity="1">y = f(-x)</text><text fill="rgb(125,125,255)" stroke="none" font-family="geogebra-sans-serif, sans-serif" font-size="12px" font-style="normal" font-weight="normal" text-decoration="normal" x="202" y="15" text-anchor="start" dominant-baseline="alphabetic" fill-opacity="1">y = f(-x)</text><path fill="none" stroke="rgb(255,0,255)" paint-order="fill stroke markers" d=" M 180.22265625 301.1049579130687 L 181.212890625 293.279580651732 L 182.203125 285.6638236761157 L 183.193359375 278.2550653178206 L 184.18359374999997 271.05068390844787 L 185.17382812499997 264.0480577795979 L 186.16406249999997 257.2445652628718 L 187.15429687499997 250.63758468987047 L 188.14453124999997 244.2244943921948 L 189.134765625 238.0026727014456 L 190.125 231.96949794922378 L 191.115234375 226.12234846713022 L 192.10546875 220.4586025867658 L 193.095703125 214.97563863973136 L 194.0859375 209.67083495762782 L 195.076171875 204.54156987205602 L 196.06640625 199.58522171461686 L 198.04687499999997 190.18078951054002 L 200.02734374999997 181.43656499820403 L 202.0078125 173.3315748304161 L 203.98828125 165.8448456599831 L 205.96875 158.9554041397121 L 207.94921875 152.64227692241013 L 209.92968749999997 146.88449066088418 L 213.89062499999997 136.95104761638814 L 217.8515625 128.98728822867997 L 221.81249999999997 122.82542572021575 L 225.77343749999997 118.29767331345136 L 227.75390624999997 116.59415503022412 L 229.734375 115.23624423084281 L 231.71484375 114.20296756811449 L 233.6953125 113.47335169484612 L 235.67578124999997 113.02642326384469 L 237.65624999999997 112.84120892791721 L 239.63671874999997 112.89673533987067 L 241.61718749999997 113.17202915251208 L 245.578125 114.29802559108671 L 249.53906249999997 116.05141146609708 L 253.49999999999997 118.26439999999916 L 257.4609375 120.76920441524895 L 261.42187499999994 123.39803793430238 L 265.3828125 125.98311377961548 L 269.34374999999994 128.3566451736442 L 273.30468749999994 130.35084533884455 L 277.265625 131.79792749767248 L 281.2265625 132.53010487258396 L 283.20703125 132.57567089808853 L 285.1875 132.379590686035 L 287.16796875 131.92089088923032 L 289.1484375 131.17859816048153 L 291.12890625 130.13173915259563 L 293.10937499999994 128.75934051837962 L 297.07031249999994 124.95403098218513 L 301.03125 119.59488277435412 L 304.9921875 112.51410911734251 L 308.953125 103.54392323360635 L 310.93359375 98.29786733873398 L 312.9140625 92.51653834560152 L 314.89453125 86.17896290701589 L 316.875 79.26416767578407 L 318.85546874999994 71.75117930471332 L 320.83593749999994 63.6190244466102 L 322.81640624999994 54.84672975428191 L 324.79687499999994 45.413321880535406 L 325.787109375 40.44214632963259 L 326.77734375 35.29782747817778 L 327.767578125 29.977743657771995 L 328.7578125 24.479273200015967 L 329.748046875 18.799794436510638 L 330.73828125 12.936685698856977 L 331.728515625 6.887325318655712 L 332.71875 0.6490916275077865 L 333.708984375 -5.780637042985958" stroke-opacity="1" stroke-linecap="round" stroke-linejoin="round" stroke-miterlimit="10"/><text fill="rgb(255,0,255)" stroke="none" font-family="geogebra-sans-serif, sans-serif" font-size="12px" font-style="normal" font-weight="normal" text-decoration="normal" x="192" y="285" text-anchor="start" dominant-baseline="alphabetic" fill-opacity="1">-y = f(-x)</text><text fill="rgb(255,0,255)" stroke="none" font-family="geogebra-sans-serif, sans-serif" font-size="12px" font-style="normal" font-weight="normal" text-decoration="normal" x="192" y="285" text-anchor="start" dominant-baseline="alphabetic" fill-opacity="1">-y = f(-x)</text></g></g></svg>