<svg version="1.1" xmlns="http://www.w3.org/2000/svg" xmlns:xlink="http://www.w3.org/1999/xlink" width="716" height="310"><defs><clipPath id="ovsyxaCTDgOs"><path fill="none" stroke="none" d=" M 0 0 L 716 0 L 716 310 L 0 310 L 0 0 Z"/></clipPath></defs><g transform="scale(1,1)" clip-path="url(#ovsyxaCTDgOs)"><g><rect fill="rgb(255,255,255)" stroke="none" x="0" y="0" width="716" height="310" fill-opacity="1"/><path fill="none" stroke="rgb(0,0,0)" paint-order="fill stroke markers" d=" M 255.5 2.5 L 255.5 310.5" stroke-opacity="1" stroke-miterlimit="10"/><path fill="none" stroke="rgb(0,0,0)" paint-order="fill stroke markers" d=" M 255.5 1.5 L 252.5 4.5" stroke-opacity="1" stroke-miterlimit="10"/><path fill="none" stroke="rgb(0,0,0)" paint-order="fill stroke markers" d=" M 255.5 1.5 L 258.5 4.5" stroke-opacity="1" stroke-miterlimit="10"/><path fill="none" stroke="rgb(0,0,0)" paint-order="fill stroke markers" d=" M 0.5 174.5 L 714.5 174.5" stroke-opacity="1" stroke-miterlimit="10"/><path fill="none" stroke="rgb(0,0,0)" paint-order="fill stroke markers" d=" M 715.5 174.5 L 712.5 171.5" stroke-opacity="1" stroke-miterlimit="10"/><path fill="none" stroke="rgb(0,0,0)" paint-order="fill stroke markers" d=" M 715.5 174.5 L 712.5 177.5" stroke-opacity="1" stroke-miterlimit="10"/><path fill="none" stroke="rgb(0,0,0)" paint-order="fill stroke markers" d=" M 5.5 174.5 L 5.5 177.5" stroke-opacity="1" stroke-miterlimit="10"/><path fill="none" stroke="rgb(0,0,0)" paint-order="fill stroke markers" d=" M 55.5 174.5 L 55.5 177.5" stroke-opacity="1" stroke-miterlimit="10"/><path fill="none" stroke="rgb(0,0,0)" paint-order="fill stroke markers" d=" M 105.5 174.5 L 105.5 177.5" stroke-opacity="1" stroke-miterlimit="10"/><path fill="none" stroke="rgb(0,0,0)" paint-order="fill stroke markers" d=" M 155.5 174.5 L 155.5 177.5" stroke-opacity="1" stroke-miterlimit="10"/><path fill="none" stroke="rgb(0,0,0)" paint-order="fill stroke markers" d=" M 205.5 174.5 L 205.5 177.5" stroke-opacity="1" stroke-miterlimit="10"/><path fill="none" stroke="rgb(0,0,0)" paint-order="fill stroke markers" d=" M 255.5 174.5 L 255.5 177.5" stroke-opacity="1" stroke-miterlimit="10"/><path fill="none" stroke="rgb(0,0,0)" paint-order="fill stroke markers" d=" M 305.5 174.5 L 305.5 177.5" stroke-opacity="1" stroke-miterlimit="10"/><path fill="none" stroke="rgb(0,0,0)" paint-order="fill stroke markers" d=" M 355.5 174.5 L 355.5 177.5" stroke-opacity="1" stroke-miterlimit="10"/><path fill="none" stroke="rgb(0,0,0)" paint-order="fill stroke markers" d=" M 405.5 174.5 L 405.5 177.5" stroke-opacity="1" stroke-miterlimit="10"/><path fill="none" stroke="rgb(0,0,0)" paint-order="fill stroke markers" d=" M 455.5 174.5 L 455.5 177.5" stroke-opacity="1" stroke-miterlimit="10"/><path fill="none" stroke="rgb(0,0,0)" paint-order="fill stroke markers" d=" M 505.5 174.5 L 505.5 177.5" stroke-opacity="1" stroke-miterlimit="10"/><path fill="none" stroke="rgb(0,0,0)" paint-order="fill stroke markers" d=" M 555.5 174.5 L 555.5 177.5" stroke-opacity="1" stroke-miterlimit="10"/><path fill="none" stroke="rgb(0,0,0)" paint-order="fill stroke markers" d=" M 605.5 174.5 L 605.5 177.5" stroke-opacity="1" stroke-miterlimit="10"/><path fill="none" stroke="rgb(0,0,0)" paint-order="fill stroke markers" d=" M 655.5 174.5 L 655.5 177.5" stroke-opacity="1" stroke-miterlimit="10"/><path fill="none" stroke="rgb(0,0,0)" paint-order="fill stroke markers" d=" M 705.5 174.5 L 705.5 177.5" stroke-opacity="1" stroke-miterlimit="10"/><path fill="none" stroke="rgb(0,0,0)" paint-order="fill stroke markers" d=" M 252.5 274.5 L 255.5 274.5" stroke-opacity="1" stroke-miterlimit="10"/><path fill="none" stroke="rgb(0,0,0)" paint-order="fill stroke markers" d=" M 252.5 74.5 L 255.5 74.5" stroke-opacity="1" stroke-miterlimit="10"/><path fill="none" stroke="rgb(127,0,255)" paint-order="fill stroke markers" d=" M 105.75000000000016 -35.75000000000051 C 180.7500000000001 234.24999999999932 255.7500000000001 234.24999999999932 330.75000000000006 -35.75000000000051" stroke-opacity="1" stroke-linecap="round" stroke-linejoin="round" stroke-miterlimit="10"/><text fill="rgb(127,0,255)" stroke="none" font-family="geogebra-sans-serif, sans-serif" font-size="12px" font-style="normal" font-weight="normal" text-decoration="normal" x="305" y="164" text-anchor="start" dominant-baseline="alphabetic" fill-opacity="1">y = 4x² + 6x + 3</text><text fill="rgb(127,0,255)" stroke="none" font-family="geogebra-sans-serif, sans-serif" font-size="12px" font-style="normal" font-weight="normal" text-decoration="normal" x="305" y="164" text-anchor="start" dominant-baseline="alphabetic" fill-opacity="1">y = 4x² + 6x + 3</text><path fill="none" stroke="rgb(127,0,255)" paint-order="fill stroke markers" d=" M 218.2500000000001 315 L 218.2500000000001 -5" stroke-opacity="1" stroke-linejoin="round" stroke-miterlimit="10" stroke-dasharray="1,3"/><path fill="rgb(0,0,255)" stroke="none" paint-order="stroke fill markers" d=" M 221.18055674624276 166.7499228421515 C 221.18055674624276 168.40677709164387 219.83741099573513 169.7499228421515 218.18055674624276 169.7499228421515 C 216.5237024967504 169.7499228421515 215.18055674624276 168.40677709164387 215.18055674624276 166.7499228421515 C 215.18055674624276 165.09306859265914 216.5237024967504 163.7499228421515 218.18055674624276 163.7499228421515 C 219.83741099573513 163.7499228421515 221.18055674624276 165.09306859265914 221.18055674624276 166.7499228421515 Z" fill-opacity="1"/><path fill="none" stroke="rgb(0,0,0)" paint-order="fill stroke markers" d=" M 221.18055674624276 166.7499228421515 C 221.18055674624276 168.40677709164387 219.83741099573513 169.7499228421515 218.18055674624276 169.7499228421515 C 216.5237024967504 169.7499228421515 215.18055674624276 168.40677709164387 215.18055674624276 166.7499228421515 C 215.18055674624276 165.09306859265914 216.5237024967504 163.7499228421515 218.18055674624276 163.7499228421515 C 219.83741099573513 163.7499228421515 221.18055674624276 165.09306859265914 221.18055674624276 166.7499228421515 Z" stroke-opacity="1" stroke-linecap="round" stroke-linejoin="round" stroke-miterlimit="10"/><text fill="rgb(0,0,255)" stroke="none" font-family="geogebra-sans-serif, sans-serif" font-size="12px" font-style="normal" font-weight="normal" text-decoration="normal" x="222" y="161" text-anchor="start" dominant-baseline="alphabetic" fill-opacity="1">(-0.75, 0.75)</text><text fill="rgb(0,0,255)" stroke="none" font-family="geogebra-sans-serif, sans-serif" font-size="12px" font-style="normal" font-weight="normal" text-decoration="normal" x="222" y="161" text-anchor="start" dominant-baseline="alphabetic" fill-opacity="1">(-0.75, 0.75)</text></g></g></svg>