<svg version="1.1" xmlns="http://www.w3.org/2000/svg" xmlns:xlink="http://www.w3.org/1999/xlink" width="487" height="353"><defs><clipPath id="LrTUkiFMsSDx"><path fill="none" stroke="none" d=" M 0 0 L 487 0 L 487 353 L 0 353 L 0 0 Z"/></clipPath></defs><g transform="scale(1,1)" clip-path="url(#LrTUkiFMsSDx)"><g><rect fill="rgb(255,255,255)" stroke="none" x="0" y="0" width="487" height="353" fill-opacity="1"/><path fill="none" stroke="rgb(0,0,0)" paint-order="fill stroke markers" d=" M 217.5 2.5 L 217.5 353.5" stroke-opacity="1" stroke-miterlimit="10"/><path fill="none" stroke="rgb(0,0,0)" paint-order="fill stroke markers" d=" M 217.5 1.5 L 213.5 5.5" stroke-opacity="1" stroke-miterlimit="10"/><path fill="none" stroke="rgb(0,0,0)" paint-order="fill stroke markers" d=" M 217.5 1.5 L 221.5 5.5" stroke-opacity="1" stroke-miterlimit="10"/><path fill="none" stroke="rgb(0,0,0)" paint-order="fill stroke markers" d=" M 0.5 249.5 L 485.5 249.5" stroke-opacity="1" stroke-miterlimit="10"/><path fill="none" stroke="rgb(0,0,0)" paint-order="fill stroke markers" d=" M 486.5 249.5 L 482.5 245.5" stroke-opacity="1" stroke-miterlimit="10"/><path fill="none" stroke="rgb(0,0,0)" paint-order="fill stroke markers" d=" M 486.5 249.5 L 482.5 253.5" stroke-opacity="1" stroke-miterlimit="10"/><text fill="rgb(0,0,0)" stroke="none" font-family="geogebra-sans-serif, sans-serif" font-size="12px" font-style="normal" font-weight="normal" text-decoration="normal" x="51" y="265" text-anchor="start" dominant-baseline="alphabetic" fill-opacity="1">–2</text><text fill="none" stroke="rgb(255,255,255)" font-family="geogebra-sans-serif, sans-serif" font-size="12px" font-style="normal" font-weight="normal" text-decoration="normal" x="51" y="265" text-anchor="start" dominant-baseline="alphabetic" stroke-opacity="1" stroke-linejoin="bevel" stroke-miterlimit="10" stroke-width="3">–2</text><text fill="rgb(0,0,0)" stroke="none" font-family="geogebra-sans-serif, sans-serif" font-size="12px" font-style="normal" font-weight="normal" text-decoration="normal" x="51" y="265" text-anchor="start" dominant-baseline="alphabetic" fill-opacity="1">–2</text><path fill="none" stroke="rgb(0,0,0)" paint-order="fill stroke markers" d=" M 56.5 249.5 L 56.5 252.5" stroke-opacity="1" stroke-miterlimit="10"/><text fill="rgb(0,0,0)" stroke="none" font-family="geogebra-sans-serif, sans-serif" font-size="12px" font-style="normal" font-weight="normal" text-decoration="normal" x="131" y="265" text-anchor="start" dominant-baseline="alphabetic" fill-opacity="1">–1</text><text fill="none" stroke="rgb(255,255,255)" font-family="geogebra-sans-serif, sans-serif" font-size="12px" font-style="normal" font-weight="normal" text-decoration="normal" x="131" y="265" text-anchor="start" dominant-baseline="alphabetic" stroke-opacity="1" stroke-linejoin="bevel" stroke-miterlimit="10" stroke-width="3">–1</text><text fill="rgb(0,0,0)" stroke="none" font-family="geogebra-sans-serif, sans-serif" font-size="12px" font-style="normal" font-weight="normal" text-decoration="normal" x="131" y="265" text-anchor="start" dominant-baseline="alphabetic" fill-opacity="1">–1</text><path fill="none" stroke="rgb(0,0,0)" paint-order="fill stroke markers" d=" M 136.5 249.5 L 136.5 252.5" stroke-opacity="1" stroke-miterlimit="10"/><path fill="none" stroke="rgb(0,0,0)" paint-order="fill stroke markers" d=" M 217.5 249.5 L 217.5 252.5" stroke-opacity="1" stroke-miterlimit="10"/><text fill="rgb(0,0,0)" stroke="none" font-family="geogebra-sans-serif, sans-serif" font-size="12px" font-style="normal" font-weight="normal" text-decoration="normal" x="295" y="265" text-anchor="start" dominant-baseline="alphabetic" fill-opacity="1">1</text><text fill="none" stroke="rgb(255,255,255)" font-family="geogebra-sans-serif, sans-serif" font-size="12px" font-style="normal" font-weight="normal" text-decoration="normal" x="295" y="265" text-anchor="start" dominant-baseline="alphabetic" stroke-opacity="1" stroke-linejoin="bevel" stroke-miterlimit="10" stroke-width="3">1</text><text fill="rgb(0,0,0)" stroke="none" font-family="geogebra-sans-serif, sans-serif" font-size="12px" font-style="normal" font-weight="normal" text-decoration="normal" x="295" y="265" text-anchor="start" dominant-baseline="alphabetic" fill-opacity="1">1</text><path fill="none" stroke="rgb(0,0,0)" paint-order="fill stroke markers" d=" M 297.5 249.5 L 297.5 252.5" stroke-opacity="1" stroke-miterlimit="10"/><text fill="rgb(0,0,0)" stroke="none" font-family="geogebra-sans-serif, sans-serif" font-size="12px" font-style="normal" font-weight="normal" text-decoration="normal" x="376" y="265" text-anchor="start" dominant-baseline="alphabetic" fill-opacity="1">2</text><text fill="none" stroke="rgb(255,255,255)" font-family="geogebra-sans-serif, sans-serif" font-size="12px" font-style="normal" font-weight="normal" text-decoration="normal" x="376" y="265" text-anchor="start" dominant-baseline="alphabetic" stroke-opacity="1" stroke-linejoin="bevel" stroke-miterlimit="10" stroke-width="3">2</text><text fill="rgb(0,0,0)" stroke="none" font-family="geogebra-sans-serif, sans-serif" font-size="12px" font-style="normal" font-weight="normal" text-decoration="normal" x="376" y="265" text-anchor="start" dominant-baseline="alphabetic" fill-opacity="1">2</text><path fill="none" stroke="rgb(0,0,0)" paint-order="fill stroke markers" d=" M 378.5 249.5 L 378.5 252.5" stroke-opacity="1" stroke-miterlimit="10"/><text fill="rgb(0,0,0)" stroke="none" font-family="geogebra-sans-serif, sans-serif" font-size="12px" font-style="normal" font-weight="normal" text-decoration="normal" x="457" y="265" text-anchor="start" dominant-baseline="alphabetic" fill-opacity="1">3</text><text fill="none" stroke="rgb(255,255,255)" font-family="geogebra-sans-serif, sans-serif" font-size="12px" font-style="normal" font-weight="normal" text-decoration="normal" x="457" y="265" text-anchor="start" dominant-baseline="alphabetic" stroke-opacity="1" stroke-linejoin="bevel" stroke-miterlimit="10" stroke-width="3">3</text><text fill="rgb(0,0,0)" stroke="none" font-family="geogebra-sans-serif, sans-serif" font-size="12px" font-style="normal" font-weight="normal" text-decoration="normal" x="457" y="265" text-anchor="start" dominant-baseline="alphabetic" fill-opacity="1">3</text><path fill="none" stroke="rgb(0,0,0)" paint-order="fill stroke markers" d=" M 459.5 249.5 L 459.5 252.5" stroke-opacity="1" stroke-miterlimit="10"/><path fill="none" stroke="rgb(0,0,0)" paint-order="fill stroke markers" d=" M 214.5 330.5 L 217.5 330.5" stroke-opacity="1" stroke-miterlimit="10"/><path fill="none" stroke="rgb(0,0,0)" paint-order="fill stroke markers" d=" M 214.5 169.5 L 217.5 169.5" stroke-opacity="1" stroke-miterlimit="10"/><path fill="none" stroke="rgb(0,0,0)" paint-order="fill stroke markers" d=" M 214.5 88.5 L 217.5 88.5" stroke-opacity="1" stroke-miterlimit="10"/><text fill="rgb(0,0,0)" stroke="none" font-family="geogebra-sans-serif, sans-serif" font-size="12px" font-style="normal" font-weight="normal" text-decoration="normal" x="197" y="335" text-anchor="start" dominant-baseline="alphabetic" fill-opacity="1">–1</text><text fill="none" stroke="rgb(255,255,255)" font-family="geogebra-sans-serif, sans-serif" font-size="12px" font-style="normal" font-weight="normal" text-decoration="normal" x="197" y="335" text-anchor="start" dominant-baseline="alphabetic" stroke-opacity="1" stroke-linejoin="bevel" stroke-miterlimit="10" stroke-width="3">–1</text><text fill="rgb(0,0,0)" stroke="none" font-family="geogebra-sans-serif, sans-serif" font-size="12px" font-style="normal" font-weight="normal" text-decoration="normal" x="197" y="335" text-anchor="start" dominant-baseline="alphabetic" fill-opacity="1">–1</text><text fill="rgb(0,0,0)" stroke="none" font-family="geogebra-sans-serif, sans-serif" font-size="12px" font-style="normal" font-weight="normal" text-decoration="normal" x="202" y="174" text-anchor="start" dominant-baseline="alphabetic" fill-opacity="1">1</text><text fill="none" stroke="rgb(255,255,255)" font-family="geogebra-sans-serif, sans-serif" font-size="12px" font-style="normal" font-weight="normal" text-decoration="normal" x="202" y="174" text-anchor="start" dominant-baseline="alphabetic" stroke-opacity="1" stroke-linejoin="bevel" stroke-miterlimit="10" stroke-width="3">1</text><text fill="rgb(0,0,0)" stroke="none" font-family="geogebra-sans-serif, sans-serif" font-size="12px" font-style="normal" font-weight="normal" text-decoration="normal" x="202" y="174" text-anchor="start" dominant-baseline="alphabetic" fill-opacity="1">1</text><text fill="rgb(0,0,0)" stroke="none" font-family="geogebra-sans-serif, sans-serif" font-size="12px" font-style="normal" font-weight="normal" text-decoration="normal" x="202" y="93" text-anchor="start" dominant-baseline="alphabetic" fill-opacity="1">2</text><text fill="none" stroke="rgb(255,255,255)" font-family="geogebra-sans-serif, sans-serif" font-size="12px" font-style="normal" font-weight="normal" text-decoration="normal" x="202" y="93" text-anchor="start" dominant-baseline="alphabetic" stroke-opacity="1" stroke-linejoin="bevel" stroke-miterlimit="10" stroke-width="3">2</text><text fill="rgb(0,0,0)" stroke="none" font-family="geogebra-sans-serif, sans-serif" font-size="12px" font-style="normal" font-weight="normal" text-decoration="normal" x="202" y="93" text-anchor="start" dominant-baseline="alphabetic" fill-opacity="1">2</text><text fill="rgb(0,0,0)" stroke="none" font-family="geogebra-sans-serif, sans-serif" font-size="12px" font-style="normal" font-weight="normal" text-decoration="normal" x="202" y="265" text-anchor="start" dominant-baseline="alphabetic" fill-opacity="1">0</text><text fill="none" stroke="rgb(255,255,255)" font-family="geogebra-sans-serif, sans-serif" font-size="12px" font-style="normal" font-weight="normal" text-decoration="normal" x="202" y="265" text-anchor="start" dominant-baseline="alphabetic" stroke-opacity="1" stroke-linejoin="bevel" stroke-miterlimit="10" stroke-width="3">0</text><text fill="rgb(0,0,0)" stroke="none" font-family="geogebra-sans-serif, sans-serif" font-size="12px" font-style="normal" font-weight="normal" text-decoration="normal" x="202" y="265" text-anchor="start" dominant-baseline="alphabetic" fill-opacity="1">0</text><path fill="none" stroke="rgb(0,100,0)" paint-order="fill stroke markers" d=" M 56.4213449999998 -72.43816500000051 C 163.78867833333317 357.0311683333335 271.15601166666653 357.0311683333335 378.5233449999999 -72.43816500000051" stroke-opacity="0.6980392156862745" stroke-linecap="round" stroke-linejoin="round" stroke-miterlimit="10" stroke-width="2.5"/><text fill="rgb(0,100,0)" stroke="none" font-family="geogebra-sans-serif, sans-serif" font-size="16px" font-style="normal" font-weight="normal" text-decoration="normal" x="128" y="122" text-anchor="start" dominant-baseline="alphabetic" fill-opacity="1">n=2 (y=x²)</text><text fill="none" stroke="rgb(255,255,255)" font-family="geogebra-sans-serif, sans-serif" font-size="16px" font-style="normal" font-weight="normal" text-decoration="normal" x="128" y="122" text-anchor="start" dominant-baseline="alphabetic" stroke-opacity="1" stroke-linejoin="bevel" stroke-miterlimit="10" stroke-width="3">n=2 (y=x²)</text><text fill="rgb(0,100,0)" stroke="none" font-family="geogebra-sans-serif, sans-serif" font-size="16px" font-style="normal" font-weight="normal" text-decoration="normal" x="128" y="122" text-anchor="start" dominant-baseline="alphabetic" fill-opacity="1">n=2 (y=x²)</text><path fill="none" stroke="rgb(255,85,0)" paint-order="fill stroke markers" d=" M 115.091796875 362.42019299509764 L 116.04296875 356.3940448040554 L 116.99414062499999 350.4752786358189 L 117.94531249999999 344.6630982184864 L 118.896484375 338.9567072801565 L 119.84765625 333.35530954892755 L 120.79882812499999 327.85810875289803 L 121.75 322.4643086201662 L 122.701171875 317.1731128788306 L 123.65234374999999 311.9837252569897 L 124.60351562499999 306.8953494827418 L 125.5546875 301.9071892841852 L 127.45703124999999 292.22833052654033 L 129.359375 282.9407788088422 L 131.26171875 274.0381639558782 L 133.1640625 265.51411579243563 L 135.06640625 257.3622641433019 L 136.96875 249.5762388332642 L 138.87109375 242.14966968711 L 140.7734375 235.0761865296266 L 142.67578125 228.3494191856012 L 144.578125 221.9629974798213 L 146.48046875 215.91055123707412 L 148.3828125 210.18571028214703 L 150.28515625 204.78210443982732 L 152.1875 199.6933635349024 L 155.9921875 190.43499583638604 L 159.796875 182.35964578489654 L 163.6015625 175.4163519787326 L 167.40625 169.5541530161928 L 171.2109375 164.7220874955757 L 175.015625 160.86919401518003 L 178.8203125 157.94451117330436 L 182.625 155.89707756824737 L 184.52734375 155.18640379149417 L 186.42968749999997 154.6759317983076 L 190.234375 154.23011246178376 L 192.13671875 154.2820247680211 L 194.03906249999997 154.5086581569744 L 197.84375 155.4606074821782 L 201.6484375 157.03499903569377 L 205.453125 159.18087141581975 L 209.2578125 161.8472632208547 L 213.06249999999997 164.98321304909734 L 216.8671875 168.53775949884624 L 220.67187499999997 172.4599411684 L 224.4765625 176.69879665605734 L 228.28124999999997 181.20336456011677 L 232.0859375 185.92268347887702 L 235.890625 190.80579201063662 L 239.6953125 195.8017287536943 L 243.5 200.85953230634857 L 247.30468749999997 205.9282412668981 L 251.109375 210.9568942336416 L 254.91406249999997 215.8945298048776 L 258.71875 220.69018657890476 L 262.5234375 225.29290315402164 L 266.328125 229.651718128527 L 270.1328125 233.71567010071934 L 273.9375 237.43379766889734 L 277.7421875 240.7551394313596 L 281.546875 243.62873398640477 L 285.3515625 246.00361993233147 L 289.15625 247.82883586743833 L 292.9609375 249.05342039002397 L 296.765625 249.62641209838702 L 298.66796875 249.6526352092034 L 300.5703125 249.4968495908261 L 304.375 248.61377146563981 L 306.27734375 247.87373860840552 L 308.1796875 246.92621632112684 L 311.984375 244.38322275558576 L 315.7890625 240.9338293673152 L 319.59375 236.5270747546138 L 323.3984375 231.11199751578022 L 327.203125 224.63763624911297 L 331.0078125 217.05302955291077 L 334.8125 208.30721602547237 L 338.6171875 198.3492342650961 L 340.51953125 192.89975485952465 L 342.421875 187.12812287008074 L 344.32421875 181.0279681215517 L 346.2265625 174.59292043872514 L 348.12890625 167.81660964638786 L 350.03125 160.69266556932746 L 351.93359375 153.21471803233123 L 353.8359375 145.37639686018656 L 355.73828125 137.1713318776807 L 357.640625 128.59315290960103 L 359.54296874999994 119.63548978073521 L 361.4453125 110.29197231586991 L 363.34765625 100.55623033979276 L 364.298828125 95.53928448029558 L 365.25 90.42189367729108 L 366.20117187499994 85.2032616588773 L 367.15234375 79.88259215315227 L 368.103515625 74.45908888821512 L 369.0546875 68.93195559216358 L 370.005859375 63.30039599309677 L 370.95703125 57.56361381911236 L 371.908203125 51.72081279830954 L 372.85937499999994 45.77119665878635 L 373.810546875 39.71396912864077 L 374.76171875 33.548333935972096 L 375.712890625 27.273494808877814 L 376.6640625 20.888655475457284 L 377.615234375 14.393019663807962 L 378.56640625 7.785791102029236 L 379.51757812499994 1.0661735182191023 L 380.46875 -5.766629359524643" stroke-opacity="0.6980392156862745" stroke-linecap="round" stroke-linejoin="round" stroke-miterlimit="10" stroke-width="2.5"/><text fill="rgb(255,85,0)" stroke="none" font-family="geogebra-sans-serif, sans-serif" font-size="16px" font-style="normal" font-weight="normal" text-decoration="normal" x="130" y="347" text-anchor="start" dominant-baseline="alphabetic" fill-opacity="1">n=3 (y=(x+1)(x-1)²)</text><text fill="none" stroke="rgb(255,255,255)" font-family="geogebra-sans-serif, sans-serif" font-size="16px" font-style="normal" font-weight="normal" text-decoration="normal" x="130" y="347" text-anchor="start" dominant-baseline="alphabetic" stroke-opacity="1" stroke-linejoin="bevel" stroke-miterlimit="10" stroke-width="3">n=3 (y=(x+1)(x-1)²)</text><text fill="rgb(255,85,0)" stroke="none" font-family="geogebra-sans-serif, sans-serif" font-size="16px" font-style="normal" font-weight="normal" text-decoration="normal" x="130" y="347" text-anchor="start" dominant-baseline="alphabetic" fill-opacity="1">n=3 (y=(x+1)(x-1)²)</text><path fill="none" stroke="rgb(153,51,0)" paint-order="fill stroke markers" d=" M 83.2275390625 -5.259133426178295 L 83.703125 0.34250635222065284 L 84.1787109375 5.862366582422993 L 84.654296875 11.30110747345148 L 85.1298828125 16.659386882926498 L 85.60546875 21.93786031706574 L 86.0810546875 27.137180930684593 L 86.556640625 32.25799952719578 L 87.0322265625 37.300964558610104 L 87.5078125 42.266722125535296 L 88.458984375 51.96918751133771 L 89.41015625 61.37051746141731 L 90.36132812499999 70.47579613014864 L 91.3125 79.2900700494672 L 92.263671875 87.81834812886879 L 93.21484374999999 96.06560165540941 L 94.16601562499999 104.03676429370623 L 95.1171875 111.73673208593638 L 96.068359375 119.17036345183774 L 97.01953124999999 126.34247918870855 L 97.970703125 133.25786247140786 L 98.921875 139.92125885235515 L 99.87304687499999 146.33737626152998 L 100.82421874999999 152.51088500647313 L 101.775390625 158.44641777228543 L 102.7265625 164.14856962162833 L 103.67773437499999 169.62189799472372 L 104.62890625 174.87092270935426 L 106.53124999999999 184.71395232215315 L 108.43359375 193.71306455349543 L 110.33593749999999 201.90306353781958 L 112.23828125 209.3181514505326 L 114.14062499999999 215.99192850800964 L 116.04296875 221.9573929675942 L 117.94531249999999 227.24694112759795 L 121.75 235.92486394695166 L 125.5546875 242.27282817193026 L 127.45703124999999 244.64767074259618 L 129.359375 246.5283336638857 L 131.26171875 247.94299952088846 L 133.1640625 248.91924893966245 L 134.115234375 249.25142183218404 L 135.06640625 249.48406058723393 L 136.96875 249.6638111715974 L 137.919921875 249.6173666881517 L 138.87109375 249.48427544171568 L 140.7734375 248.97062618751983 L 142.67578125 248.14743423990924 L 144.578125 247.03866847075156 L 148.3828125 244.05728116010678 L 152.1875 240.20617604989218 L 155.9921875 235.6554335899069 L 159.796875 230.56550288544247 L 163.6015625 225.08720169728292 L 167.40625 219.3617164417048 L 171.2109375 213.5206021904769 L 175.015625 207.68578267086068 L 178.8203125 201.96955026560988 L 182.625 196.47456601297088 L 186.42968749999997 191.2938596066823 L 190.234375 186.51082939597532 L 194.03906249999997 182.1992423855736 L 197.84375 178.4232342356931 L 201.6484375 175.23730926204246 L 205.453125 172.68634043582256 L 209.2578125 170.80556938372683 L 213.06249999999997 169.62060638794114 L 214.96484374999997 169.29442255358384 L 216.8671875 169.14743038614375 L 220.67187499999997 169.3923889715055 L 222.57421875 169.7835187864731 L 224.4765625 170.3521983926895 L 228.28124999999997 172.0139435538515 L 232.0859375 174.35507801463956 L 235.890625 177.34342399019417 L 239.6953125 180.93717235114843 L 243.5 185.08488262362775 L 247.30468749999997 189.72548298925 L 251.109375 194.78827028512563 L 254.91406249999997 200.19291000385732 L 258.71875 205.8494362935404 L 262.5234375 211.6582519577625 L 266.328125 217.51012845560382 L 270.1328125 223.2862059016369 L 273.9375 228.85799306592688 L 277.7421875 234.08736737403112 L 281.546875 238.82657490699964 L 285.3515625 242.91823040137487 L 289.15625 246.19531724919156 L 292.9609375 248.48118749797706 L 293.912109375 248.87615948768203 L 294.86328125 249.1945803418216 L 296.765625 249.58956185075107 L 297.716796875 249.65992505311553 L 298.66796875 249.64134221506367 L 300.5703125 249.3245296660258 L 301.521484375 249.0198015230985 L 302.47265625 248.61313047587223 L 304.375 247.4805489578059 L 306.27734375 245.8995874659981 L 308.1796875 243.84244639558844 L 311.984375 238.18541730436291 L 315.7890625 230.2750256646114 L 317.69140625 225.39892406217515 L 319.59375 219.86720411230817 L 321.49609375 213.64785249692804 L 323.3984375 206.70825393892034 L 325.30078125 199.01519120213916 L 327.203125 190.5348450914069 L 329.10546875 181.2327944525142 L 330.056640625 176.26270872614467 L 331.0078125 171.07401617221987 L 331.958984375 165.66224484548673 L 332.91015624999994 160.02288517825156 L 333.861328125 154.15138998038105 L 334.8125 148.04317443930387 L 335.763671875 141.69361612000725 L 336.71484375 135.09805496504092 L 337.666015625 128.2517932945131 L 338.6171875 121.1500958060947 L 339.56835937499994 113.78818957501542 L 340.51953125 106.1612640540655 L 341.470703125 98.26447107359743 L 342.421875 90.09292484152189 L 343.373046875 81.64170194331243 L 344.32421875 72.90584134200068 L 345.275390625 63.88034437818135 L 346.2265625 54.560174770007734 L 347.177734375 44.94025861319349 L 348.12890625 35.015484381015 L 348.60449218749994 29.937167847176568 L 349.080078125 24.780702924306325 L 349.5556640625 19.54544009025409 L 350.03125 14.230727471464888 L 350.5068359375 8.835910842982088 L 350.982421875 3.3603336284456873 L 351.4580078125 -2.1966630999042707 L 351.93359375 -7.835740621232702" stroke-opacity="0.6980392156862745" stroke-linecap="round" stroke-linejoin="round" stroke-miterlimit="10" stroke-width="2.5"/><text fill="rgb(153,51,0)" stroke="none" font-family="geogebra-sans-serif, sans-serif" font-size="16px" font-style="normal" font-weight="normal" text-decoration="normal" x="93" y="23" text-anchor="start" dominant-baseline="alphabetic" fill-opacity="1">n=4 (y=(x+1)²(x-1)²)</text><text fill="none" stroke="rgb(255,255,255)" font-family="geogebra-sans-serif, sans-serif" font-size="16px" font-style="normal" font-weight="normal" text-decoration="normal" x="93" y="23" text-anchor="start" dominant-baseline="alphabetic" stroke-opacity="1" stroke-linejoin="bevel" stroke-miterlimit="10" stroke-width="3">n=4 (y=(x+1)²(x-1)²)</text><text fill="rgb(153,51,0)" stroke="none" font-family="geogebra-sans-serif, sans-serif" font-size="16px" font-style="normal" font-weight="normal" text-decoration="normal" x="93" y="23" text-anchor="start" dominant-baseline="alphabetic" fill-opacity="1">n=4 (y=(x+1)²(x-1)²)</text><path fill="none" stroke="rgb(153,51,255)" paint-order="fill stroke markers" d=" M 109.13617999999997 358 L 472.1361799999995 -5" stroke-opacity="0.6980392156862745" stroke-linecap="round" stroke-linejoin="round" stroke-miterlimit="10" stroke-width="2.5"/><text fill="rgb(153,51,255)" stroke="none" font-family="geogebra-sans-serif, sans-serif" font-size="16px" font-style="normal" font-weight="normal" text-decoration="normal" x="193" y="295" text-anchor="start" dominant-baseline="alphabetic" fill-opacity="1">n=1 (y=x)</text><text fill="none" stroke="rgb(255,255,255)" font-family="geogebra-sans-serif, sans-serif" font-size="16px" font-style="normal" font-weight="normal" text-decoration="normal" x="193" y="295" text-anchor="start" dominant-baseline="alphabetic" stroke-opacity="1" stroke-linejoin="bevel" stroke-miterlimit="10" stroke-width="3">n=1 (y=x)</text><text fill="rgb(153,51,255)" stroke="none" font-family="geogebra-sans-serif, sans-serif" font-size="16px" font-style="normal" font-weight="normal" text-decoration="normal" x="193" y="295" text-anchor="start" dominant-baseline="alphabetic" fill-opacity="1">n=1 (y=x)</text><path fill="none" stroke="rgb(244,0,153)" paint-order="fill stroke markers" d=" M -5 169.13833499999987 L 492 169.13833499999987" stroke-opacity="0.6980392156862745" stroke-linecap="round" stroke-linejoin="round" stroke-miterlimit="10" stroke-width="2.5"/><text fill="rgb(244,0,153)" stroke="none" font-family="geogebra-sans-serif, sans-serif" font-size="16px" font-style="normal" font-weight="normal" text-decoration="normal" x="5" y="185" text-anchor="start" dominant-baseline="alphabetic" fill-opacity="1">n=0 (y=1)</text><text fill="none" stroke="rgb(255,255,255)" font-family="geogebra-sans-serif, sans-serif" font-size="16px" font-style="normal" font-weight="normal" text-decoration="normal" x="5" y="185" text-anchor="start" dominant-baseline="alphabetic" stroke-opacity="1" stroke-linejoin="bevel" stroke-miterlimit="10" stroke-width="3">n=0 (y=1)</text><text fill="rgb(244,0,153)" stroke="none" font-family="geogebra-sans-serif, sans-serif" font-size="16px" font-style="normal" font-weight="normal" text-decoration="normal" x="5" y="185" text-anchor="start" dominant-baseline="alphabetic" fill-opacity="1">n=0 (y=1)</text></g></g></svg>