<svg version="1.1" xmlns="http://www.w3.org/2000/svg" xmlns:xlink="http://www.w3.org/1999/xlink" width="282" height="220"><defs><clipPath id="WBJzQxShQfgZ"><path fill="none" stroke="none" d=" M 0 0 L 282 0 L 282 220 L 0 220 L 0 0 Z"/></clipPath></defs><g transform="scale(1,1)" clip-path="url(#WBJzQxShQfgZ)"><g><rect fill="rgb(255,255,255)" stroke="none" x="0" y="0" width="282" height="220" fill-opacity="1"/><path fill="rgb(127,0,255)" stroke="none" paint-order="stroke fill markers" fill-rule="evenodd" d=" M 21.989425659195817 196.6744995117233 L 246.98942565919526 196.6744995117233 L 246.98942565919526 27.924499511724093 Z" fill-opacity="0.09803921568627451"/><path fill="rgb(0,100,0)" stroke="none" paint-order="stroke fill markers" fill-rule="evenodd" d=" M 246.98942565919526 196.6744995117233 L 246.98942565919526 175.46129607612835 L 225.77622222359884 175.46129607612693 L 225.77622222360026 196.6744995117233 L 246.98942565919526 196.6744995117233" fill-opacity="0.09803921568627451"/><path fill="none" stroke="rgb(0,100,0)" paint-order="fill stroke markers" d=" M 246.98942565919526 196.6744995117233 L 246.98942565919526 175.46129607612835 L 225.77622222359884 175.46129607612693 L 225.77622222360026 196.6744995117233 L 246.98942565919526 196.6744995117233" stroke-opacity="1" stroke-linecap="round" stroke-linejoin="round" stroke-miterlimit="10"/><path fill="rgb(0,100,0)" stroke="none" paint-order="stroke fill markers" d=" M 51.98942565919582 196.6744995117233 C 51.98942565919582 190.1833931049881 49.88408950323692 183.86738463711146 45.98942565919582 178.67449951172333 L 21.989425659195817 196.6744995117233 Z" fill-opacity="0.09803921568627451"/><path fill="none" stroke="rgb(0,100,0)" paint-order="fill stroke markers" d=" M 51.98942565919582 196.6744995117233 C 51.98942565919582 190.1833931049881 49.88408950323692 183.86738463711146 45.98942565919582 178.67449951172333 L 21.989425659195817 196.6744995117233 Z" stroke-opacity="1" stroke-linecap="round" stroke-linejoin="round" stroke-miterlimit="10"/><text fill="rgb(0,100,0)" stroke="none" font-family="geogebra-sans-serif, sans-serif" font-size="12px" font-style="normal" font-weight="normal" text-decoration="normal" x="35" y="196" text-anchor="start" dominant-baseline="alphabetic" fill-opacity="1">θ</text><text fill="rgb(0,100,0)" stroke="none" font-family="geogebra-sans-serif, sans-serif" font-size="12px" font-style="normal" font-weight="normal" text-decoration="normal" x="35" y="196" text-anchor="start" dominant-baseline="alphabetic" fill-opacity="1">θ</text><path fill="none" stroke="rgb(127,0,255)" paint-order="fill stroke markers" d=" M 21.989425659195817 196.6744995117233 L 246.98942565919526 196.6744995117233" stroke-opacity="1" stroke-linecap="round" stroke-linejoin="round" stroke-miterlimit="10"/><text fill="rgb(127,0,255)" stroke="none" font-family="geogebra-sans-serif, sans-serif" font-size="12px" font-style="normal" font-weight="normal" text-decoration="normal" x="134" y="212" text-anchor="start" dominant-baseline="alphabetic" fill-opacity="1">x</text><text fill="rgb(127,0,255)" stroke="none" font-family="geogebra-sans-serif, sans-serif" font-size="12px" font-style="normal" font-weight="normal" text-decoration="normal" x="134" y="212" text-anchor="start" dominant-baseline="alphabetic" fill-opacity="1">x</text><path fill="none" stroke="rgb(127,0,255)" paint-order="fill stroke markers" d=" M 246.98942565919526 196.6744995117233 L 246.98942565919526 27.924499511724093" stroke-opacity="1" stroke-linecap="round" stroke-linejoin="round" stroke-miterlimit="10"/><text fill="rgb(127,0,255)" stroke="none" font-family="geogebra-sans-serif, sans-serif" font-size="12px" font-style="normal" font-weight="normal" text-decoration="normal" x="262" y="112" text-anchor="start" dominant-baseline="alphabetic" fill-opacity="1">y</text><text fill="rgb(127,0,255)" stroke="none" font-family="geogebra-sans-serif, sans-serif" font-size="12px" font-style="normal" font-weight="normal" text-decoration="normal" x="262" y="112" text-anchor="start" dominant-baseline="alphabetic" fill-opacity="1">y</text><path fill="none" stroke="rgb(127,0,255)" paint-order="fill stroke markers" d=" M 246.98942565919526 27.924499511724093 L 21.989425659195817 196.6744995117233" stroke-opacity="1" stroke-linecap="round" stroke-linejoin="round" stroke-miterlimit="10"/><text fill="rgb(127,0,255)" stroke="none" font-family="geogebra-sans-serif, sans-serif" font-size="12px" font-style="normal" font-weight="normal" text-decoration="normal" x="124" y="99" text-anchor="start" dominant-baseline="alphabetic" fill-opacity="1">r</text><text fill="rgb(127,0,255)" stroke="none" font-family="geogebra-sans-serif, sans-serif" font-size="12px" font-style="normal" font-weight="normal" text-decoration="normal" x="124" y="99" text-anchor="start" dominant-baseline="alphabetic" fill-opacity="1">r</text><path fill="rgb(0,0,255)" stroke="none" paint-order="stroke fill markers" d=" M 24.989425659195817 196.6744995117233 C 24.989425659195817 198.33135376121567 23.646279908688197 199.6744995117233 21.989425659195817 199.6744995117233 C 20.332571409703437 199.6744995117233 18.989425659195817 198.33135376121567 18.989425659195817 196.6744995117233 C 18.989425659195817 195.01764526223093 20.332571409703437 193.6744995117233 21.989425659195817 193.6744995117233 C 23.646279908688197 193.6744995117233 24.989425659195817 195.01764526223093 24.989425659195817 196.6744995117233 Z" fill-opacity="1"/><path fill="none" stroke="rgb(0,0,0)" paint-order="fill stroke markers" d=" M 24.989425659195817 196.6744995117233 C 24.989425659195817 198.33135376121567 23.646279908688197 199.6744995117233 21.989425659195817 199.6744995117233 C 20.332571409703437 199.6744995117233 18.989425659195817 198.33135376121567 18.989425659195817 196.6744995117233 C 18.989425659195817 195.01764526223093 20.332571409703437 193.6744995117233 21.989425659195817 193.6744995117233 C 23.646279908688197 193.6744995117233 24.989425659195817 195.01764526223093 24.989425659195817 196.6744995117233 Z" stroke-opacity="1" stroke-linecap="round" stroke-linejoin="round" stroke-miterlimit="10"/><text fill="rgb(0,0,255)" stroke="none" font-family="geogebra-sans-serif, sans-serif" font-size="12px" font-style="normal" font-weight="normal" text-decoration="normal" x="26" y="191" text-anchor="start" dominant-baseline="alphabetic" fill-opacity="1">A</text><text fill="rgb(0,0,255)" stroke="none" font-family="geogebra-sans-serif, sans-serif" font-size="12px" font-style="normal" font-weight="normal" text-decoration="normal" x="26" y="191" text-anchor="start" dominant-baseline="alphabetic" fill-opacity="1">A</text><path fill="rgb(0,0,255)" stroke="none" paint-order="stroke fill markers" d=" M 249.98942565919526 196.6744995117233 C 249.98942565919526 198.33135376121567 248.64627990868763 199.6744995117233 246.98942565919526 199.6744995117233 C 245.3325714097029 199.6744995117233 243.98942565919526 198.33135376121567 243.98942565919526 196.6744995117233 C 243.98942565919526 195.01764526223093 245.3325714097029 193.6744995117233 246.98942565919526 193.6744995117233 C 248.64627990868763 193.6744995117233 249.98942565919526 195.01764526223093 249.98942565919526 196.6744995117233 Z" fill-opacity="1"/><path fill="none" stroke="rgb(0,0,0)" paint-order="fill stroke markers" d=" M 249.98942565919526 196.6744995117233 C 249.98942565919526 198.33135376121567 248.64627990868763 199.6744995117233 246.98942565919526 199.6744995117233 C 245.3325714097029 199.6744995117233 243.98942565919526 198.33135376121567 243.98942565919526 196.6744995117233 C 243.98942565919526 195.01764526223093 245.3325714097029 193.6744995117233 246.98942565919526 193.6744995117233 C 248.64627990868763 193.6744995117233 249.98942565919526 195.01764526223093 249.98942565919526 196.6744995117233 Z" stroke-opacity="1" stroke-linecap="round" stroke-linejoin="round" stroke-miterlimit="10"/><text fill="rgb(0,0,255)" stroke="none" font-family="geogebra-sans-serif, sans-serif" font-size="12px" font-style="normal" font-weight="normal" text-decoration="normal" x="251" y="191" text-anchor="start" dominant-baseline="alphabetic" fill-opacity="1">B</text><text fill="rgb(0,0,255)" stroke="none" font-family="geogebra-sans-serif, sans-serif" font-size="12px" font-style="normal" font-weight="normal" text-decoration="normal" x="251" y="191" text-anchor="start" dominant-baseline="alphabetic" fill-opacity="1">B</text><path fill="rgb(0,0,255)" stroke="none" paint-order="stroke fill markers" d=" M 249.98942565919526 27.924499511724093 C 249.98942565919526 29.581353761216473 248.64627990868763 30.924499511724093 246.98942565919526 30.924499511724093 C 245.3325714097029 30.924499511724093 243.98942565919526 29.581353761216473 243.98942565919526 27.924499511724093 C 243.98942565919526 26.267645262231714 245.3325714097029 24.924499511724093 246.98942565919526 24.924499511724093 C 248.64627990868763 24.924499511724093 249.98942565919526 26.267645262231714 249.98942565919526 27.924499511724093 Z" fill-opacity="1"/><path fill="none" stroke="rgb(0,0,0)" paint-order="fill stroke markers" d=" M 249.98942565919526 27.924499511724093 C 249.98942565919526 29.581353761216473 248.64627990868763 30.924499511724093 246.98942565919526 30.924499511724093 C 245.3325714097029 30.924499511724093 243.98942565919526 29.581353761216473 243.98942565919526 27.924499511724093 C 243.98942565919526 26.267645262231714 245.3325714097029 24.924499511724093 246.98942565919526 24.924499511724093 C 248.64627990868763 24.924499511724093 249.98942565919526 26.267645262231714 249.98942565919526 27.924499511724093 Z" stroke-opacity="1" stroke-linecap="round" stroke-linejoin="round" stroke-miterlimit="10"/><text fill="rgb(0,0,255)" stroke="none" font-family="geogebra-sans-serif, sans-serif" font-size="12px" font-style="normal" font-weight="normal" text-decoration="normal" x="251" y="22" text-anchor="start" dominant-baseline="alphabetic" fill-opacity="1">C</text><text fill="rgb(0,0,255)" stroke="none" font-family="geogebra-sans-serif, sans-serif" font-size="12px" font-style="normal" font-weight="normal" text-decoration="normal" x="251" y="22" text-anchor="start" dominant-baseline="alphabetic" fill-opacity="1">C</text></g></g></svg>