<svg version="1.1" xmlns="http://www.w3.org/2000/svg" xmlns:xlink="http://www.w3.org/1999/xlink" width="480" height="315"><defs><clipPath id="IHnlaebAkySX"><path fill="none" stroke="none" d=" M 0 0 L 480 0 L 480 315 L 0 315 L 0 0 Z"/></clipPath></defs><g transform="scale(1,1)" clip-path="url(#IHnlaebAkySX)"><g><rect fill="rgb(255,255,255)" stroke="none" x="0" y="0" width="480" height="315" fill-opacity="1"/><path fill="rgb(127,0,255)" stroke="none" paint-order="stroke fill markers" fill-rule="evenodd" d=" M 323.4308083661142 31.182876773557325 L 21.202480830583454 232.6684284639112 L 424.1735842112911 232.6684284639112 Z" fill-opacity="0.058823529411764705"/><path fill="rgb(255,0,255)" stroke="none" paint-order="stroke fill markers" d=" M 425.74158880665766 207.48273450261695 C 425.74158880665766 319.626117038129 334.83141505644926 410.5362907883374 222.6880325209373 410.5362907883374 C 110.54464998542531 410.5362907883374 19.634476235216937 319.626117038129 19.634476235216937 207.48273450261695 C 19.634476235216937 95.33935196710493 110.54464998542531 4.429178216896531 222.6880325209373 4.429178216896531 C 334.83141505644926 4.429178216896531 425.74158880665766 95.33935196710493 425.74158880665766 207.48273450261695 Z" fill-opacity="0.0784313725490196"/><path fill="none" stroke="rgb(255,0,255)" paint-order="fill stroke markers" d=" M 425.74158880665766 207.48273450261695 C 425.74158880665766 319.626117038129 334.83141505644926 410.5362907883374 222.6880325209373 410.5362907883374 C 110.54464998542531 410.5362907883374 19.634476235216937 319.626117038129 19.634476235216937 207.48273450261695 C 19.634476235216937 95.33935196710493 110.54464998542531 4.429178216896531 222.6880325209373 4.429178216896531 C 334.83141505644926 4.429178216896531 425.74158880665766 95.33935196710493 425.74158880665766 207.48273450261695 Z" stroke-opacity="1" stroke-linecap="round" stroke-linejoin="round" stroke-miterlimit="10"/><path fill="rgb(0,100,0)" stroke="none" paint-order="stroke fill markers" fill-rule="evenodd" d=" M 424.1735842112911 232.6684284639112 L 424.1735842112911 214.9907589342487 L 406.49591468162737 214.9907589342475 L 406.49591468162856 232.6684284639112 L 424.1735842112911 232.6684284639112" fill-opacity="0.09803921568627451"/><path fill="none" stroke="rgb(0,100,0)" paint-order="fill stroke markers" d=" M 424.1735842112911 232.6684284639112 L 424.1735842112911 214.9907589342487 L 406.49591468162737 214.9907589342475 L 406.49591468162856 232.6684284639112 L 424.1735842112911 232.6684284639112" stroke-opacity="1" stroke-linecap="round" stroke-linejoin="round" stroke-miterlimit="10"/><path fill="rgb(0,100,0)" stroke="none" paint-order="stroke fill markers" d=" M 298.4692995359789 47.82388266031421 C 306.86174602730114 60.41255239729759 323.3148028807442 64.78189917873917 336.84721623111295 58.01569250355482 L 323.4308083661142 31.182876773557325 Z" fill-opacity="0.09803921568627451"/><path fill="none" stroke="rgb(0,100,0)" paint-order="fill stroke markers" d=" M 298.4692995359789 47.82388266031421 C 306.86174602730114 60.41255239729759 323.3148028807442 64.78189917873917 336.84721623111295 58.01569250355482 L 323.4308083661142 31.182876773557325 Z" stroke-opacity="1" stroke-linecap="round" stroke-linejoin="round" stroke-miterlimit="10"/><path fill="rgb(0,100,0)" stroke="none" paint-order="stroke fill markers" d=" M 399.3666372934494 185.39790890605295 C 400.93047736445993 197.90862947413706 411.56550248168685 207.29704054132273 424.1735842112911 207.29704054132273 L 424.1735842112911 182.29704054132273 Z" fill-opacity="0.09803921568627451"/><path fill="none" stroke="rgb(0,100,0)" paint-order="fill stroke markers" d=" M 399.3666372934494 185.39790890605295 C 400.93047736445993 197.90862947413706 411.56550248168685 207.29704054132273 424.1735842112911 207.29704054132273 L 424.1735842112911 182.29704054132273 Z" stroke-opacity="1" stroke-linecap="round" stroke-linejoin="round" stroke-miterlimit="10"/><path fill="none" stroke="rgb(127,0,255)" paint-order="fill stroke markers" d=" M 323.4308083661142 31.182876773557325 L 21.202480830583454 232.6684284639112" stroke-opacity="1" stroke-linecap="round" stroke-linejoin="round" stroke-miterlimit="10"/><path fill="none" stroke="rgb(127,0,255)" paint-order="fill stroke markers" d=" M 21.202480830583454 232.6684284639112 L 424.1735842112911 232.6684284639112" stroke-opacity="1" stroke-linecap="round" stroke-linejoin="round" stroke-miterlimit="10"/><path fill="none" stroke="rgb(127,0,255)" paint-order="fill stroke markers" d=" M 424.1735842112911 232.6684284639112 L 323.4308083661142 31.182876773557325" stroke-opacity="1" stroke-linecap="round" stroke-linejoin="round" stroke-miterlimit="10"/><path fill="none" stroke="rgb(0,100,0)" paint-order="fill stroke markers" d=" M 222.6880325209373 207.48273450261695 L 323.4308083661142 31.182876773557325" stroke-opacity="1" stroke-linecap="round" stroke-linejoin="round" stroke-miterlimit="10"/><path fill="none" stroke="rgb(0,100,0)" paint-order="fill stroke markers" d=" M 222.6880325209373 207.48273450261695 L 424.1735842112911 232.6684284639112" stroke-opacity="1" stroke-linecap="round" stroke-linejoin="round" stroke-miterlimit="10"/><path fill="none" stroke="rgb(0,100,0)" paint-order="fill stroke markers" d=" M 21.202480830583454 232.6684284639112 L 480.00000000000006 175.3187385677341" stroke-opacity="1" stroke-linecap="round" stroke-linejoin="round" stroke-miterlimit="10"/><path fill="none" stroke="rgb(220,20,60)" paint-order="fill stroke markers" d=" M 424.1735842112911 232.6684284639112 L 424.1735842112911 182.29704054132273" stroke-opacity="1" stroke-linecap="round" stroke-linejoin="round" stroke-miterlimit="10"/><path fill="rgb(0,0,255)" stroke="none" paint-order="stroke fill markers" d=" M 326.4308083661142 31.182876773557325 C 326.4308083661142 32.83973102304971 325.0876626156066 34.182876773557325 323.4308083661142 34.182876773557325 C 321.77395411662184 34.182876773557325 320.4308083661142 32.83973102304971 320.4308083661142 31.182876773557325 C 320.4308083661142 29.526022524064945 321.77395411662184 28.182876773557325 323.4308083661142 28.182876773557325 C 325.0876626156066 28.182876773557325 326.4308083661142 29.526022524064945 326.4308083661142 31.182876773557325 Z" fill-opacity="1"/><path fill="none" stroke="rgb(0,0,0)" paint-order="fill stroke markers" d=" M 326.4308083661142 31.182876773557325 C 326.4308083661142 32.83973102304971 325.0876626156066 34.182876773557325 323.4308083661142 34.182876773557325 C 321.77395411662184 34.182876773557325 320.4308083661142 32.83973102304971 320.4308083661142 31.182876773557325 C 320.4308083661142 29.526022524064945 321.77395411662184 28.182876773557325 323.4308083661142 28.182876773557325 C 325.0876626156066 28.182876773557325 326.4308083661142 29.526022524064945 326.4308083661142 31.182876773557325 Z" stroke-opacity="1" stroke-linecap="round" stroke-linejoin="round" stroke-miterlimit="10"/><text fill="rgb(0,0,255)" stroke="none" font-family="geogebra-sans-serif, sans-serif" font-size="12px" font-style="normal" font-weight="normal" text-decoration="normal" x="327" y="25" text-anchor="start" dominant-baseline="alphabetic" fill-opacity="1">A</text><text fill="rgb(0,0,255)" stroke="none" font-family="geogebra-sans-serif, sans-serif" font-size="12px" font-style="normal" font-weight="normal" text-decoration="normal" x="327" y="25" text-anchor="start" dominant-baseline="alphabetic" fill-opacity="1">A</text><path fill="rgb(0,0,255)" stroke="none" paint-order="stroke fill markers" d=" M 24.202480830583454 232.6684284639112 C 24.202480830583454 234.32528271340357 22.859335080075834 235.6684284639112 21.202480830583454 235.6684284639112 C 19.545626581091074 235.6684284639112 18.202480830583454 234.32528271340357 18.202480830583454 232.6684284639112 C 18.202480830583454 231.01157421441883 19.545626581091074 229.6684284639112 21.202480830583454 229.6684284639112 C 22.859335080075834 229.6684284639112 24.202480830583454 231.01157421441883 24.202480830583454 232.6684284639112 Z" fill-opacity="1"/><path fill="none" stroke="rgb(0,0,0)" paint-order="fill stroke markers" d=" M 24.202480830583454 232.6684284639112 C 24.202480830583454 234.32528271340357 22.859335080075834 235.6684284639112 21.202480830583454 235.6684284639112 C 19.545626581091074 235.6684284639112 18.202480830583454 234.32528271340357 18.202480830583454 232.6684284639112 C 18.202480830583454 231.01157421441883 19.545626581091074 229.6684284639112 21.202480830583454 229.6684284639112 C 22.859335080075834 229.6684284639112 24.202480830583454 231.01157421441883 24.202480830583454 232.6684284639112 Z" stroke-opacity="1" stroke-linecap="round" stroke-linejoin="round" stroke-miterlimit="10"/><text fill="rgb(0,0,255)" stroke="none" font-family="geogebra-sans-serif, sans-serif" font-size="12px" font-style="normal" font-weight="normal" text-decoration="normal" x="25" y="227" text-anchor="start" dominant-baseline="alphabetic" fill-opacity="1">B</text><text fill="rgb(0,0,255)" stroke="none" font-family="geogebra-sans-serif, sans-serif" font-size="12px" font-style="normal" font-weight="normal" text-decoration="normal" x="25" y="227" text-anchor="start" dominant-baseline="alphabetic" fill-opacity="1">B</text><path fill="rgb(0,0,255)" stroke="none" paint-order="stroke fill markers" d=" M 427.1735842112911 232.6684284639112 C 427.1735842112911 234.32528271340357 425.83043846078345 235.6684284639112 424.1735842112911 235.6684284639112 C 422.5167299617987 235.6684284639112 421.1735842112911 234.32528271340357 421.1735842112911 232.6684284639112 C 421.1735842112911 231.01157421441883 422.5167299617987 229.6684284639112 424.1735842112911 229.6684284639112 C 425.83043846078345 229.6684284639112 427.1735842112911 231.01157421441883 427.1735842112911 232.6684284639112 Z" fill-opacity="1"/><path fill="none" stroke="rgb(0,0,0)" paint-order="fill stroke markers" d=" M 427.1735842112911 232.6684284639112 C 427.1735842112911 234.32528271340357 425.83043846078345 235.6684284639112 424.1735842112911 235.6684284639112 C 422.5167299617987 235.6684284639112 421.1735842112911 234.32528271340357 421.1735842112911 232.6684284639112 C 421.1735842112911 231.01157421441883 422.5167299617987 229.6684284639112 424.1735842112911 229.6684284639112 C 425.83043846078345 229.6684284639112 427.1735842112911 231.01157421441883 427.1735842112911 232.6684284639112 Z" stroke-opacity="1" stroke-linecap="round" stroke-linejoin="round" stroke-miterlimit="10"/><text fill="rgb(0,0,255)" stroke="none" font-family="geogebra-sans-serif, sans-serif" font-size="12px" font-style="normal" font-weight="normal" text-decoration="normal" x="428" y="227" text-anchor="start" dominant-baseline="alphabetic" fill-opacity="1">C</text><text fill="rgb(0,0,255)" stroke="none" font-family="geogebra-sans-serif, sans-serif" font-size="12px" font-style="normal" font-weight="normal" text-decoration="normal" x="428" y="227" text-anchor="start" dominant-baseline="alphabetic" fill-opacity="1">C</text><path fill="rgb(0,0,255)" stroke="none" paint-order="stroke fill markers" d=" M 225.6880325209373 207.48273450261695 C 225.6880325209373 209.13958875210932 224.34488677042967 210.48273450261695 222.6880325209373 210.48273450261695 C 221.03117827144493 210.48273450261695 219.6880325209373 209.13958875210932 219.6880325209373 207.48273450261695 C 219.6880325209373 205.82588025312458 221.03117827144493 204.48273450261695 222.6880325209373 204.48273450261695 C 224.34488677042967 204.48273450261695 225.6880325209373 205.82588025312458 225.6880325209373 207.48273450261695 Z" fill-opacity="1"/><path fill="none" stroke="rgb(0,0,0)" paint-order="fill stroke markers" d=" M 225.6880325209373 207.48273450261695 C 225.6880325209373 209.13958875210932 224.34488677042967 210.48273450261695 222.6880325209373 210.48273450261695 C 221.03117827144493 210.48273450261695 219.6880325209373 209.13958875210932 219.6880325209373 207.48273450261695 C 219.6880325209373 205.82588025312458 221.03117827144493 204.48273450261695 222.6880325209373 204.48273450261695 C 224.34488677042967 204.48273450261695 225.6880325209373 205.82588025312458 225.6880325209373 207.48273450261695 Z" stroke-opacity="1" stroke-linecap="round" stroke-linejoin="round" stroke-miterlimit="10"/><text fill="rgb(0,0,255)" stroke="none" font-family="geogebra-sans-serif, sans-serif" font-size="12px" font-style="normal" font-weight="normal" text-decoration="normal" x="227" y="201" text-anchor="start" dominant-baseline="alphabetic" fill-opacity="1">O</text><text fill="rgb(0,0,255)" stroke="none" font-family="geogebra-sans-serif, sans-serif" font-size="12px" font-style="normal" font-weight="normal" text-decoration="normal" x="227" y="201" text-anchor="start" dominant-baseline="alphabetic" fill-opacity="1">O</text><path fill="rgb(0,0,255)" stroke="none" paint-order="stroke fill markers" d=" M 427.1735842112911 182.29704054132273 C 427.1735842112911 183.9538947908151 425.83043846078345 185.29704054132273 424.1735842112911 185.29704054132273 C 422.5167299617987 185.29704054132273 421.1735842112911 183.9538947908151 421.1735842112911 182.29704054132273 C 421.1735842112911 180.64018629183036 422.5167299617987 179.29704054132273 424.1735842112911 179.29704054132273 C 425.83043846078345 179.29704054132273 427.1735842112911 180.64018629183036 427.1735842112911 182.29704054132273 Z" fill-opacity="1"/><path fill="none" stroke="rgb(0,0,0)" paint-order="fill stroke markers" d=" M 427.1735842112911 182.29704054132273 C 427.1735842112911 183.9538947908151 425.83043846078345 185.29704054132273 424.1735842112911 185.29704054132273 C 422.5167299617987 185.29704054132273 421.1735842112911 183.9538947908151 421.1735842112911 182.29704054132273 C 421.1735842112911 180.64018629183036 422.5167299617987 179.29704054132273 424.1735842112911 179.29704054132273 C 425.83043846078345 179.29704054132273 427.1735842112911 180.64018629183036 427.1735842112911 182.29704054132273 Z" stroke-opacity="1" stroke-linecap="round" stroke-linejoin="round" stroke-miterlimit="10"/><text fill="rgb(0,0,255)" stroke="none" font-family="geogebra-sans-serif, sans-serif" font-size="12px" font-style="normal" font-weight="normal" text-decoration="normal" x="428" y="176" text-anchor="start" dominant-baseline="alphabetic" fill-opacity="1">D</text><text fill="rgb(0,0,255)" stroke="none" font-family="geogebra-sans-serif, sans-serif" font-size="12px" font-style="normal" font-weight="normal" text-decoration="normal" x="428" y="176" text-anchor="start" dominant-baseline="alphabetic" fill-opacity="1">D</text></g></g></svg>