<svg version="1.1" xmlns="http://www.w3.org/2000/svg" xmlns:xlink="http://www.w3.org/1999/xlink" width="916" height="418"><defs><clipPath id="RmPKbZaQTTcB"><path fill="none" stroke="none" d=" M 0 0 L 916 0 L 916 418 L 0 418 L 0 0 Z"/></clipPath></defs><g transform="scale(1,1)" clip-path="url(#RmPKbZaQTTcB)"><g><rect fill="rgb(255,255,255)" stroke="none" x="0" y="0" width="916" height="418" fill-opacity="1"/><path fill="none" stroke="rgb(0,0,0)" paint-order="fill stroke markers" d=" M 255.5 2.5 L 255.5 418.5" stroke-opacity="1" stroke-miterlimit="10"/><path fill="none" stroke="rgb(0,0,0)" paint-order="fill stroke markers" d=" M 255.5 1.5 L 252.5 4.5" stroke-opacity="1" stroke-miterlimit="10"/><path fill="none" stroke="rgb(0,0,0)" paint-order="fill stroke markers" d=" M 255.5 1.5 L 258.5 4.5" stroke-opacity="1" stroke-miterlimit="10"/><path fill="none" stroke="rgb(0,0,0)" paint-order="fill stroke markers" d=" M 0.5 174.5 L 914.5 174.5" stroke-opacity="1" stroke-miterlimit="10"/><path fill="none" stroke="rgb(0,0,0)" paint-order="fill stroke markers" d=" M 915.5 174.5 L 912.5 171.5" stroke-opacity="1" stroke-miterlimit="10"/><path fill="none" stroke="rgb(0,0,0)" paint-order="fill stroke markers" d=" M 915.5 174.5 L 912.5 177.5" stroke-opacity="1" stroke-miterlimit="10"/><text fill="rgb(0,0,0)" stroke="none" font-family="geogebra-sans-serif, sans-serif" font-size="10px" font-style="normal" font-weight="normal" text-decoration="normal" x="3" y="188" text-anchor="start" dominant-baseline="alphabetic" fill-opacity="1">–3π / 2</text><text fill="rgb(0,0,0)" stroke="none" font-family="geogebra-sans-serif, sans-serif" font-size="10px" font-style="normal" font-weight="normal" text-decoration="normal" x="3" y="188" text-anchor="start" dominant-baseline="alphabetic" fill-opacity="1">–3π / 2</text><path fill="none" stroke="rgb(0,0,0)" paint-order="fill stroke markers" d=" M 20.5 174.5 L 20.5 177.5" stroke-opacity="1" stroke-miterlimit="10"/><text fill="rgb(0,0,0)" stroke="none" font-family="geogebra-sans-serif, sans-serif" font-size="10px" font-style="normal" font-weight="normal" text-decoration="normal" x="94" y="188" text-anchor="start" dominant-baseline="alphabetic" fill-opacity="1">–π</text><text fill="rgb(0,0,0)" stroke="none" font-family="geogebra-sans-serif, sans-serif" font-size="10px" font-style="normal" font-weight="normal" text-decoration="normal" x="94" y="188" text-anchor="start" dominant-baseline="alphabetic" fill-opacity="1">–π</text><path fill="none" stroke="rgb(0,0,0)" paint-order="fill stroke markers" d=" M 98.5 174.5 L 98.5 177.5" stroke-opacity="1" stroke-miterlimit="10"/><text fill="rgb(0,0,0)" stroke="none" font-family="geogebra-sans-serif, sans-serif" font-size="10px" font-style="normal" font-weight="normal" text-decoration="normal" x="163" y="188" text-anchor="start" dominant-baseline="alphabetic" fill-opacity="1">–π / 2</text><text fill="rgb(0,0,0)" stroke="none" font-family="geogebra-sans-serif, sans-serif" font-size="10px" font-style="normal" font-weight="normal" text-decoration="normal" x="163" y="188" text-anchor="start" dominant-baseline="alphabetic" fill-opacity="1">–π / 2</text><path fill="none" stroke="rgb(0,0,0)" paint-order="fill stroke markers" d=" M 177.5 174.5 L 177.5 177.5" stroke-opacity="1" stroke-miterlimit="10"/><path fill="none" stroke="rgb(0,0,0)" paint-order="fill stroke markers" d=" M 255.5 174.5 L 255.5 177.5" stroke-opacity="1" stroke-miterlimit="10"/><text fill="rgb(0,0,0)" stroke="none" font-family="geogebra-sans-serif, sans-serif" font-size="10px" font-style="normal" font-weight="normal" text-decoration="normal" x="322" y="188" text-anchor="start" dominant-baseline="alphabetic" fill-opacity="1">π / 2</text><text fill="rgb(0,0,0)" stroke="none" font-family="geogebra-sans-serif, sans-serif" font-size="10px" font-style="normal" font-weight="normal" text-decoration="normal" x="322" y="188" text-anchor="start" dominant-baseline="alphabetic" fill-opacity="1">π / 2</text><path fill="none" stroke="rgb(0,0,0)" paint-order="fill stroke markers" d=" M 334.5 174.5 L 334.5 177.5" stroke-opacity="1" stroke-miterlimit="10"/><text fill="rgb(0,0,0)" stroke="none" font-family="geogebra-sans-serif, sans-serif" font-size="10px" font-style="normal" font-weight="normal" text-decoration="normal" x="411" y="188" text-anchor="start" dominant-baseline="alphabetic" fill-opacity="1">π</text><text fill="rgb(0,0,0)" stroke="none" font-family="geogebra-sans-serif, sans-serif" font-size="10px" font-style="normal" font-weight="normal" text-decoration="normal" x="411" y="188" text-anchor="start" dominant-baseline="alphabetic" fill-opacity="1">π</text><path fill="none" stroke="rgb(0,0,0)" paint-order="fill stroke markers" d=" M 412.5 174.5 L 412.5 177.5" stroke-opacity="1" stroke-miterlimit="10"/><text fill="rgb(0,0,0)" stroke="none" font-family="geogebra-sans-serif, sans-serif" font-size="10px" font-style="normal" font-weight="normal" text-decoration="normal" x="477" y="188" text-anchor="start" dominant-baseline="alphabetic" fill-opacity="1">3π / 2</text><text fill="rgb(0,0,0)" stroke="none" font-family="geogebra-sans-serif, sans-serif" font-size="10px" font-style="normal" font-weight="normal" text-decoration="normal" x="477" y="188" text-anchor="start" dominant-baseline="alphabetic" fill-opacity="1">3π / 2</text><path fill="none" stroke="rgb(0,0,0)" paint-order="fill stroke markers" d=" M 491.5 174.5 L 491.5 177.5" stroke-opacity="1" stroke-miterlimit="10"/><text fill="rgb(0,0,0)" stroke="none" font-family="geogebra-sans-serif, sans-serif" font-size="10px" font-style="normal" font-weight="normal" text-decoration="normal" x="565" y="188" text-anchor="start" dominant-baseline="alphabetic" fill-opacity="1">2π</text><text fill="rgb(0,0,0)" stroke="none" font-family="geogebra-sans-serif, sans-serif" font-size="10px" font-style="normal" font-weight="normal" text-decoration="normal" x="565" y="188" text-anchor="start" dominant-baseline="alphabetic" fill-opacity="1">2π</text><path fill="none" stroke="rgb(0,0,0)" paint-order="fill stroke markers" d=" M 569.5 174.5 L 569.5 177.5" stroke-opacity="1" stroke-miterlimit="10"/><text fill="rgb(0,0,0)" stroke="none" font-family="geogebra-sans-serif, sans-serif" font-size="10px" font-style="normal" font-weight="normal" text-decoration="normal" x="634" y="188" text-anchor="start" dominant-baseline="alphabetic" fill-opacity="1">5π / 2</text><text fill="rgb(0,0,0)" stroke="none" font-family="geogebra-sans-serif, sans-serif" font-size="10px" font-style="normal" font-weight="normal" text-decoration="normal" x="634" y="188" text-anchor="start" dominant-baseline="alphabetic" fill-opacity="1">5π / 2</text><path fill="none" stroke="rgb(0,0,0)" paint-order="fill stroke markers" d=" M 648.5 174.5 L 648.5 177.5" stroke-opacity="1" stroke-miterlimit="10"/><text fill="rgb(0,0,0)" stroke="none" font-family="geogebra-sans-serif, sans-serif" font-size="10px" font-style="normal" font-weight="normal" text-decoration="normal" x="722" y="188" text-anchor="start" dominant-baseline="alphabetic" fill-opacity="1">3π</text><text fill="rgb(0,0,0)" stroke="none" font-family="geogebra-sans-serif, sans-serif" font-size="10px" font-style="normal" font-weight="normal" text-decoration="normal" x="722" y="188" text-anchor="start" dominant-baseline="alphabetic" fill-opacity="1">3π</text><path fill="none" stroke="rgb(0,0,0)" paint-order="fill stroke markers" d=" M 726.5 174.5 L 726.5 177.5" stroke-opacity="1" stroke-miterlimit="10"/><text fill="rgb(0,0,0)" stroke="none" font-family="geogebra-sans-serif, sans-serif" font-size="10px" font-style="normal" font-weight="normal" text-decoration="normal" x="791" y="188" text-anchor="start" dominant-baseline="alphabetic" fill-opacity="1">7π / 2</text><text fill="rgb(0,0,0)" stroke="none" font-family="geogebra-sans-serif, sans-serif" font-size="10px" font-style="normal" font-weight="normal" text-decoration="normal" x="791" y="188" text-anchor="start" dominant-baseline="alphabetic" fill-opacity="1">7π / 2</text><path fill="none" stroke="rgb(0,0,0)" paint-order="fill stroke markers" d=" M 805.5 174.5 L 805.5 177.5" stroke-opacity="1" stroke-miterlimit="10"/><text fill="rgb(0,0,0)" stroke="none" font-family="geogebra-sans-serif, sans-serif" font-size="10px" font-style="normal" font-weight="normal" text-decoration="normal" x="880" y="188" text-anchor="start" dominant-baseline="alphabetic" fill-opacity="1">4π</text><text fill="rgb(0,0,0)" stroke="none" font-family="geogebra-sans-serif, sans-serif" font-size="10px" font-style="normal" font-weight="normal" text-decoration="normal" x="880" y="188" text-anchor="start" dominant-baseline="alphabetic" fill-opacity="1">4π</text><path fill="none" stroke="rgb(0,0,0)" paint-order="fill stroke markers" d=" M 884.5 174.5 L 884.5 177.5" stroke-opacity="1" stroke-miterlimit="10"/><path fill="none" stroke="rgb(0,0,0)" paint-order="fill stroke markers" d=" M 252.5 374.5 L 255.5 374.5" stroke-opacity="1" stroke-miterlimit="10"/><path fill="none" stroke="rgb(0,0,0)" paint-order="fill stroke markers" d=" M 252.5 324.5 L 255.5 324.5" stroke-opacity="1" stroke-miterlimit="10"/><path fill="none" stroke="rgb(0,0,0)" paint-order="fill stroke markers" d=" M 252.5 274.5 L 255.5 274.5" stroke-opacity="1" stroke-miterlimit="10"/><path fill="none" stroke="rgb(0,0,0)" paint-order="fill stroke markers" d=" M 252.5 224.5 L 255.5 224.5" stroke-opacity="1" stroke-miterlimit="10"/><path fill="none" stroke="rgb(0,0,0)" paint-order="fill stroke markers" d=" M 252.5 124.5 L 255.5 124.5" stroke-opacity="1" stroke-miterlimit="10"/><path fill="none" stroke="rgb(0,0,0)" paint-order="fill stroke markers" d=" M 252.5 74.5 L 255.5 74.5" stroke-opacity="1" stroke-miterlimit="10"/><path fill="none" stroke="rgb(0,0,0)" paint-order="fill stroke markers" d=" M 252.5 24.5 L 255.5 24.5" stroke-opacity="1" stroke-miterlimit="10"/><text fill="rgb(0,0,0)" stroke="none" font-family="geogebra-sans-serif, sans-serif" font-size="10px" font-style="normal" font-weight="normal" text-decoration="normal" x="238" y="378" text-anchor="start" dominant-baseline="alphabetic" fill-opacity="1">–2</text><text fill="rgb(0,0,0)" stroke="none" font-family="geogebra-sans-serif, sans-serif" font-size="10px" font-style="normal" font-weight="normal" text-decoration="normal" x="238" y="378" text-anchor="start" dominant-baseline="alphabetic" fill-opacity="1">–2</text><text fill="rgb(0,0,0)" stroke="none" font-family="geogebra-sans-serif, sans-serif" font-size="10px" font-style="normal" font-weight="normal" text-decoration="normal" x="229" y="328" text-anchor="start" dominant-baseline="alphabetic" fill-opacity="1">–1.5</text><text fill="rgb(0,0,0)" stroke="none" font-family="geogebra-sans-serif, sans-serif" font-size="10px" font-style="normal" font-weight="normal" text-decoration="normal" x="229" y="328" text-anchor="start" dominant-baseline="alphabetic" fill-opacity="1">–1.5</text><text fill="rgb(0,0,0)" stroke="none" font-family="geogebra-sans-serif, sans-serif" font-size="10px" font-style="normal" font-weight="normal" text-decoration="normal" x="238" y="278" text-anchor="start" dominant-baseline="alphabetic" fill-opacity="1">–1</text><text fill="rgb(0,0,0)" stroke="none" font-family="geogebra-sans-serif, sans-serif" font-size="10px" font-style="normal" font-weight="normal" text-decoration="normal" x="238" y="278" text-anchor="start" dominant-baseline="alphabetic" fill-opacity="1">–1</text><text fill="rgb(0,0,0)" stroke="none" font-family="geogebra-sans-serif, sans-serif" font-size="10px" font-style="normal" font-weight="normal" text-decoration="normal" x="229" y="228" text-anchor="start" dominant-baseline="alphabetic" fill-opacity="1">–0.5</text><text fill="rgb(0,0,0)" stroke="none" font-family="geogebra-sans-serif, sans-serif" font-size="10px" font-style="normal" font-weight="normal" text-decoration="normal" x="229" y="228" text-anchor="start" dominant-baseline="alphabetic" fill-opacity="1">–0.5</text><text fill="rgb(0,0,0)" stroke="none" font-family="geogebra-sans-serif, sans-serif" font-size="10px" font-style="normal" font-weight="normal" text-decoration="normal" x="234" y="128" text-anchor="start" dominant-baseline="alphabetic" fill-opacity="1">0.5</text><text fill="rgb(0,0,0)" stroke="none" font-family="geogebra-sans-serif, sans-serif" font-size="10px" font-style="normal" font-weight="normal" text-decoration="normal" x="234" y="128" text-anchor="start" dominant-baseline="alphabetic" fill-opacity="1">0.5</text><text fill="rgb(0,0,0)" stroke="none" font-family="geogebra-sans-serif, sans-serif" font-size="10px" font-style="normal" font-weight="normal" text-decoration="normal" x="243" y="78" text-anchor="start" dominant-baseline="alphabetic" fill-opacity="1">1</text><text fill="rgb(0,0,0)" stroke="none" font-family="geogebra-sans-serif, sans-serif" font-size="10px" font-style="normal" font-weight="normal" text-decoration="normal" x="243" y="78" text-anchor="start" dominant-baseline="alphabetic" fill-opacity="1">1</text><text fill="rgb(0,0,0)" stroke="none" font-family="geogebra-sans-serif, sans-serif" font-size="10px" font-style="normal" font-weight="normal" text-decoration="normal" x="234" y="28" text-anchor="start" dominant-baseline="alphabetic" fill-opacity="1">1.5</text><text fill="rgb(0,0,0)" stroke="none" font-family="geogebra-sans-serif, sans-serif" font-size="10px" font-style="normal" font-weight="normal" text-decoration="normal" x="234" y="28" text-anchor="start" dominant-baseline="alphabetic" fill-opacity="1">1.5</text><text fill="rgb(0,0,0)" stroke="none" font-family="geogebra-sans-serif, sans-serif" font-size="10px" font-style="normal" font-weight="normal" text-decoration="normal" x="243" y="188" text-anchor="start" dominant-baseline="alphabetic" fill-opacity="1">0</text><text fill="rgb(0,0,0)" stroke="none" font-family="geogebra-sans-serif, sans-serif" font-size="10px" font-style="normal" font-weight="normal" text-decoration="normal" x="243" y="188" text-anchor="start" dominant-baseline="alphabetic" fill-opacity="1">0</text><path fill="none" stroke="rgb(127,0,255)" paint-order="fill stroke markers" d=" M 0 82.24589234017581 L 3.578125 79.67979419171303 L 7.156250000000028 77.59780151587815 L 10.734375 76.01057204614793 L 14.3125 74.92623082006503 L 17.89062500000003 74.35032858712034 L 21.46875 74.28581339443171 L 25.046875 74.73301549567239 L 28.62499999999997 75.68964566050042 L 32.203125 77.15080689314303 L 35.78125 79.10901950014846 L 39.35937499999997 81.55425937898337 L 42.93750000000003 84.47400933147622 L 46.515625 87.85332313943246 L 50.09375 91.67490207441882 L 53.67187500000003 95.91918345006182 L 57.25 100.56444076356107 L 60.828125 105.58689491379259 L 64.40625 110.96083592667564 L 67.984375 116.65875456468993 L 71.5625 122.65148314683405 L 75.140625 128.9083448581663 L 78.71875 135.3973107846111 L 82.296875 142.08516386917003 L 85.875 148.93766895024345 L 89.453125 155.91974801163576 L 93.03125 162.99565974713897 L 96.609375 170.129182520502 L 100.18750000000003 177.2837997842119 L 103.765625 184.4228870079283 L 107.34375 191.50989915968233 L 110.921875 198.50855778012283 L 114.5 205.38303669217586 L 118.078125 212.09814539546818 L 121.65625 218.61950920671796 L 125.234375 224.91374522395273 L 128.8125 230.94863321379222 L 132.390625 236.69328054702402 L 135.96875 242.11828033816488 L 139.546875 247.1958619794906 L 143.125 251.90003329895 L 146.703125 256.2067136142557 L 150.28125 260.0938570020465 L 153.859375 263.5415651511065 L 157.4375 266.53218922194435 L 161.015625 269.05042019131224 L 164.59375 271.0833672191915 L 168.171875 272.62062363708264 L 171.75 273.65432021980683 L 175.328125 274.1791654681179 L 178.90625 274.19247269592046 L 182.484375 273.6941737834324 L 186.0625 272.6868195258908 L 189.640625 271.17556657601506 L 193.21875 269.1681510470694 L 196.796875 266.67484891165105 L 200.37500000000003 263.70842339892243 L 203.953125 260.28405965956176 L 207.53125 256.41928703288164 L 211.10937499999997 252.13388931403256 L 214.6875 247.44980348063174 L 218.265625 242.39100739723852 L 221.84375 236.98339707251586 L 225.421875 231.25465409740102 L 229 225.2341039428691 L 232.578125 218.95256584266423 L 236.15625000000003 212.44219502945012 L 239.734375 205.7363181319741 L 243.3125 198.8692625758464 L 246.89062500000003 191.8761808612349 L 250.46875 184.79287061699807 L 254.046875 177.65559135239937 L 257.625 170.50087884445367 L 261.203125 163.36535811105705 L 264.78125 156.2855559272925 L 268.359375 149.29771384464 L 271.9375 142.43760267024905 L 275.515625 135.74033935595452 L 279.09375 129.24020723438065 L 282.671875 122.97048052234821 L 286.25 116.96325398995157 L 289.828125 111.2492786672301 L 293.40625 105.85780442945413 L 296.984375 100.81643026683152 L 300.5625 96.15096300510426 L 304.140625 91.88528520024717 L 307.71875 88.04123288351511 L 311.296875 84.63848378266266 L 314.875 81.69445659153344 L 318.453125 79.2242218036578 L 322.03125 77.24042456630237 L 325.609375 75.75321994988263 L 329.1875 74.77022096409407 L 332.765625 74.29645958686827 L 336.34375 74.33436100564637 L 339.921875 74.88373120282957 L 343.5 75.94175794895634 L 347.078125 77.50302519852262 L 350.65625 79.55954081475247 L 354.234375 82.10077748139598 L 357.8125 85.11372659212675 L 361.390625 88.58296484167879 L 364.96875 92.49073317784205 L 368.546875 96.81702771016151 L 372.125 101.53970210997697 L 375.703125 106.6345809776174 L 379.28125 112.0755835964223 L 382.859375 117.83485744009305 L 386.4375 123.88292074994837 L 390.015625 130.1888134522305 L 393.59375 136.72025564291593 L 397.171875 143.44381282874508 L 400.75 150.3250670786013 L 404.328125 157.32879320911485 L 407.90625 164.4191391025964 L 411.48437499999994 171.55980923424985 L 415.0625 178.71425046919106 L 418.640625 185.84583917817181 L 422.21875 192.9180687141667 L 425.796875 199.8947362901271 L 429.375 206.74012830127253 L 432.953125 213.41920314325654 L 436.53125 219.8977705903582 L 440.109375 226.1426668154594 L 443.6875 232.12192415588305 L 447.265625 237.804934756058 L 450.84375 243.16260724932124 L 454.421875 248.16751567680566 L 458 252.7940398810948 L 461.578125 257.0184966559672 L 465.15625 260.8192609808774 L 468.734375 264.1768767195706 L 472.3125 267.0741562161652 L 475.890625 269.4962682788703 L 479.46875 271.4308141009493 L 483.046875 272.8678907302883 L 486.625 273.8001417626698 L 490.203125 274.222794999252 L 493.78125 274.133686875484 L 497.359375 273.5332735364064 L 500.9375 272.4246285016421 L 504.515625 270.8134269320299 L 508.09375 268.7079165784413 L 511.671875 266.11887556149173 L 515.25 263.0595571982748 L 518.828125 259.54562215854855 L 522.40625 255.59505829767056 L 525.984375 251.22808857665348 L 529.5625 246.4670675407016 L 533.140625 241.33636688615542 L 536.71875 235.86225070162578 L 540.296875 230.07274102196024 L 543.875 223.9974743832731 L 547.453125 217.66755011333194 L 551.03125 211.1153711339045 L 554.609375 204.3744780900014 L 558.1875 197.4793776551048 L 561.765625 190.46536589129144 L 565.34375 183.36834756847207 L 568.921875 176.22465236764998 L 572.5 169.07084890905722 L 576.078125 161.9435575571609 L 579.65625 154.87926296078874 L 583.234375 147.91412728798403 L 586.8125 141.08380511164316 L 590.390625 134.42326089353432 L 593.96875 127.96659000099942 L 597.546875 121.74684417255733 L 601.125 115.79586232584793 L 604.703125 110.14410757401401 L 608.28125 104.82051128483617 L 611.859375 99.85232498088051 L 615.4375 95.26498083878447 L 619.015625 91.08196150178699 L 622.59375 87.32467987193104 L 626.171875 84.01236949728448 L 629.75 81.16198611528822 L 633.328125 78.78812085623032 L 636.90625 76.902925551159 L 640.484375 75.51605052658428 L 644.0625 74.63459520439595 L 647.640625 74.26307175987913 L 651.21875 74.40338202386053 L 654.796875 75.05480774722486 L 658.375 76.21401427763634 L 661.953125 77.87506762964485 L 665.53125 80.02946486079452 L 669.109375 82.66617759823893 L 672.6875 85.77170849305044 L 676.265625 89.33016031323375 L 679.84375 93.32331732175503 L 683.421875 97.73073852301337 L 687 102.52986230042517 L 690.578125 107.69612190947909 L 694.15625 113.20307123505467 L 697.734375 119.02252016925074 L 701.3125 125.12467891672262 L 704.890625 131.47831048883035 L 708.46875 138.05089060597865 L 712.046875 144.8087741896059 L 715.625 151.71736759155124 L 719.203125 158.74130567915554 L 722.78125 165.84463286959476 L 726.359375 172.99098718673292 L 729.9375 180.143786398305 L 733.515625 187.26641528059065 L 737.09375 194.32241305197314 L 740.671875 201.275660015908 L 744.25 208.09056245787338 L 747.828125 214.73223484981796 L 751.40625 221.16667842939498 L 754.984375 227.36095523983911 L 758.5625 233.2833567395727 L 762.140625 238.9035661184267 L 765.71875 244.19281348958134 L 769.296875 249.1240231627962 L 772.875 253.67195224503655 L 776.453125 257.81331985900044 L 780.03125 261.5269263180748 L 783.609375 264.79376164766285 L 787.1875 267.59710289736256 L 790.765625 269.9225997458544 L 794.34375 271.7583479602849 L 797.921875 273.09495033410906 L 801.5000000000001 273.9255647914496 L 805.078125 274.245939411725 L 808.65625 274.05443419525864 L 812.2343749999999 273.3520294584465 L 815.8125 272.14232081551165 L 819.390625 270.4315007725329 L 822.9687499999999 268.2283270279672 L 826.546875 265.54407764193684 L 830.125 262.3924933037698 L 833.7031249999999 258.7897069933249 L 837.28125 254.7541613961675 L 840.859375 250.30651449534798 L 844.4374999999999 245.46953382305674 L 848.015625 240.26797991348536 L 851.59375 234.72847955349886 L 855.1718749999999 228.8793894799464 L 858.7500000000001 222.75065122134922 L 862.328125 216.37363782703073 L 865.9062499999999 209.78099326827973 L 869.4843750000001 203.00646533365895 L 873.0625 196.08473287386616 L 876.640625 189.05122828047945 L 880.2187500000001 181.94195610732504 L 883.796875 174.79330876294296 L 887.375 167.64188021761902 L 890.9531250000001 160.52427867862392 L 894.53125 153.47693919257333 L 898.109375 146.5359371341952 L 901.6875000000001 139.7368035362628 L 905.265625 133.1143432060177 L 908.84375 126.7024565591426 L 912.4218750000001 120.53396608332339 L 915.9999999999999 114.64044831973118" stroke-opacity="1" stroke-linecap="round" stroke-linejoin="round" stroke-miterlimit="10"/><text fill="rgb(127,0,255)" stroke="none" font-family="geogebra-sans-serif, sans-serif" font-size="12px" font-style="normal" font-weight="normal" text-decoration="normal" x="5" y="94" text-anchor="start" dominant-baseline="alphabetic" fill-opacity="1">y=sinx</text><text fill="rgb(127,0,255)" stroke="none" font-family="geogebra-sans-serif, sans-serif" font-size="12px" font-style="normal" font-weight="normal" text-decoration="normal" x="5" y="94" text-anchor="start" dominant-baseline="alphabetic" fill-opacity="1">y=sinx</text><path fill="none" stroke="rgb(0,100,0)" paint-order="fill stroke markers" d=" M 38.912109375 427.8281658057118 L 39.35937499999997 421.3288821259331 L 39.80664062500003 415.1106873737844 L 40.25390625000003 409.15479925669143 L 40.701171875 403.4440679829271 L 41.1484375 397.96280255200304 L 41.595703125 392.69661876212376 L 42.04296875 387.6323058317549 L 42.93750000000003 378.061626110634 L 43.83203125 369.16441611574635 L 44.7265625 360.8668752613843 L 45.62109375000003 353.10554785336944 L 46.515625 345.8255691607462 L 47.41015625 338.97925655141063 L 48.30468750000003 332.52496900036675 L 49.19921875 326.42617715945283 L 50.09375 320.6506999846438 L 50.98828125000003 315.1700741219952 L 51.8828125 309.9590298707662 L 53.67187500000003 300.2580183063305 L 55.4609375 291.3943924769973 L 57.25 283.2442170159754 L 59.03906250000003 275.7061368196895 L 60.828125 268.6964009271265 L 62.6171875 262.1451423552086 L 64.40625 255.99355851320422 L 66.1953125 250.19174721983404 L 67.984375 244.6970265981715 L 69.7734375 239.47261661335455 L 71.5625 234.48659401156223 L 75.140625 225.12144576638497 L 78.71875 216.41530591994018 L 82.296875 208.220030985868 L 85.875 200.41440029688948 L 89.453125 192.89618259676402 L 93.03125 185.57629838118459 L 96.609375 178.3743207500892 L 100.18750000000003 171.21480310556316 L 103.765625 164.02406248137862 L 107.34375 156.72712056145807 L 110.921875 149.24452906788358 L 114.5 141.48878818121386 L 118.078125 133.36000161296897 L 121.65625 124.74028355419532 L 125.234375 115.48620669499627 L 127.0234375 110.56695572440248 L 128.8125 105.41819105967225 L 130.6015625 100.00929191664858 L 132.390625 94.30505454865248 L 134.1796875 88.26471662316679 L 135.96875 81.84072995155896 L 137.7578125 74.97720144260823 L 139.546875 67.60789173214049 L 141.3359375 59.65361686542185 L 143.125 51.018833508404455 L 144.9140625 41.5870909029764 L 145.80859375 36.52878254616968 L 146.703125 31.214884183091897 L 147.59765625 25.62184895772029 L 148.4921875 19.723211751580436 L 149.38671875 13.489119646903134 L 150.28125 6.885768827961755 L 151.17578125 -0.12527458355356202 L 152.0703125 -7.5878986691815555 M 195.90234375 429.1627104373851 L 196.349609375 422.60483392326137 L 196.796875 416.3320132691297 L 197.244140625 410.3251168894143 L 197.69140625 404.5666833382245 L 198.138671875 399.040742835854 L 198.5859375 393.7326612012531 L 199.033203125 388.6290029759714 L 199.48046875 383.7174110415394 L 200.37500000000003 374.4257645961345 L 201.26953125 365.7766922079465 L 202.1640625 357.70076835735085 L 203.05859374999997 350.13816343661324 L 203.953125 343.0370385495202 L 204.84765625 336.3522520236744 L 205.74218749999997 330.04430922540166 L 206.63671875 324.0785039038568 L 207.53125 318.4242115102035 L 208.42578124999997 313.0543040055828 L 209.3203125 307.9446624658953 L 211.10937499999997 298.42236284207655 L 212.8984375 289.71055811912925 L 214.6875 281.6903039643297 L 216.4765625 274.26411831709754 L 218.265625 267.35129198187406 L 220.0546875 260.88437282722884 L 221.84375 254.806494166363 L 223.6328125 249.0693194420507 L 225.421875 243.63144297000792 L 227.2109375 238.4571323440419 L 229 233.5153296980631 L 232.578125 224.22373913333467 L 236.15625000000003 215.57484198367595 L 239.734375 207.42362595735688 L 243.3125 199.65108460059764 L 246.89062500000003 192.15653776384076 L 250.46875 184.85195676353183 L 254.046875 177.65756798330386 L 257.625 170.49824119816702 L 261.203125 163.30030133381055 L 264.78125 155.98847018633404 L 268.359375 148.48266489165854 L 271.9375 140.69435758284973 L 275.515625 132.52213026057467 L 279.09375 123.84592266435797 L 282.671875 114.51923221834541 L 284.4609375 109.55632903323477 L 286.25 104.35811377226071 L 288.0390625 98.89311701025865 L 289.828125 93.12510826499876 L 291.6171875 87.01207532110888 L 293.40625 80.50493782475317 L 295.1953125 73.54590978168973 L 296.984375 66.06639287052653 L 298.7734375 57.984234923740885 L 300.5625 49.20011766093624 L 302.3515625 39.592732061834994 L 303.24609375 34.434828188619406 L 304.140625 29.012237617542382 L 305.03515625 23.300297150052216 L 305.9296875 17.2712474861178 L 306.82421875 10.89372861759378 L 307.71875 4.132173315401218 L 308.61328125 -3.053926142187862 L 309.5078125 -10.710910029475684 M 353.33984375 423.8921680042067 L 353.787109375 417.56395777476246 L 354.234375 411.50535609924606 L 354.681640625 405.698582759638 L 355.12890625 400.1273829721898 L 355.576171875 394.7768671168494 L 356.0234375 389.63337025607876 L 356.91796875 379.9181709145997 L 357.8125 370.8926171829142 L 358.70703125 362.4805932381878 L 359.6015625 354.6167285743676 L 360.49609375 347.2445637697439 L 361.390625 340.3150794989843 L 362.28515625 333.7855075420906 L 363.1796875 327.6183626683487 L 364.07421875 321.7806489589788 L 364.96875 316.243204963994 L 365.86328125 310.9801601586338 L 366.7578125 305.9684812335898 L 368.546875 296.61904907320366 L 370.3359375 288.0543262463765 L 372.125 280.16010773174776 L 373.9140625 272.84259839460157 L 375.703125 266.023991162263 L 377.4921875 259.63914257301315 L 379.28125 253.63304011022038 L 381.0703125 247.9588492111751 L 382.859375 242.57639032617664 L 384.6484375 237.45093890762203 L 386.4375 232.55227058603865 L 390.015625 223.33243154421683 L 393.59375 214.73933525456582 L 397.171875 206.6309939255254 L 400.75 198.890539397196 L 404.328125 191.4187864428242 L 407.90625 184.12871361912778 L 411.48437499999994 176.94116475697297 L 415.0625 169.78129434928925 L 418.640625 162.575404842471 L 422.21875 155.24788635851877 L 425.796875 147.71798532771638 L 429.375 139.89610177446775 L 432.953125 131.6792390432106 L 436.53125 122.94508531678537 L 440.109375 113.54395420253849 L 441.8984375 108.536299532329 L 443.6875 103.28737710973061 L 445.4765625 97.76483630650351 L 447.265625 91.93137926267269 L 449.0546875 85.74369267723084 L 450.84375 79.15109888289881 L 452.6328125 72.09383521006457 L 454.421875 64.50083542646634 L 456.2109375 56.28683568739862 L 458 47.34855129717191 L 459.7890625 37.559555627438215 L 460.68359374999994 32.298540841801156 L 461.578125 26.763315449051305 L 462.47265625 20.92803251578522 L 463.3671875 14.763558014522374 L 464.26171875 8.236928050891294 L 465.15625 1.310694978443422 L 466.05078124999994 -6.057865079707568 M 510.330078125 425.19104569847855 L 510.77734375 418.8066679580013 L 511.224609375 412.69565123389907 L 511.671875 406.83988922207243 L 512.119140625 401.2228357423576 L 512.56640625 395.8293401322263 L 513.013671875 390.6455030491869 L 513.4609375 385.6585497895112 L 514.35546875 376.22916255898656 L 515.25 367.45754490890977 L 516.14453125 359.27212731596245 L 517.0390625 351.6113019275458 L 517.93359375 344.4217449770765 L 518.828125 337.65706709033793 L 519.72265625 331.27671906849275 L 520.6171875 325.24509845147765 L 521.51171875 319.5308151512121 L 522.40625 314.1060840613488 L 523.30078125 308.94621974278243 L 524.1953125 304.0292137126369 L 525.984375 294.8470497778384 L 527.7734375 286.4248580727629 L 529.5625 278.65293621297235 L 531.3515625 271.44100046469396 L 533.140625 264.7140138175636 L 534.9296875 258.4090408082051 L 536.71875 252.4728454173311 L 538.5078125 246.86003447794366 L 540.296875 241.5316068050234 L 543.875 231.5972156999092 L 547.453125 222.44736446525275 L 551.03125 213.90865714821922 L 554.609375 205.84202750035527 L 558.1875 198.13267212506898 L 561.765625 190.68284606858984 L 565.34375 183.4064925131014 L 568.921875 176.22503746362963 L 572.5 169.06388872821714 L 576.078125 161.84929588301628 L 579.65625 154.50528529494906 L 583.234375 146.95039595345406 L 586.8125 139.09391067601797 L 590.390625 130.8311955666689 L 593.96875 122.03760759545847 L 597.546875 112.56016400363141 L 599.3359375 107.50662939729798 L 601.125 102.20570810444028 L 602.9140625 96.62413428006336 L 604.703125 90.72350015477922 L 606.4921875 84.45913765527828 L 608.28125 77.77870335169646 L 610.0703125 70.620369687694 L 611.859375 62.91048751893766 L 613.6484375 54.560529501960076 L 615.4375 45.463041325480674 L 617.2265625 35.486202651788034 L 618.12109375 30.11839799810423 L 619.015625 24.46640605895942 L 619.91015625 18.50312383721581 L 620.8046875 12.19795594564033 L 621.69921875 5.516230254992934 L 622.59375 -1.581507739751686 L 623.48828125 -9.140352260968143 M 667.3203125 426.50163139107804 L 667.767578125 420.06029360670067 L 668.21484375 413.89613906992804 L 668.662109375 407.9907278743151 L 669.109375 402.3272158780771 L 669.556640625 396.8901856245758 L 670.00390625 391.6654983130668 L 670.8984375 381.80222628293495 L 671.79296875 372.64529522318765 L 672.6875 364.1161823891498 L 673.58203125 356.1475295277231 L 674.4765625 348.68122401550596 L 675.37109375 341.6668625256848 L 676.265625 335.06051111289287 L 677.16015625 328.8236970683281 L 678.0546875 322.9225835240033 L 678.94921875 317.3272892867872 L 679.84375 312.0113249351921 L 681.6328125 302.125641966372 L 683.421875 293.10537941086824 L 685.2109375 284.8213471016437 L 687 277.16812262427834 L 688.7890625 270.0587680152249 L 690.578125 263.420891370677 L 692.3671875 257.19366973285605 L 694.15625 251.3255697333379 L 695.9453125 245.77258186452636 L 697.734375 240.49683770205462 L 701.3125 230.64996901786827 L 704.890625 221.56838284491863 L 708.46875 213.08268154610508 L 712.046875 205.05662103057836 L 715.625 197.37739142017313 L 719.203125 189.94863485108368 L 722.78125 182.68521743561377 L 726.359375 175.50911260902572 L 729.9375 168.34595031563921 L 733.515625 161.12189682399145 L 737.09375 153.7605823409762 L 740.671875 146.17980102768024 L 744.25 138.2876723089175 L 747.828125 129.9778647508341 L 751.40625 121.1233217878671 L 754.984375 111.56764755978115 L 756.7734375 106.46707429226564 L 758.5625 101.11282592246026 L 760.3515625 95.47068584586631 L 762.140625 89.50109185792009 L 763.9296875 83.15796479943285 L 765.71875 76.38722352984368 L 767.5078125 69.12488267756395 L 769.296875 61.29458874083092 L 771.0859375 52.804390123680875 L 772.875 43.542447118731104 L 773.76953125 38.58030093110963 L 774.6640625 33.37125154357099 L 775.55859375 27.8928048140655 L 776.453125 22.11971394638823 L 777.34765625 16.023542186911328 L 778.2421875 9.5721395262685 L 779.13671875 2.729013002008543 L 780.03125 -4.547435528370158 L 780.92578125 -12.304837875159762 M 824.3105468750001 427.8240925950096 L 824.7578125000001 421.32498729249016 L 825.2050781250001 415.106958867908 L 825.6523437500001 409.15122608732497 L 826.0996093750001 403.4406401038227 L 826.546875 397.9595107622687 L 826.994140625 392.693454619073 L 827.44140625 387.6292615743189 L 828.3359375 378.05880073810704 L 829.23046875 369.16178521822815 L 830.125 360.864417910102 L 831.01953125 353.10324600069833 L 831.9140625 345.8234071601481 L 832.80859375 338.9772207702341 L 833.7031249999999 332.52304750520375 L 834.5976562500001 326.4243594586693 L 835.4921875000001 320.6489768163266 L 836.3867187500001 315.16843727822345 L 837.28125 309.9574720511575 L 839.0703125 300.25659966982846 L 840.859375 291.3930919888685 L 842.6484375 283.2430175646642 L 844.4374999999999 275.7050243341988 L 846.2265625000001 268.695363721716 L 848.015625 262.1441706358608 L 849.8046875 255.99264400103473 L 851.59375 250.19088286027835 L 853.3828125 244.69620633390787 L 855.1718749999999 239.47183520515708 L 858.7500000000001 229.71033929752727 L 862.328125 220.69533499520554 L 865.9062499999999 212.2612847118936 L 869.4843750000001 204.27467054251278 L 873.0625 196.6246070693316 L 876.640625 189.2160717376871 L 880.2187500000001 181.96481276944834 L 883.796875 174.79331678193438 L 887.375 167.62740487298984 L 890.9531250000001 160.39312949297408 L 894.53125 153.01369193007022 L 898.109375 145.40610343959327 L 901.6875000000001 137.47727272814922 L 905.265625 129.11910873555433 L 908.84375 120.20205624979408 L 912.4218750000001 110.56618519037667 L 914.2109375 105.41738312192277 L 915.9999999999999 100.00844155482315" stroke-opacity="1" stroke-linecap="round" stroke-linejoin="round" stroke-miterlimit="10"/><text fill="rgb(0,100,0)" stroke="none" font-family="geogebra-sans-serif, sans-serif" font-size="12px" font-style="normal" font-weight="normal" text-decoration="normal" x="49" y="413" text-anchor="start" dominant-baseline="alphabetic" fill-opacity="1">y=tanx</text><text fill="rgb(0,100,0)" stroke="none" font-family="geogebra-sans-serif, sans-serif" font-size="12px" font-style="normal" font-weight="normal" text-decoration="normal" x="49" y="413" text-anchor="start" dominant-baseline="alphabetic" fill-opacity="1">y=tanx</text><path fill="none" stroke="rgb(220,20,60)" paint-order="fill stroke markers" d=" M 0 135.067807951576 L 3.578125 141.74652059581402 L 7.156250000000028 148.59161875359231 L 10.734375 155.5680623248017 L 14.3125 162.6401388513437 L 17.89062500000003 169.7716463294257 L 21.46875 176.92607852784374 L 25.046875 184.066811863608 L 28.62499999999997 191.1572928782917 L 32.203125 198.16122535541285 L 35.78125 205.04275612099212 L 39.35937499999997 211.76665857617425 L 42.93750000000003 218.2985130224068 L 46.515625 224.60488285609128 L 50.09375 230.6534857307655 L 53.67187500000003 236.41335881063628 L 57.25 241.85501726952828 L 60.828125 246.95060522389338 L 64.40625 251.67403832725194 L 67.984375 256.00113729612457 L 71.5625 259.9097516839354 L 75.140625 263.3798732692857 L 78.71875 266.39373847816415 L 82.296875 268.9359193157924 L 85.875 270.99340234262706 L 89.453125 272.5556552902372 L 93.03125 273.61468097605257 L 96.609375 274.1650582409905 L 100.18750000000003 274.20396970040343 L 103.765625 273.7312161662882 L 107.34375 272.7492176669309 L 110.921875 271.2630010587667 L 114.5 269.2801742938708 L 118.078125 266.81088747480396 L 121.65625 263.86778089617474 L 125.234375 260.46592033889226 L 128.8125 256.6227199483401 L 132.390625 252.35785309125748 L 135.96875 247.69315164765243 L 139.546875 242.65249425327207 L 143.125 237.2616840647174 L 146.703125 231.54831667292402 L 150.28125 225.54163884116014 L 153.859375 219.27239879066323 L 157.4375 212.77268880030408 L 161.015625 206.07578092601125 L 164.59375 199.21595668090941 L 168.171875 192.22833154804053 L 171.75 185.1486752239868 L 175.328125 178.01322851357162 L 178.90625 170.85851781295366 L 182.484375 163.7211681307773 L 186.0625 156.6377156045256 L 189.640625 149.64442047180444 L 193.21875 142.77708145396085 L 196.796875 136.07085250220507 L 200.37500000000003 129.5600628443154 L 203.953125 123.27804125310766 L 207.53125 117.256945436239 L 211.10937499999997 111.5275974207025 L 214.6875 106.1193257746788 L 218.265625 101.05981547441316 L 221.84375 96.37496618464918 L 225.421875 92.08875967808392 L 229 88.22313707252417 L 232.578125 84.79788651416737 L 236.15625000000003 81.8305418819583 L 239.734375 79.33629303155341 L 243.3125 77.327908038355 L 246.89062500000003 75.81566783765389 L 250.46875 74.8073135964575 L 254.046875 74.30800708640773 L 257.625 74.32030426063979 L 261.203125 74.84414216984219 L 264.78125 75.87683928449462 L 268.359375 77.41310922163434 L 271.9375 79.44508780588345 L 275.515625 81.96237332621152 L 279.09375 84.95207978235942 L 282.671875 88.39890284835471 L 286.25 92.28519821545159 L 289.828125 96.59107191345748 L 293.40625 101.29448214809025 L 296.984375 106.37135213306033 L 300.5625 111.7956933392899 L 304.140625 117.53973853035512 L 307.71875 123.57408390314211 L 311.296875 129.86783960609858 L 314.875 136.38878786457616 L 318.453125 143.10354790381942 L 322.03125 149.97774682536 L 325.609375 156.97619556209793 L 329.1875 164.06306901135528 L 332.765625 171.2020894237997 L 336.34375 178.35671210946967 L 339.921875 185.4903125102699 L 343.5 192.56637368131197 L 347.078125 199.54867322138332 L 350.65625 206.40146869564438 L 354.234375 213.0896806013749 L 357.8125 219.57907194016744 L 361.390625 225.83642347733516 L 364.96875 231.82970379138095 L 368.546875 237.52823324304404 L 372.125 242.90284102456414 L 375.703125 247.92601448522834 L 379.28125 252.57203996880105 L 382.859375 256.817134441891 L 386.4375 260.63956723944705 L 390.015625 264.01977130416765 L 393.59375 266.9404433503898 L 397.171875 269.38663243971536 L 400.75 271.3458165149583 L 404.328125 272.80796650063337 L 407.90625 273.76559764185595 L 411.48437499999994 274.21380781884875 L 415.0625 274.1503026409238 L 418.640625 273.57540719148255 L 422.21875 272.49206436391177 L 425.796875 270.9058197968941 L 429.375 268.8247934862491 L 432.953125 266.2596382186242 L 436.53125 263.2234850398131 L 440.109375 259.73187603685085 L 443.6875 255.8026847779736 L 447.265625 251.45602481771107 L 450.84375 246.71414673547605 L 454.421875 241.6013242347097 L 458 236.14372988564187 L 461.578125 230.36930114774196 L 465.15625 224.3075973576894 L 468.734375 217.9896484149446 L 472.3125 211.44779593950136 L 475.890625 204.71552771493202 L 479.46875 197.82730626421437 L 483.046875 190.81839243586282 L 486.625 183.72466490342464 L 490.203125 176.58243650232623 L 493.78125 169.42826834424324 L 497.359375 162.2987826605417 L 500.9375 155.230475332847 L 504.515625 148.2595290703996 L 508.09375 141.42162819054042 L 511.671875 134.7517759504677 L 515.25 128.28411536534645 L 518.828125 122.05175442999982 L 522.40625 116.08659663887855 L 525.984375 110.4191776718736 L 529.5625 105.07850908198017 L 533.140625 100.09192978497812 L 536.71875 95.4849661113512 L 540.296875 91.28120113684213 L 543.875 87.50215396054156 L 547.453125 84.16716954848543 L 551.03125 81.29331970665314 L 554.609375 78.89531569028685 L 558.1875 76.98543289688398 L 561.765625 75.57344802836091 L 565.34375 74.66658904405516 L 568.921875 74.26949816075636 L 572.5 74.3842080891697 L 576.078125 75.01013162845706 L 579.65625 76.14406467212181 L 583.234375 77.78020260985002 L 586.8125 79.91017004134663 L 590.390625 82.52306365006177 L 593.96875 85.60550801733635 L 597.546875 89.14172409125314 L 601.125 93.11360995970188 L 604.703125 97.5008335141806 L 608.28125 102.28093652998497 L 611.859375 107.42944963000083 L 615.4375 112.92001754359842 L 619.015625 118.72453401942612 L 622.59375 124.81328570148662 L 626.171875 131.1551042319918 L 629.75 137.7175258023795 L 633.328125 144.4669573357522 L 636.90625 151.3688484500474 L 640.484375 158.38786832165758 L 644.0625 165.4880865441375 L 647.640625 172.63315705617757 L 651.21875 179.7865041973185 L 654.796875 186.91150993898563 L 658.375 193.9717013324042 L 661.953125 200.93093721385188 L 665.53125 207.75359321150154 L 669.109375 214.40474410680142 L 672.6875 220.8503426168871 L 676.265625 227.05739368283494 L 679.84375 232.99412337157332 L 683.421875 238.63014152684445 L 687 243.93659733660402 L 690.578125 248.8863270205068 L 694.15625 253.45399288146797 L 697.734375 257.61621300949275 L 701.3125 261.3516809738183 L 704.890625 264.64127489066635 L 708.46875 267.4681553082852 L 712.046875 269.81785140820773 L 715.625 271.6783350814618 L 719.203125 273.0400825005348 L 722.78125 273.89612287190585 L 726.359375 274.2420741195815 L 729.9375 274.0761653169699 L 733.515625 273.399245752265 L 737.09375 272.2147805809353 L 740.671875 270.5288330875711 L 744.25 268.350033647893 L 747.828125 265.68953554980476 L 751.40625 262.5609578996432 L 754.984375 258.98031590588823 L 758.5625 254.9659388972101 L 762.140625 250.53837649452265 L 765.71875 245.72029341734543 L 769.296875 240.536353462963 L 772.875 235.01309325229371 L 776.453125 229.17878638876152 L 780.03125 223.06329872554358 L 783.609375 216.69793548208247 L 787.1875 210.1152809924727 L 790.765625 203.34903190605084 L 794.34375 196.43382469403863 L 797.921875 189.40505834523069 L 801.5000000000001 182.29871315834947 L 805.078125 175.1511665586741 L 808.65625 167.99900688177135 L 812.2343749999999 160.87884607757937 L 815.8125 153.82713229360732 L 819.390625 146.87996329664247 L 822.9687499999999 140.0729016880551 L 826.546875 133.44079285862173 L 830.125 127.01758661475348 L 833.7031249999999 120.83616338922376 L 837.28125 114.92816592602894 L 840.859375 109.32383730098577 L 844.4374999999999 104.0518661072359 L 848.015625 99.13923959815999 L 851.59375 94.61110553946017 L 855.1718749999999 90.49064347758924 L 858.7500000000001 86.79894608350887 L 862.328125 83.55491117917597 L 865.9062499999999 80.77514499947334 L 869.4843750000001 78.47387718479045 L 873.0625 76.6628879394059 L 876.640625 75.35144772854768 L 880.2187500000001 74.54626982282436 L 883.796875 74.25147593295101 L 887.375 74.46857511068616 L 890.9531250000001 75.19645602398668 L 894.53125 76.43139264592322 L 898.109375 78.16706332823547 L 901.6875000000001 80.39458316188895 L 905.265625 83.10254945897937 L 908.84375 86.27710012316358 L 912.4218750000001 89.90198460981695 L 915.9999999999999 93.95864711267176" stroke-opacity="1" stroke-linecap="round" stroke-linejoin="round" stroke-miterlimit="10"/><text fill="rgb(220,20,60)" stroke="none" font-family="geogebra-sans-serif, sans-serif" font-size="12px" font-style="normal" font-weight="normal" text-decoration="normal" x="5" y="156" text-anchor="start" dominant-baseline="alphabetic" fill-opacity="1">y=cosx</text><text fill="rgb(220,20,60)" stroke="none" font-family="geogebra-sans-serif, sans-serif" font-size="12px" font-style="normal" font-weight="normal" text-decoration="normal" x="5" y="156" text-anchor="start" dominant-baseline="alphabetic" fill-opacity="1">y=cosx</text><path fill="none" stroke="rgb(125,125,255)" paint-order="fill stroke markers" d=" M -5 74.24999999999966 L 921 74.24999999999966" stroke-opacity="1" stroke-linejoin="round" stroke-miterlimit="10" stroke-dasharray="1,3"/><path fill="none" stroke="rgb(125,125,255)" paint-order="fill stroke markers" d=" M -5 274.24999999999926 L 921 274.24999999999926" stroke-opacity="1" stroke-linejoin="round" stroke-miterlimit="10" stroke-dasharray="1,3"/><path fill="none" stroke="rgb(255,215,0)" paint-order="fill stroke markers" d=" M 334.2898163397449 423 L 334.2898163397449 -5" stroke-opacity="1" stroke-linejoin="round" stroke-miterlimit="10" stroke-dasharray="1,3"/><path fill="none" stroke="rgb(255,215,0)" paint-order="fill stroke markers" d=" M 491.3694490192345 423 L 491.3694490192345 -5" stroke-opacity="1" stroke-linejoin="round" stroke-miterlimit="10" stroke-dasharray="1,3"/><path fill="none" stroke="rgb(255,215,0)" paint-order="fill stroke markers" d=" M 177.2101836602553 423 L 177.2101836602553 -5" stroke-opacity="1" stroke-linejoin="round" stroke-miterlimit="10" stroke-dasharray="1,3"/><path fill="none" stroke="rgb(255,215,0)" paint-order="fill stroke markers" d=" M 20.13055098076569 423 L 20.13055098076569 -5" stroke-opacity="1" stroke-linejoin="round" stroke-miterlimit="10" stroke-dasharray="1,3"/></g></g></svg>