<svg version="1.1" xmlns="http://www.w3.org/2000/svg" xmlns:xlink="http://www.w3.org/1999/xlink" width="406" height="314"><defs><clipPath id="HdGxoVBkBCzo"><path fill="none" stroke="none" d=" M 0 0 L 406 0 L 406 314 L 0 314 L 0 0 Z"/></clipPath></defs><g transform="scale(1,1)" clip-path="url(#HdGxoVBkBCzo)"><g><rect fill="rgb(255,255,255)" stroke="none" x="0" y="0" width="406" height="314" fill-opacity="1"/><path fill="rgb(127,0,255)" stroke="none" paint-order="stroke fill markers" d=" M 260.50223579372766 179.15202016595492 C 260.50223579372766 119.98701677619033 238.8129531047199 62.87466091020873 199.5394291253462 18.624373449533238 L 18.669626957399686 179.15202016595492 Z" fill-opacity="0.09803921568627451"/><path fill="none" stroke="rgb(127,0,255)" paint-order="fill stroke markers" d=" M 260.50223579372766 179.15202016595492 C 260.50223579372766 119.98701677619033 238.8129531047199 62.87466091020873 199.5394291253462 18.624373449533238 L 18.669626957399686 179.15202016595492 Z" stroke-opacity="1" stroke-linecap="round" stroke-linejoin="round" stroke-miterlimit="10"/><path fill="none" stroke="rgb(127,0,255)" paint-order="fill stroke markers" d=" M 260.50223579372766 179.15202016595492 C 260.50223579372766 119.98701677619033 238.8129531047199 62.87466091020873 199.5394291253462 18.624373449533238" stroke-opacity="1" stroke-linecap="round" stroke-linejoin="round" stroke-miterlimit="10"/><text fill="rgb(127,0,255)" stroke="none" font-family="geogebra-sans-serif, sans-serif" font-size="12px" font-style="normal" font-weight="normal" text-decoration="normal" x="250" y="87" text-anchor="start" dominant-baseline="alphabetic" fill-opacity="1">r</text><text fill="rgb(127,0,255)" stroke="none" font-family="geogebra-sans-serif, sans-serif" font-size="12px" font-style="normal" font-weight="normal" text-decoration="normal" x="250" y="87" text-anchor="start" dominant-baseline="alphabetic" fill-opacity="1">r</text><path fill="rgb(0,100,0)" stroke="none" paint-order="stroke fill markers" d=" M 48.669626957399714 179.15202016595492 C 48.669626957399714 171.8124388322638 45.9790118091729 164.7274940672712 41.10702318426988 159.23812424982563 L 18.669626957399714 179.15202016595492 Z" fill-opacity="0.09803921568627451"/><path fill="none" stroke="rgb(0,100,0)" paint-order="fill stroke markers" d=" M 48.669626957399714 179.15202016595492 C 48.669626957399714 171.8124388322638 45.9790118091729 164.7274940672712 41.10702318426988 159.23812424982563 L 18.669626957399714 179.15202016595492 Z" stroke-opacity="1" stroke-linecap="round" stroke-linejoin="round" stroke-miterlimit="10"/><text fill="rgb(0,100,0)" stroke="none" font-family="geogebra-sans-serif, sans-serif" font-size="12px" font-style="normal" font-weight="normal" text-decoration="normal" x="32" y="177" text-anchor="start" dominant-baseline="alphabetic" fill-opacity="1">θ</text><text fill="rgb(0,100,0)" stroke="none" font-family="geogebra-sans-serif, sans-serif" font-size="12px" font-style="normal" font-weight="normal" text-decoration="normal" x="32" y="177" text-anchor="start" dominant-baseline="alphabetic" fill-opacity="1">θ</text><path fill="rgb(0,0,255)" stroke="none" paint-order="stroke fill markers" d=" M 21.669626957399686 179.15202016595492 C 21.669626957399686 180.8088744154473 20.326481206892066 182.15202016595492 18.669626957399686 182.15202016595492 C 17.012772707907306 182.15202016595492 15.669626957399686 180.8088744154473 15.669626957399686 179.15202016595492 C 15.669626957399686 177.49516591646255 17.012772707907306 176.15202016595492 18.669626957399686 176.15202016595492 C 20.326481206892066 176.15202016595492 21.669626957399686 177.49516591646255 21.669626957399686 179.15202016595492 Z" fill-opacity="1"/><path fill="none" stroke="rgb(0,0,0)" paint-order="fill stroke markers" d=" M 21.669626957399686 179.15202016595492 C 21.669626957399686 180.8088744154473 20.326481206892066 182.15202016595492 18.669626957399686 182.15202016595492 C 17.012772707907306 182.15202016595492 15.669626957399686 180.8088744154473 15.669626957399686 179.15202016595492 C 15.669626957399686 177.49516591646255 17.012772707907306 176.15202016595492 18.669626957399686 176.15202016595492 C 20.326481206892066 176.15202016595492 21.669626957399686 177.49516591646255 21.669626957399686 179.15202016595492 Z" stroke-opacity="1" stroke-linecap="round" stroke-linejoin="round" stroke-miterlimit="10"/><text fill="rgb(0,0,255)" stroke="none" font-family="geogebra-sans-serif, sans-serif" font-size="12px" font-style="normal" font-weight="normal" text-decoration="normal" x="23" y="173" text-anchor="start" dominant-baseline="alphabetic" fill-opacity="1">A</text><text fill="rgb(0,0,255)" stroke="none" font-family="geogebra-sans-serif, sans-serif" font-size="12px" font-style="normal" font-weight="normal" text-decoration="normal" x="23" y="173" text-anchor="start" dominant-baseline="alphabetic" fill-opacity="1">A</text><path fill="rgb(0,0,255)" stroke="none" paint-order="stroke fill markers" d=" M 263.50223579372766 179.15202016595492 C 263.50223579372766 180.8088744154473 262.15909004322003 182.15202016595492 260.50223579372766 182.15202016595492 C 258.8453815442353 182.15202016595492 257.50223579372766 180.8088744154473 257.50223579372766 179.15202016595492 C 257.50223579372766 177.49516591646255 258.8453815442353 176.15202016595492 260.50223579372766 176.15202016595492 C 262.15909004322003 176.15202016595492 263.50223579372766 177.49516591646255 263.50223579372766 179.15202016595492 Z" fill-opacity="1"/><path fill="none" stroke="rgb(0,0,0)" paint-order="fill stroke markers" d=" M 263.50223579372766 179.15202016595492 C 263.50223579372766 180.8088744154473 262.15909004322003 182.15202016595492 260.50223579372766 182.15202016595492 C 258.8453815442353 182.15202016595492 257.50223579372766 180.8088744154473 257.50223579372766 179.15202016595492 C 257.50223579372766 177.49516591646255 258.8453815442353 176.15202016595492 260.50223579372766 176.15202016595492 C 262.15909004322003 176.15202016595492 263.50223579372766 177.49516591646255 263.50223579372766 179.15202016595492 Z" stroke-opacity="1" stroke-linecap="round" stroke-linejoin="round" stroke-miterlimit="10"/><text fill="rgb(0,0,255)" stroke="none" font-family="geogebra-sans-serif, sans-serif" font-size="12px" font-style="normal" font-weight="normal" text-decoration="normal" x="265" y="173" text-anchor="start" dominant-baseline="alphabetic" fill-opacity="1">B</text><text fill="rgb(0,0,255)" stroke="none" font-family="geogebra-sans-serif, sans-serif" font-size="12px" font-style="normal" font-weight="normal" text-decoration="normal" x="265" y="173" text-anchor="start" dominant-baseline="alphabetic" fill-opacity="1">B</text><path fill="rgb(0,0,255)" stroke="none" paint-order="stroke fill markers" d=" M 200.111082547077 20.779607529235868 C 200.111082547077 22.436461778728248 198.76793679656936 23.779607529235868 197.111082547077 23.779607529235868 C 195.45422829758462 23.779607529235868 194.111082547077 22.436461778728248 194.111082547077 20.779607529235868 C 194.111082547077 19.12275327974349 195.45422829758462 17.779607529235868 197.111082547077 17.779607529235868 C 198.76793679656936 17.779607529235868 200.111082547077 19.12275327974349 200.111082547077 20.779607529235868 Z" fill-opacity="1"/><path fill="none" stroke="rgb(0,0,0)" paint-order="fill stroke markers" d=" M 200.111082547077 20.779607529235868 C 200.111082547077 22.436461778728248 198.76793679656936 23.779607529235868 197.111082547077 23.779607529235868 C 195.45422829758462 23.779607529235868 194.111082547077 22.436461778728248 194.111082547077 20.779607529235868 C 194.111082547077 19.12275327974349 195.45422829758462 17.779607529235868 197.111082547077 17.779607529235868 C 198.76793679656936 17.779607529235868 200.111082547077 19.12275327974349 200.111082547077 20.779607529235868 Z" stroke-opacity="1" stroke-linecap="round" stroke-linejoin="round" stroke-miterlimit="10"/><text fill="rgb(0,0,255)" stroke="none" font-family="geogebra-sans-serif, sans-serif" font-size="12px" font-style="normal" font-weight="normal" text-decoration="normal" x="201" y="15" text-anchor="start" dominant-baseline="alphabetic" fill-opacity="1">C</text><text fill="rgb(0,0,255)" stroke="none" font-family="geogebra-sans-serif, sans-serif" font-size="12px" font-style="normal" font-weight="normal" text-decoration="normal" x="201" y="15" text-anchor="start" dominant-baseline="alphabetic" fill-opacity="1">C</text></g></g></svg>