<svg version="1.1" xmlns="http://www.w3.org/2000/svg" xmlns:xlink="http://www.w3.org/1999/xlink" width="289" height="195"><defs><clipPath id="xiLTzbEyaVld"><path fill="none" stroke="none" d=" M 0 0 L 289 0 L 289 195 L 0 195 L 0 0 Z"/></clipPath></defs><g transform="scale(1,1)" clip-path="url(#xiLTzbEyaVld)"><g><rect fill="rgb(255,255,255)" stroke="none" x="0" y="0" width="289" height="195" fill-opacity="1"/><path fill="rgb(127,0,255)" stroke="none" paint-order="stroke fill markers" d=" M 260.5022357937278 179.15202016595492 C 260.5022357937278 119.98701677619033 238.81295310472 62.874660910208746 199.53942912534632 18.624373449533266 L 18.6696269573998 179.15202016595492 Z" fill-opacity="0.09803921568627451"/><path fill="none" stroke="rgb(127,0,255)" paint-order="fill stroke markers" d=" M 260.5022357937278 179.15202016595492 C 260.5022357937278 119.98701677619033 238.81295310472 62.874660910208746 199.53942912534632 18.624373449533266 L 18.6696269573998 179.15202016595492 Z" stroke-opacity="1" stroke-linecap="round" stroke-linejoin="round" stroke-miterlimit="10"/><path fill="none" stroke="rgb(127,0,255)" paint-order="fill stroke markers" d=" M 260.5022357937278 179.15202016595492 C 260.5022357937278 119.98701677619033 238.81295310472 62.874660910208746 199.53942912534632 18.624373449533266" stroke-opacity="1" stroke-linecap="round" stroke-linejoin="round" stroke-miterlimit="10"/><text fill="rgb(127,0,255)" stroke="none" font-family="geogebra-sans-serif, sans-serif" font-size="12px" font-style="normal" font-weight="normal" text-decoration="normal" x="250" y="87" text-anchor="start" dominant-baseline="alphabetic" fill-opacity="1">r</text><text fill="rgb(127,0,255)" stroke="none" font-family="geogebra-sans-serif, sans-serif" font-size="12px" font-style="normal" font-weight="normal" text-decoration="normal" x="250" y="87" text-anchor="start" dominant-baseline="alphabetic" fill-opacity="1">r</text><path fill="rgb(0,100,0)" stroke="none" paint-order="stroke fill markers" d=" M 48.66962695739983 179.15202016595492 C 48.66962695739983 171.8124388322638 45.979011809173016 164.7274940672712 41.10702318426999 159.2381242498256 L 18.669626957399828 179.15202016595492 Z" fill-opacity="0.09803921568627451"/><path fill="none" stroke="rgb(0,100,0)" paint-order="fill stroke markers" d=" M 48.66962695739983 179.15202016595492 C 48.66962695739983 171.8124388322638 45.979011809173016 164.7274940672712 41.10702318426999 159.2381242498256 L 18.669626957399828 179.15202016595492 Z" stroke-opacity="1" stroke-linecap="round" stroke-linejoin="round" stroke-miterlimit="10"/><text fill="rgb(0,100,0)" stroke="none" font-family="geogebra-sans-serif, sans-serif" font-size="12px" font-style="normal" font-weight="normal" text-decoration="normal" x="32" y="177" text-anchor="start" dominant-baseline="alphabetic" fill-opacity="1">θ</text><text fill="rgb(0,100,0)" stroke="none" font-family="geogebra-sans-serif, sans-serif" font-size="12px" font-style="normal" font-weight="normal" text-decoration="normal" x="32" y="177" text-anchor="start" dominant-baseline="alphabetic" fill-opacity="1">θ</text><path fill="rgb(0,0,255)" stroke="none" paint-order="stroke fill markers" d=" M 21.6696269573998 179.15202016595492 C 21.6696269573998 180.8088744154473 20.32648120689218 182.15202016595492 18.6696269573998 182.15202016595492 C 17.01277270790742 182.15202016595492 15.6696269573998 180.8088744154473 15.6696269573998 179.15202016595492 C 15.6696269573998 177.49516591646255 17.01277270790742 176.15202016595492 18.6696269573998 176.15202016595492 C 20.32648120689218 176.15202016595492 21.6696269573998 177.49516591646255 21.6696269573998 179.15202016595492 Z" fill-opacity="1"/><path fill="none" stroke="rgb(0,0,0)" paint-order="fill stroke markers" d=" M 21.6696269573998 179.15202016595492 C 21.6696269573998 180.8088744154473 20.32648120689218 182.15202016595492 18.6696269573998 182.15202016595492 C 17.01277270790742 182.15202016595492 15.6696269573998 180.8088744154473 15.6696269573998 179.15202016595492 C 15.6696269573998 177.49516591646255 17.01277270790742 176.15202016595492 18.6696269573998 176.15202016595492 C 20.32648120689218 176.15202016595492 21.6696269573998 177.49516591646255 21.6696269573998 179.15202016595492 Z" stroke-opacity="1" stroke-linecap="round" stroke-linejoin="round" stroke-miterlimit="10"/><text fill="rgb(0,0,255)" stroke="none" font-family="geogebra-sans-serif, sans-serif" font-size="12px" font-style="normal" font-weight="normal" text-decoration="normal" x="23" y="173" text-anchor="start" dominant-baseline="alphabetic" fill-opacity="1">A</text><text fill="rgb(0,0,255)" stroke="none" font-family="geogebra-sans-serif, sans-serif" font-size="12px" font-style="normal" font-weight="normal" text-decoration="normal" x="23" y="173" text-anchor="start" dominant-baseline="alphabetic" fill-opacity="1">A</text><path fill="rgb(0,0,255)" stroke="none" paint-order="stroke fill markers" d=" M 263.5022357937278 179.15202016595492 C 263.5022357937278 180.8088744154473 262.15909004322015 182.15202016595492 260.5022357937278 182.15202016595492 C 258.8453815442354 182.15202016595492 257.5022357937278 180.8088744154473 257.5022357937278 179.15202016595492 C 257.5022357937278 177.49516591646255 258.8453815442354 176.15202016595492 260.5022357937278 176.15202016595492 C 262.15909004322015 176.15202016595492 263.5022357937278 177.49516591646255 263.5022357937278 179.15202016595492 Z" fill-opacity="1"/><path fill="none" stroke="rgb(0,0,0)" paint-order="fill stroke markers" d=" M 263.5022357937278 179.15202016595492 C 263.5022357937278 180.8088744154473 262.15909004322015 182.15202016595492 260.5022357937278 182.15202016595492 C 258.8453815442354 182.15202016595492 257.5022357937278 180.8088744154473 257.5022357937278 179.15202016595492 C 257.5022357937278 177.49516591646255 258.8453815442354 176.15202016595492 260.5022357937278 176.15202016595492 C 262.15909004322015 176.15202016595492 263.5022357937278 177.49516591646255 263.5022357937278 179.15202016595492 Z" stroke-opacity="1" stroke-linecap="round" stroke-linejoin="round" stroke-miterlimit="10"/><text fill="rgb(0,0,255)" stroke="none" font-family="geogebra-sans-serif, sans-serif" font-size="12px" font-style="normal" font-weight="normal" text-decoration="normal" x="265" y="173" text-anchor="start" dominant-baseline="alphabetic" fill-opacity="1">B</text><text fill="rgb(0,0,255)" stroke="none" font-family="geogebra-sans-serif, sans-serif" font-size="12px" font-style="normal" font-weight="normal" text-decoration="normal" x="265" y="173" text-anchor="start" dominant-baseline="alphabetic" fill-opacity="1">B</text><path fill="rgb(0,0,255)" stroke="none" paint-order="stroke fill markers" d=" M 200.1110825470771 20.779607529235875 C 200.1110825470771 22.436461778728255 198.76793679656947 23.779607529235875 197.1110825470771 23.779607529235875 C 195.45422829758473 23.779607529235875 194.1110825470771 22.436461778728255 194.1110825470771 20.779607529235875 C 194.1110825470771 19.122753279743495 195.45422829758473 17.779607529235875 197.1110825470771 17.779607529235875 C 198.76793679656947 17.779607529235875 200.1110825470771 19.122753279743495 200.1110825470771 20.779607529235875 Z" fill-opacity="1"/><path fill="none" stroke="rgb(0,0,0)" paint-order="fill stroke markers" d=" M 200.1110825470771 20.779607529235875 C 200.1110825470771 22.436461778728255 198.76793679656947 23.779607529235875 197.1110825470771 23.779607529235875 C 195.45422829758473 23.779607529235875 194.1110825470771 22.436461778728255 194.1110825470771 20.779607529235875 C 194.1110825470771 19.122753279743495 195.45422829758473 17.779607529235875 197.1110825470771 17.779607529235875 C 198.76793679656947 17.779607529235875 200.1110825470771 19.122753279743495 200.1110825470771 20.779607529235875 Z" stroke-opacity="1" stroke-linecap="round" stroke-linejoin="round" stroke-miterlimit="10"/><text fill="rgb(0,0,255)" stroke="none" font-family="geogebra-sans-serif, sans-serif" font-size="12px" font-style="normal" font-weight="normal" text-decoration="normal" x="201" y="15" text-anchor="start" dominant-baseline="alphabetic" fill-opacity="1">C</text><text fill="rgb(0,0,255)" stroke="none" font-family="geogebra-sans-serif, sans-serif" font-size="12px" font-style="normal" font-weight="normal" text-decoration="normal" x="201" y="15" text-anchor="start" dominant-baseline="alphabetic" fill-opacity="1">C</text></g></g></svg>